<svg xmlns="http://www.w3.org/2000/svg" width="175" height="48" viewBox="0 0 175 48">
    <g fill="none" fill-rule="evenodd">
        <path fill="#1F2B38" fill-rule="nonzero" d="M156.553 17.47a8.925 8.925 0 0 1 .598-3.228 7.482 7.482 0 0 1 1.757-2.683 8.81 8.81 0 0 1 2.81-1.834 10.756 10.756 0 0 1 7.512 0c1.046.424 2 1.047 2.81 1.834a7.805 7.805 0 0 1 1.763 2.677c.41 1.029.617 2.127.611 3.235a8.366 8.366 0 0 1-.381 2.564 9.86 9.86 0 0 1-1.053 2.269l-6.717 10.421h-6.06l4.672-6.95a8.636 8.636 0 0 1-3.428-.657 7.807 7.807 0 0 1-4.302-4.452 8.938 8.938 0 0 1-.592-3.195zm5.263.034a4.344 4.344 0 0 0 .27 1.538c.169.457.42.878.743 1.243a3.5 3.5 0 0 0 1.158.848 3.607 3.607 0 0 0 1.533.316 3.33 3.33 0 0 0 2.67-1.15 4.423 4.423 0 0 0 0-5.57 3.29 3.29 0 0 0-2.67-1.164 3.607 3.607 0 0 0-1.533.316 3.5 3.5 0 0 0-1.158.848 3.945 3.945 0 0 0-.743 1.256c-.184.485-.28 1-.283 1.519h.013z"/>
        <path fill="#50E3C2" d="M.095 35.594l23.581-23.568L35.627 23.97l-23.58 23.568z"/>
        <path fill="#1F2B38" d="M9.026 19.917c.98.968 1.16 2.485.435 3.656l.059.059 12.77-12.625L11.137 0 0 11.007l9.026 8.91zM63.04 8.522a2.98 2.98 0 1 1-3 2.978 2.938 2.938 0 0 1 .874-2.11 3.02 3.02 0 0 1 2.125-.868M60.454 16.53h5.138v16.202h-5.138zM58.783 13.078a5.536 5.536 0 0 0-1.645-.203c-1.066 0-2.138.164-2.138 2.038v1.703h3.79v4.326h-3.757v11.79H49.9v-11.79h-2.914v-4.326H49.9v-1.414c0-5.812 3.586-6.266 5.862-6.266 1.026-.049 2.051.1 3.02.44v3.702zM67.809 9.357h5.138v23.375h-5.138zM145.717 24.638a3.887 3.887 0 0 0-4.046-3.633 3.887 3.887 0 0 0 .165 7.769c2.328 0 3.888-1.88 3.888-4.136h-.007zm5.165-8.12v16.2h-5.165v-2.287c-.81 1.48-2.704 2.696-5.197 2.696-4.316 0-7.684-3.67-7.684-8.509 0-4.84 3.361-8.508 7.69-8.508a5.823 5.823 0 0 1 5.198 2.728v-2.32h5.158zM132.526 21.284a6.885 6.885 0 0 0-1.717-.236c-2.901 0-4.756 1.44-4.756 5.405v6.28h-5.185v-16.09h5.158v2.63a5.659 5.659 0 0 1 5.027-2.841 3.528 3.528 0 0 1 1.473.263v4.59zM114.658 24.638a3.944 3.944 0 0 0-3.915-4.123c-2.361 0-3.848 1.874-3.848 4.123s1.526 4.123 3.848 4.123a3.948 3.948 0 0 0 3.915-4.123m-12.928 0c0-4.603 3.408-8.509 9.04-8.509 5.631 0 9.013 3.886 9.013 8.509 0 4.622-3.375 8.508-9.02 8.508s-9.033-3.88-9.033-8.508M95.664 32.732V24c0-2.183-.743-3.498-2.5-3.498-1.552 0-2.736.973-2.736 4.096v8.134h-4.994v-8.765c0-2.19-.71-3.465-2.467-3.465-1.553 0-2.77 1.013-2.77 4.202v8.002h-4.993V16.517h4.993v2.348c.71-1.44 2.237-2.755 4.83-2.755 2.434 0 4.078 1.144 4.795 2.932.803-1.545 2.395-2.932 5.296-2.932 4.527 0 5.5 3.373 5.5 6.621v9.981l-4.954.02z"/>
    </g>
</svg>
