<?xml version="1.0" standalone="no"?>
<!DOCTYPE svg PUBLIC "-//W3C//DTD SVG 1.1//EN" "http://www.w3.org/Graphics/SVG/1.1/DTD/svg11.dtd" >
<svg xmlns="http://www.w3.org/2000/svg">
<metadata>
<json>
<![CDATA[
{
	"fontFamily": "filmora",
	"majorVersion": 4,
	"minorVersion": 4,
	"description": "Fonticon set for Wondershare Filmora\nFont generated by IcoMoon.",
	"designer": "Horan MA, Kobe LEI, Tonya ZHANG, Fiona LIANG, Amanda WANG",
	"fontURL": "https://www.filmora.com/",
	"copyright": "2017 Wondershare",
	"license": "MIT",
	"version": "Version 4.4",
	"fontId": "filmora",
	"psName": "filmora",
	"subFamily": "Regular",
	"fullName": "filmora"
}
]]>
</json>
</metadata>
<defs>
<font id="filmora" horiz-adv-x="1024">
<font-face units-per-em="1024" ascent="960" descent="-64" />
<missing-glyph horiz-adv-x="1024" />
<glyph unicode="&#x20;" horiz-adv-x="512" d="" />
<glyph unicode="&#xe900;" glyph-name="thumbs-up, like, agree, approve" data-tags="filmora, fm, community, thumbs, thumbs-up, like, agree, approve" d="M258.809 194.813c0 17.308-14.341 31.648-31.648 31.648s-31.648-14.341-31.648-31.648 14.341-31.648 31.648-31.648 31.648 14.341 31.648 31.648zM828.48 479.648c0 33.627-30.165 63.297-63.297 63.297h-174.066c0 57.857 47.473 99.891 47.473 158.241 0 57.857-11.373 94.944-79.121 94.944-31.648-32.143-15.33-107.801-63.297-158.241-13.846-14.341-25.714-29.67-38.076-45-22.252-28.681-81.098-113.241-120.165-113.241h-15.824v-316.484h15.824c27.692 0 73.187-17.801 99.891-27.199 54.395-18.791 110.77-36.098 169.121-36.098h59.835c55.879 0 94.944 22.252 94.944 82.583 0 9.395-0.989 18.791-2.473 27.692 20.77 11.373 32.143 39.56 32.143 62.308 0 11.868-2.967 23.737-8.902 34.121 16.813 15.824 26.209 35.605 26.209 58.846 0 15.824-6.924 39.066-17.308 50.934 23.241 0.495 37.087 45 37.087 63.297zM891.777 480.143c0-28.681-8.406-56.868-24.23-80.605 2.967-10.879 4.451-22.748 4.451-34.121 0-24.725-6.429-49.451-18.791-71.209 0.989-6.924 1.484-14.341 1.484-21.263 0-31.648-10.384-63.297-29.67-88.022 0.989-93.462-62.801-148.352-154.286-148.352h-63.791c-70.219 0-135.495 20.77-200.77 43.516-14.341 4.944-54.395 19.781-68.241 19.781h-142.417c-35.109 0-63.297 28.187-63.297 63.297v316.484c0 35.109 28.187 63.297 63.297 63.297h135.495c19.286 12.857 52.913 57.362 67.748 76.648 16.813 21.759 34.121 43.022 52.913 63.297 29.67 31.648 13.846 109.781 63.297 158.241 11.868 11.373 27.692 18.297 44.505 18.297 51.429 0 100.879-18.297 125.109-66.263 15.33-30.165 17.308-58.846 17.308-91.978 0-34.616-8.902-64.286-23.737-94.944h87.033c68.241 0 126.594-57.857 126.594-126.098z" />
<glyph unicode="&#xe901;" glyph-name="user" data-tags="filmora, fm, community, comment" d="M713.032 500c65.462-19.038 155.538-83.57 155.538-294.82 0-95.643-71.038-173.179-158.32-173.179h-396.5c-87.288 0-158.32 77.538-158.32 173.179 0 211.25 90.070 275.788 155.538 294.82-23.212 36.679-36.679 79.857-36.679 126.288 0 130.929 106.788 237.712 237.712 237.712s237.712-106.788 237.712-237.712c0-46.429-13.462-89.607-36.679-126.288zM511.994 804.57c-98.429 0-178.288-79.857-178.288-178.288s79.857-178.288 178.288-178.288 178.288 79.857 178.288 178.288-79.857 178.288-178.288 178.288zM710.244 91.43c54.32 0 98.893 50.607 98.893 113.75 0 146.25-49.212 237.712-141.143 242.357-41.788-36.679-96.107-58.962-156-58.962s-114.212 22.288-156 58.962c-91.929-4.643-141.143-96.107-141.143-242.357 0-63.143 44.57-113.75 98.893-113.75h396.5z" />
<glyph unicode="&#xe902;" glyph-name="view, eye" data-tags="filmora, fm, community, view, eye" d="M512 800q63.86 0 124.208-19.403t105.875-50.417 85.708-68.597 67.528-75.167 47.36-68.597 29.485-50.264l9.167-19.555q-2.139-4.583-5.805-12.375t-17.264-31.778-29.028-47.36-40.639-55-52.097-58.972-63.708-55.153-75.472-47.208-86.93-31.778-98.389-12.375q-63.86 0-124.208 19.403t-105.875 50.264-85.708 68.139-67.528 74.708-47.36 68.292-29.485 50.417l-9.167 19.25q2.139 4.583 5.805 12.375t17.264 31.93 29.028 47.514 40.639 55.305 52.097 59.278 63.708 55.305 75.472 47.514 86.93 31.93 98.389 12.375zM512 721.778q-42.778 0-84.028-11.305t-74.403-29.18-64.778-43.235-54.695-49.958-44.764-52.86-34.528-48.43-24.139-40.333q11.305-19.86 24.139-39.875t34.528-47.972 44.764-52.25 54.695-49.347 64.778-42.778 74.403-28.875 84.028-11.153 84.028 11.305 74.403 29.028 64.778 42.93 54.695 49.653 44.764 52.555 34.528 48.278 24.139 40.028q-11.305 19.86-24.139 40.028t-34.528 48.278-44.764 52.555-54.695 49.653-64.778 42.93-74.403 29.028-84.028 11.305zM512 604.445q64.778 0 110.61-45.833t45.833-110.61-45.833-110.61-110.61-45.833-110.61 45.833-45.833 110.61 45.833 110.61 110.61 45.833zM512 526.222q-32.389 0-55.305-22.917t-22.917-55.305 22.917-55.305 55.305-22.917 55.305 22.917 22.917 55.305-22.917 55.305-55.305 22.917z" />
<glyph unicode="&#xe903;" glyph-name="angle-double-right, link, more" data-tags="filmora, fm, navigation, nav, angle, right, double, more, link" d="M239.061 767.998l-83.998-83.185 236.406-238.55-236.406-234.265 83.185-83.998 320.405 317.452-319.595 322.548zM549.344 767.998l-83.998-83.185 236.406-238.55-236.406-234.265 83.185-83.998 320.405 317.452-319.595 322.548z" />
<glyph unicode="&#xe904;" glyph-name="angle-left, prev" data-tags="filmora, fm, navigation, nav, angle, left, previous, prev" d="M827.341 781.399l-98.014 114.601-532.669-455.539 534.629-440.461 95.904 116.335-395.977 326.312 396.128 338.751z" />
<glyph unicode="&#xe905;" glyph-name="angle-right, next" data-tags="filmora, fm, navigation, nav, angle, right, next" d="M294.672 895.999l-98.014-114.601 396.204-338.751-396.053-326.312 95.904-116.335 534.629 440.461-532.669 455.539z" />
<glyph unicode="&#xe906;" glyph-name="caret-down, toggle" data-tags="filmora, fm, navigation, nav, caret, down, toggle" d="M738.017 671.997l-229.578-268.433-221.113 268.339-89.062-73.385 308.542-374.518 318.931 372.98-87.714 75.020z" />
<glyph unicode="&#xe907;" glyph-name="cancel, close, remove" data-tags="filmora, fm, navigation, nav, cancel, close, remove, dismiss" d="M896.099 755.611l-76.487 76.404-305.199-305.283-301.126 305.283-76.985-75.905 301.623-305.781-309.94-309.94 76.404-76.487 309.439 309.522 305.283-309.522 76.985 75.989-305.864 309.94 305.864 305.781z" />
<glyph unicode="&#xe908;" glyph-name="caret-up, toggle-up" data-tags="filmora, fm, navigation, nav, caret, up, toggle" d="M506.81 672.001l-308.543-374.424 89.062-73.385 221.113 268.339 229.578-268.531 87.714 75.020-318.93 372.98z" />
<glyph unicode="&#xe909;" glyph-name="facebook, fb" data-tags="filmora, fm, brand, facebook, fb" horiz-adv-x="512" d="M99.944 755.653v-136.387h-99.944v-166.816h99.944v-495.782h205.31v495.727h137.777c0 0 12.909 79.988 19.199 167.463h-156.178v114.078c0 17.038 22.364 39.939 44.522 39.939h111.876v173.697h-152.145c-215.412 0-210.361-166.981-210.361-191.919v0z" />
<glyph unicode="&#xe90a;" glyph-name="finder, mac" data-tags="filmora, fm, brand, os, system, desktop, finder, mac" d="M605.843 857.6c-89.034-136.172-139.666-288.068-158.875-448.698h187.688c-15.712-61.106-25.317-121.343-27.058-180.708 99.51 9.604 186.803 35.777 240.073 69.839l31.424-40.157c-73.336-42.77-168.492-70.71-271.498-81.185 1.574-31.052 5.094-61.149 10.483-91.064 0.73-3.958 1.46-7.917 2.264-11.868 0.059-0.3 0.119-0.599 0.178-0.899 3.178-15.5 6.973-30.941 11.319-46.322h392.159v831.062h-418.157zM744.653 608.818h-53.258v123.084h53.258v-123.084zM552.785 171.224c-0.131 1.418-0.198 2.12-0.198 1.96-134.429-5.225-279.347 20.078-401.548 81.211l25.303 40.132c14.166-6.665 28.586-12.792 43.195-18.435 0.695-0.269 1.385-0.552 2.081-0.818 5.554-2.124 11.144-4.151 16.749-6.132 9.86-3.484 19.788-6.775 29.784-9.827 11.668-3.562 23.418-6.831 35.222-9.821 0.092-0.023 0.184-0.049 0.276-0.072 2.020-0.511 4.046-0.989 6.070-1.485 1.951-0.476 3.898-0.969 5.85-1.431 1.142-0.27 2.287-0.518 3.43-0.783 2.836-0.657 5.673-1.317 8.515-1.943 1.686-0.371 3.374-0.714 5.061-1.074 2.304-0.492 4.607-0.996 6.913-1.467 2.066-0.422 4.136-0.814 6.204-1.22 1.928-0.379 3.855-0.773 5.784-1.137 2.798-0.529 5.597-1.023 8.398-1.522 1.203-0.214 2.405-0.445 3.608-0.654 5.678-0.987 11.359-1.892 17.039-2.76 3.476-0.531 6.953-1.043 10.428-1.531 6.355-0.891 12.707-1.716 19.053-2.461 0.506-0.059 1.011-0.128 1.517-0.186 47.972-5.553 95.56-7.025 141.056-5.056 1.236 43.082 5.728 86.459 13.111 129.207h-182.438c0.648 7.436 1.382 14.826 2.158 22.198 0.173 1.636 0.355 3.267 0.532 4.9 0.672 6.152 1.386 12.282 2.145 18.388 0.165 1.332 0.324 2.67 0.493 4 0.943 7.388 1.939 14.748 3.009 22.068 0.084 0.58 0.179 1.155 0.264 1.733 0.942 6.377 1.938 12.724 2.973 19.049 0.372 2.28 0.756 4.554 1.142 6.828 0.792 4.669 1.614 9.322 2.459 13.964 0.472 2.602 0.933 5.211 1.421 7.804 1.098 5.821 2.235 11.621 3.414 17.398 0.915 4.495 1.879 8.963 2.842 13.431 0.385 1.779 0.764 3.562 1.156 5.338 28.056 127.388 75.505 243.377 137.802 346.582h-545.059v-831.063h572.872c-11.796 46.336-18.272 95.049-20.087 144.687zM247.936 731.903h53.231v-123.084h-53.231v123.084z" />
<glyph unicode="&#xe90b;" glyph-name="google-plus" data-tags="filmora, fm, brand, google, google-plus" horiz-adv-x="1317" d="M821.143 438.286q0-118.857-49.714-211.714t-141.714-145.143-210.857-52.286q-85.143 0-162.857 33.143t-133.714 89.143-89.143 133.714-33.143 162.857 33.143 162.857 89.143 133.714 133.714 89.143 162.857 33.143q163.429 0 280.571-109.714l-113.714-109.143q-66.857 64.571-166.857 64.571-70.286 0-130-35.429t-94.571-96.286-34.857-132.857 34.857-132.857 94.571-96.286 130-35.429q47.429 0 87.143 13.143t65.429 32.857 44.857 44.857 28 47.429 12.286 42.286h-237.714v144h395.429q6.857-36 6.857-69.714zM1316.571 508v-120h-119.429v-119.429h-120v119.429h-119.429v120h119.429v119.429h120v-119.429h119.429z" />
<glyph unicode="&#xe90c;" glyph-name="instagram, ins" data-tags="filmora, fm, brand, instagram, ins" d="M720.989 938.386h-421.236c-155.828 0-282.148-126.321-282.148-282.148v-421.235c0-155.828 126.321-282.148 282.148-282.148h421.235c155.828 0 282.148 126.321 282.148 282.148v421.234c0.001 155.828-126.321 282.149-282.147 282.149zM511.934 193.236c-140.701 0-254.764 114.063-254.764 254.761 0 140.702 114.062 254.764 254.764 254.764 140.7 0 254.761-114.061 254.761-254.764 0-140.699-114.062-254.761-254.761-254.761zM773.321 651.605c-32.917 0-59.602 26.685-59.602 59.602s26.687 59.602 59.602 59.602 59.602-26.685 59.602-59.602-26.685-59.602-59.602-59.602zM511.934 611.357c-90.219 0-163.357-73.137-163.357-163.357 0-90.218 73.137-163.356 163.357-163.356 90.218 0 163.356 73.137 163.356 163.356s-73.135 163.357-163.356 163.357z" />
<glyph unicode="&#xe90d;" glyph-name="check, tick" data-tags="filmora, fm, navigation, nav, check, tick" d="M997.666 708.74l-91.262 91.262-524.245-524.245-266.225 256.912-89.601-92.922 356.286-343.749 1.106 1.198 1.198-1.198 612.74 612.74z" />
<glyph unicode="&#xe90e;" glyph-name="download, try" data-tags="filmora, fm, navigation, nav, download, try" d="M510.888 246.357l287.086 260.538-83.851 95.457-140.443-127.487 0.16 356.95-125.899 0.077-0.16-351.227-128.997 121.765-85.681-93.709 277.787-262.367zM196.142 192.072h631.715v-127.963h-631.715v127.963z" />
<glyph unicode="&#xe90f;" glyph-name="menu, burger, bar" data-tags="filmora, fm, navigation, nav, menu, burger, bar" d="M162.68 194.568h698.641v-98.348h-698.641v98.348zM162.68 497.174h698.641v-98.348h-698.641v98.348zM162.68 799.78h698.641v-98.348h-698.641v98.348z" />
<glyph unicode="&#xe910;" glyph-name="hatena" data-tags="filmora, fm, brand, hatena" horiz-adv-x="1038" d="M848.755 202.653c-46.078 0-83.43-36.981-83.43-82.597s37.353-82.597 83.43-82.597c46.078 0 83.43 36.981 83.43 82.597s-37.354 82.597-83.43 82.597zM765.327 863.433v-578.18h166.859v578.18h-166.859zM97.889 863.433v-825.971h219.004c84.682 0 134.782 6.711 172.074 12.906 37.292 6.443 71.104 16.023 96.465 30.974 31.368 18.171 53.708 46.893 70.395 80.016 16.852 33.203 26.072 69.711 26.072 113.571 0 60.709-14.454 108.202-44.323 144.545-29.702 36.427-69.477 57.489-122.536 61.948 47.221 14.125 77.38 34.278 99.072 61.948 21.609 27.257 33.894 64.487 33.894 110.99 0 36.756-6.675 70.001-20.858 98.084-14.601 27.999-35.123 50.342-62.573 67.11-24.112 14.538-55.271 24.863-88.644 30.974-33.538 5.698-74.858 12.906-159.037 12.906h-219.004zM264.748 367.848h83.43c53.979 0 89.645-5.514 109.5-18.068 20.191-12.554 33.894-37.808 33.894-69.691 0-28.744-14.559-49.642-36.501-61.948-21.776-12.39-56.857-15.487-109.5-15.487h-80.823v165.194zM264.748 698.238h52.144c57.734 0 94.693-8.176 114.715-20.649 19.773-12.554 31.287-33.72 31.287-64.529 0-29.57-12.703-49.723-33.894-61.948-21.443-11.977-57.399-18.068-114.715-18.068h-49.537v165.194z" />
<glyph unicode="&#xe911;" glyph-name="subscribe, mail, contact, envelope" data-tags="filmora, fm, tooltip, subscribe, mail, contact, envelope" d="M926.656 737.31h-823.723c-26.329 0-48.897-18.807-48.897-45.135v-485.206c0-26.329 22.568-45.135 48.897-45.135h823.723c26.329 0 48.897 18.807 48.897 45.135v485.206c-3.762 22.568-22.568 45.135-48.897 45.135v0zM896.567 237.058v0c-11.284-11.284-30.092-11.284-41.375-3.762-71.464 56.42-214.394 173.019-214.394 173.019l-105.317-82.748c-7.521-3.762-11.284-7.521-18.807-7.521s-15.045 3.762-18.807 7.521l-105.317 82.748-214.394-173.019c-11.284-11.284-33.851-7.521-45.135 3.762s-7.521 30.092 3.762 41.375l206.871 165.497-206.871 165.497c-11.284 11.284-15.045 30.092-3.762 41.375s30.092 15.045 45.135 3.762l342.278-270.813 342.278 270.813c11.284 11.284 33.851 7.521 45.135-3.762s7.521-30.092-3.762-41.375l-206.871-165.497 206.871-165.497c3.762-7.521 3.762-30.092-7.521-41.375v0z" />
<glyph unicode="&#xe912;" glyph-name="twitter, t" data-tags="filmora, fm, brand, twitter, t" horiz-adv-x="1308" d="M1192.252 781.128c-39.063-17.205-81.375-29.114-125.603-34.327 45.226 26.883 79.709 69.479 96.285 120.266-42.311-24.896-89.122-43.010-139.264-52.688-39.647 42.018-96.618 68.487-159.42 68.487-120.689 0-218.64-97.271-218.64-217.122 0-17.122 1.999-33.581 5.581-49.462-181.908 9.099-342.911 95.368-450.941 226.882-18.907-32.010-29.652-69.479-29.652-109.264 0-75.269 38.731-141.853 97.285-180.563-35.815 0.909-69.298 10.919-98.867 27.13v-2.647c0-105.294 75.463-193.135 175.329-213.234-18.242-4.797-37.73-7.361-57.554-7.361-13.994 0-27.652 1.241-41.313 3.805 27.985-86.269 108.613-148.884 204.314-150.868-74.879-58.147-169.248-92.721-271.697-92.721-17.574 0-34.815 0.992-52.057 2.896 96.95-61.703 211.81-97.518 335.414-97.518 402.132 0 622.104 330.852 622.104 617.701l-0.666 28.122c42.979 30.686 80.044 68.817 109.362 112.489v0z" />
<glyph unicode="&#xe913;" glyph-name="play" data-tags="filmora, fm, navigation, nav, play" d="M512 864c-229.751 0-416-186.249-416-416s186.249-416 416-416c229.751 0 416 186.249 416 416-0.282 229.637-186.362 415.717-415.972 416zM512 110.223c-186.549 0-337.777 151.228-337.777 337.777s151.228 337.777 337.777 337.777c186.549 0 337.777-151.228 337.777-337.777-0.202-186.467-151.31-337.577-337.76-337.777zM412.444 305.777l234.668 142.223-234.668 142.223v-284.445z" />
<glyph unicode="&#xe914;" glyph-name="android" data-tags="filmora, fm, brand, os, system, mobile, google, android" d="M896 576c-35.2 0-64-28.8-64-64v-256c0-35.2 28.8-64 64-64s64 28.8 64 64v256c0 35.2-28.8 64-64 64zM128 576c-35.2 0-64-28.8-64-64v-256c0-35.2 28.8-64 64-64s64 28.8 64 64v256c0 35.2-28.802 64-64 64zM224 224c0-53.020 42.98-96 96-96v0-128c0-35.2 28.8-64 64-64s64 28.8 64 64v128h128v-128c0-35.2 28.8-64 64-64s64 28.8 64 64v128c53.020 0 96 42.98 96 96v352h-576v-352zM798.216 639.998c-9.716 87.884-59.004 163.792-129.62 209.646l32.024 64.046c7.904 15.806 1.496 35.028-14.31 42.932s-35.030 1.496-42.932-14.312l-32.142-64.286-8.35 3.316c-28.568 9.502-59.122 14.66-90.886 14.66-31.762 0-62.316-5.158-90.888-14.656l-8.348-3.316-32.142 64.282c-7.904 15.808-27.128 22.212-42.932 14.312-15.808-7.904-22.214-27.126-14.312-42.932l32.022-64.046c-70.616-45.852-119.904-121.762-129.622-209.644v-32h574.222v31.998h-1.784zM416 704c-17.674 0-32 14.328-32 32 0 17.648 14.288 31.958 31.93 31.996 0.032 0 0.062-0.002 0.094-0.002 0.018 0 0.036 0.002 0.052 0.002 17.638-0.042 31.924-14.35 31.924-31.996 0-17.672-14.326-32-32-32zM608 704c-17.674 0-32 14.328-32 32 0 17.646 14.286 31.954 31.924 31.996 0.016 0 0.034-0.002 0.050-0.002 0.032 0 0.064 0.002 0.096 0.002 17.64-0.038 31.93-14.348 31.93-31.996 0-17.672-14.326-32-32-32z" />
<glyph unicode="&#xe915;" glyph-name="youtube, yt" data-tags="filmora, fm, brand, youtube, yt" horiz-adv-x="1422" d="M1256.025 807.004c-42.658 51.717-121.447 72.811-271.92 72.811h-546.205c-153.9 0-234.028-22.459-276.538-77.516-41.449-53.69-41.449-132.805-41.449-242.29v-208.668c0-212.099 49.176-319.783 317.987-319.783h546.205c130.494 0 202.8 18.604 249.578 64.242 47.965 46.819 68.429 123.235 68.429 255.54v208.668c0 115.469-3.203 195.036-46.087 246.995v0zM878.899 426.863l-248.029-132.154c-5.553-2.961-11.621-4.422-17.675-4.422-6.85 0-13.705 1.881-19.755 5.618-11.418 7.043-18.381 19.669-18.381 33.263v263.477c0 13.575 6.951 26.183 18.343 33.224 11.398 7.062 25.55 7.538 37.372 1.274l248.029-131.303c12.609-6.683 20.54-19.955 20.56-34.459s-7.88-27.796-20.464-34.518v0z" />
<glyph unicode="&#xe916;" glyph-name="windows, win" data-tags="filmora, fm, brand, os, system, desktop, windows, win" d="M0.35 448l-0.35 312.074 384 52.144v-364.218zM448 821.518l511.872 74.482v-448h-511.872zM959.998 384l-0.126-448-511.872 72.016v375.984zM384 16.164l-383.688 52.594-0.020 315.242h383.708z" />
<glyph unicode="&#xe917;" glyph-name="ios" data-tags="filmora, fm, brand, os, system, mobile, ios, apple" horiz-adv-x="1023" d="M972.045 799.7c-9.334 23.688-30.847 57.029-61.344 80.493-17.615 13.554-38.648 26.532-67.514 35.099-30.784 9.142-68.728 12.212-115.912 12.212h-431.552c-47.182 0-85.127-3.068-115.912-12.212-28.867-8.567-49.9-21.513-67.514-35.099-30.497-23.496-52.010-56.837-61.344-80.493-18.764-47.695-18.956-101.846-18.956-135.924v-431.552c0-34.078 0.192-88.229 18.956-135.924 9.334-23.688 30.847-57.029 61.344-80.493 17.615-13.554 38.648-26.532 67.514-35.099 30.784-9.142 68.728-12.212 115.912-12.212h431.552c47.182 0 85.127 3.068 115.912 12.212 28.867 8.567 49.9 21.513 67.514 35.099 30.497 23.496 52.010 56.837 61.344 80.493 18.764 47.695 18.956 101.846 18.956 135.924v431.552c0 34.078-0.192 88.229-18.956 135.924zM255.765 275.060h-17.965v240.071h17.965v-240.071zM246.525 573.983c-7.574 0-13.841 6.010-13.841 13.585 0 7.8 6.234 13.841 13.841 13.841 7.8 0 14.002-6.010 14.002-13.841 0-7.574-6.202-13.585-14.002-13.585zM438.134 270.361c-87.845 0-143.339 63.966-143.339 165.652 0 101.175 55.749 165.395 143.339 165.395s143.307-64.222 143.307-165.395c0-101.686-55.496-165.652-143.307-165.652zM725.133 270.361c-65.948 0-113.227 37.242-115.912 90.498h17.615c2.686-43.666 43.698-74.227 99.641-74.227 54.599 0 92.704 31.008 92.704 72.885 0 33.692-22.729 53.066-76.656 66.651l-38.105 9.366c-59.49 15.184-86.502 39.256-86.502 79.566 0 50.156 46.832 86.278 105.459 86.278 60.609 0 105.872-35.675 107.888-82.922h-17.615c-2.461 38.551-40.12 66.651-90.722 66.651-48.398 0-86.949-28.993-86.949-69.559 0-32.127 23.624-50.603 75.314-63.517l35.898-9.142c62.176-15.376 90.051-39.256 90.051-82.027 0-53.256-44.785-90.498-112.106-90.498zM438.134 584.883c-76.464 0-125.277-57.732-125.277-148.87 0-91.201 49.036-149.157 125.277-149.157 76.464 0 125.277 57.956 125.277 149.157 0 91.169-48.813 148.87-125.277 148.87z" />
<glyph unicode="&#xe918;" glyph-name="download-thin, try-thin" data-tags="filmora, fm, navigation, nav, download, try" d="M226.107 131.687h571.368v-67.686h-571.368v67.686zM513.269 214.859l0.254-0.17 284.371 284.371-47.888 47.803-204.33-204.33v489.465h-67.686v-486.504l-201.37 201.37-47.888-47.803 284.371-284.371 0.17 0.17z" />
<glyph unicode="&#xe919;" glyph-name="purchase, buy, cart" data-tags="filmora, fm, navigation, nav, purchase, buy, cart" d="M848.098 378.55l131.913 389.664h-739.154v58.221h-196.869v-66.539h117.771l123.428-515.671h500.534v66.539h-446.303l-15.304 67.785h523.985zM244.264 701.675h642.923l-86.916-256.586h-494.127zM451.531 136.103c0-36.749-29.79-66.539-66.539-66.539s-66.539 29.79-66.539 66.539c0 36.749 29.79 66.539 66.539 66.539s66.539-29.79 66.539-66.539zM759.269 136.103c0-36.749-29.79-66.539-66.539-66.539s-66.539 29.79-66.539 66.539c0 36.749 29.79 66.539 66.539 66.539s66.539-29.79 66.539-66.539z" />
<glyph unicode="&#xe91a;" glyph-name="search, find" data-tags="filmora, fm, navigation, nav, search, find" d="M929.576 127.844l-173.668 143.918c37.122 55.751 59.235 124.266 59.235 197.946 0 199.021-161.338 360.359-360.359 360.359s-360.359-161.338-360.359-360.359c0-199.021 161.338-360.359 360.359-360.359 96.98 0 185.009 38.309 249.783 100.616l173.549-144.031zM172.998 471.157c0 155.415 125.99 281.405 281.405 281.405s281.405-125.99 281.405-281.405c0-155.415-125.99-281.405-281.405-281.405s-281.405 125.99-281.405 281.405z" />
<glyph unicode="&#xe91b;" glyph-name="cancel-alt, close-alt, remove-alt" data-tags="filmora, fm, tooltip, cancel, close, remove, dismiss" d="M512 884.87c-240.763 0-436.87-196.107-436.87-436.87s196.107-436.87 436.87-436.87c240.763 0 436.87 196.107 436.87 436.87s-196.107 436.87-436.87 436.87zM512 69.379c-209.697 0-378.621 168.924-378.621 378.621s168.924 378.621 378.621 378.621c209.697 0 378.621-168.924 378.621-378.621s-168.924-378.621-378.621-378.621zM688.69 624.69c-11.651 11.651-29.125 11.651-40.774 0l-133.974-133.974-133.974 133.974c-11.651 11.651-29.125 11.651-40.774 0s-11.651-29.125 0-40.774l133.974-133.974-133.974-133.974c-11.651-11.651-11.651-29.125 0-40.774 5.824-5.824 13.591-7.766 21.359-7.766s15.533 1.942 21.359 7.766l133.974 133.974 133.974-133.974c5.824-5.824 13.591-7.766 21.359-7.766s15.533 1.942 21.359 7.766c11.651 11.651 11.651 29.125 0 40.774l-133.974 133.974 133.974 133.974c5.824 9.708 5.824 29.125-3.884 40.774z" />
<glyph unicode="&#xe91c;" glyph-name="movie, video" data-tags="filmora, fm, tooltip, file, movie, video" horiz-adv-x="1038" d="M844 687.57c17.179-17.179 31.57-51.537 31.57-76.143v-534.857c0-24.607-19.963-44.57-44.57-44.57h-624c-24.607 0-44.57 19.963-44.57 44.57v742.857c0 24.607 19.963 44.57 44.57 44.57h416c24.607 0 58.963-14.393 76.143-31.57zM637.857 800.857v-174.57h174.57c-2.787 7.893-6.963 15.787-10.213 19.037l-145.32 145.32c-3.25 3.25-11.143 7.429-19.037 10.213zM816.143 91.43v475.428h-193.143c-24.607 0-44.57 19.963-44.57 44.57v193.143h-356.57v-713.143h594.287zM519 507.429c32.5 0 59.429-26.929 59.429-59.429v-178.287c0-32.5-26.929-59.429-59.429-59.429h-178.287c-32.5 0-59.429 26.929-59.429 59.429v178.287c0 32.5 26.929 59.429 59.429 59.429h178.287zM747.429 506.5c5.57-2.32 9.287-7.893 9.287-13.929v-267.429c0-6.037-3.713-11.607-9.287-13.929-1.857-0.463-3.713-0.929-5.57-0.929-3.713 0-7.893 1.393-10.679 4.179l-123.037 123.5v41.787l123.037 123.5c2.787 2.787 6.963 4.179 10.679 4.179 1.857 0 3.713-0.463 5.57-0.929z" />
<glyph unicode="&#xe91d;" glyph-name="guide, book" data-tags="filmora, fm, tooltip, guide, book" horiz-adv-x="1013" d="M854.304 598.437v0 161.573h-554.031c-70.218 0-96.352-92.036-52.040-138.848 13.181-14.091 31.131-22.725 51.13-22.725h554.937zM854.304 297.563v0h-554.031c-19.543 0-38.632-8.634-52.040-22.952-44.312-47.266-18.178-139.076 52.040-139.076h554.031v162.028zM713.863 528.672v0h-554.937v-162.256h554.937c19.543 1.138 37.949 9.544 51.13 23.18 30.225 32.269 30.225 84.764 0 116.351-13.181 13.636-31.587 22.27-51.13 22.725v0zM895.662 760.011v-161.573h27.044c19.316 0 34.768-15.907 34.768-34.995s-15.452-34.768-34.768-34.768h-88.854c30.225-48.859 30.452-112.714 0-162.256h88.854c19.316 0 34.768-14.997 34.768-33.86 0-19.771-15.452-34.995-34.768-34.995h-27.044v-162.028h27.044c19.316 0 34.768-15.224 34.768-34.768 0-18.633-15.452-34.087-34.768-34.087h-622.43c-116.806 0-179.299 136.122-121.123 230.885h-88.854c-19.088 0-34.768 15.224-34.768 34.995 0 18.861 15.679 33.86 34.768 33.86h27.044v162.256h-27.044c-19.088 0-34.768 15.679-34.768 34.768s15.679 34.995 34.768 34.995h88.854c-58.175 94.536 4.319 230.885 121.123 230.885h622.43c19.316 0 34.768-15.452 34.768-34.768 0-18.861-15.452-34.54-34.768-34.54h-27.044z" />
<glyph unicode="&#xe91e;" glyph-name="star, star-full, rating" data-tags="filmora, fm, navigation, nav, star, rating" d="M949.377 546.24l-302.174 43.861-135.161 273.899-135.161-273.899-302.258-43.861 218.709-213.174-51.612-301.067 270.321 142.145 270.321-142.145-51.612 301.067 218.625 213.174z" />
<glyph unicode="&#xe91f;" glyph-name="arrow-right, link-alt, more-alt" data-tags="filmora, fm, navigation, nav, arrow, right, link, more" d="M651.634 768l-61.292-60.753 214.195-216.138h-752.007v-86.325h755.355l-217.543-215.492 60.753-61.292 320.376 317.355-319.837 322.645z" />
<glyph unicode="&#xe920;" glyph-name="play-thin" data-tags="filmora, fm, navigation, nav, play" d="M512 864c-229.751 0-416-186.249-416-416s186.249-416 416-416c229.751 0 416 186.249 416 416-0.255 229.648-186.352 415.745-415.975 416zM512 69.477c-209.052 0-378.523 169.471-378.523 378.523s169.471 378.523 378.523 378.523c209.052 0 378.523-169.471 378.523-378.523-0.255-208.95-169.574-378.268-378.499-378.523zM407.063 298.091l247.351 149.909-247.351 149.91v-299.82z" />
<glyph unicode="&#xe921;" glyph-name="star-empty, rating-empty" data-tags="filmora, fm, navigation, nav, star, rating" d="M949.377 546.24l-302.174 43.861-135.161 273.899-135.161-273.899-302.258-43.861 218.709-212.919-51.612-301.321 270.321 142.145 270.321-142.145-51.953 301.067zM512.043 231.888l-202.442-106.46 38.667 225.439-163.861 159.688 226.375 32.874 101.264 205.082 101.179-205.082 226.375-32.874-163.778-159.688 38.667-225.439z" />
<glyph unicode="&#xe922;" glyph-name="star-half, rating-half" data-tags="filmora, fm, navigation, nav, star, rating, half" d="M949.377 546.241l-302.258 43.947-135.077 273.813-135.161-273.899-302.258-43.861 218.709-212.919-51.612-300.983 270.321 141.804 270.321-142.145-51.953 301.067zM515.021 230.27l-1.619 515.263 99.73-202.187 226.376-32.874-163.778-159.688 38.667-225.439z" />
<glyph unicode="&#xe923;" glyph-name="essential, bookmark" data-tags="filmora, fm, tooltip, essential, bookmark" d="M807.823 863.999h-591.645c-25.885 0-46.221-20.338-46.221-46.221v-739.555c0-25.885 20.338-46.221 46.221-46.221h591.645c25.885 0 46.221 20.338 46.221 46.221v739.555c0 25.885-20.338 46.221-46.221 46.221zM678.402 808.533v-306.915l-75.805 55.466c-5.546 3.698-11.094 5.546-16.64 5.546s-11.094-1.85-16.64-5.546l-75.805-55.466v306.915h184.89zM225.424 808.533h64.71v-721.066h-64.71v721.066zM798.58 87.465h-452.977v721.066h92.445v-360.534c0-11.094 5.546-20.338 14.79-24.035 9.245-5.546 20.338-3.698 29.581 1.85l103.538 73.955 103.538-73.955c5.546-3.698 11.094-5.546 16.64-5.546 3.698 0 9.245 1.85 12.941 3.698 9.245 5.546 14.79 14.79 14.79 24.035v360.534h64.71v-721.066z" />
<glyph unicode="&#xe924;" glyph-name="guide-alt, sign" data-tags="filmora, fm, tooltip, guide, sign" d="M812 488.001l128.001 145.999c5.999 8.001 5.999 17.999 0 26.001l-128.001 145.999h-270.001v60c0 16-14.001 29.999-29.999 29.999s-29.999-14.001-29.999-29.999v-60h-366.002c-3.999 0-10.001-1.999-14.001-3.999-8.001-8.001-10.001-19.999-1.999-28l110.002-126-110.002-126c-3.999-3.999-3.999-8.001-3.999-14.001 0-12.001 8.001-19.999 19.999-19.999h366.002v-40.001h-270.001l-128.001-145.999c-5.999-8.001-5.999-17.999 0-26.001l128.001-145.999h270.001v-100c0-16 14.001-29.999 29.999-29.999s29.999 14.001 29.999 29.999v100h366.002c12.001 0 19.999 8.001 19.999 19.999 0 3.999-1.999 10.001-3.999 14.001l-110.002 126 110.002 126c8.001 8.001 5.999 19.999-1.999 28-3.999 3.999-8.001 3.999-14.001 3.999h-366.002v40.001h270.001zM732.003 288l88-100h-580.002l-88 100 88 100h580.002l-88-100zM291.998 648.001l-88 100h580.002l88-100-88-100h-580.002l88 100z" />
<glyph unicode="&#xe925;" glyph-name="question, faq" data-tags="filmora, fm, tooltip, file, question, faq" horiz-adv-x="1038" d="M779.739 615.531v0l-144.355 143.743v-110.257c0-8.575 3.675-16.743 8.983-22.869l1.224-1.020c5.717-6.126 14.496-9.597 23.888-9.597h110.257zM598.223 790.921v0h-350.374c-5.717 0-11.639-2.451-15.11-5.922-3.88-4.289-6.126-9.392-6.126-15.314v-643.374c0-5.717 2.247-11.23 6.126-15.11 3.471-3.88 8.983-6.126 15.11-6.126h542.508c5.717 0 11.025 1.838 14.496 6.126h0.409c3.675 3.88 6.331 9.392 6.331 15.11v451.649h-142.109c-20.009 0-37.569 8.168-50.432 20.622l-1.020 1.224c-12.251 13.272-19.805 30.424-19.805 49.208v141.905zM247.847 853.605v0h368.956c8.983 0 16.334-3.88 22.255-9.392l225.62-225.62c6.126-5.922 9.188-13.885 9.188-21.846v-470.434c0-22.869-9.597-43.9-24.706-59.009v-0.205l-1.020-0.614c-14.905-14.496-35.323-24.093-57.782-24.093h-542.508c-23.278 0-44.306 9.597-59.212 24.706-15.11 15.11-24.502 36.345-24.502 59.212v643.374c0 23.481 9.392 43.9 24.502 59.212 14.905 15.314 35.732 24.706 59.212 24.706v0zM568.006 305.042c0 5.229-4.278 9.505-9.505 9.505h-57.032c-5.229 0-9.505-4.278-9.505-9.505v-57.032c0-5.229 4.278-9.505 9.505-9.505h57.032c5.229 0 9.505 4.278 9.505 9.505v57.032zM643.097 447.622c0 54.419-57.032 95.054-107.885 95.054-48.476 0-84.599-20.674-110.262-63.211-2.615-4.278-1.664-9.505 2.377-12.594l38.971-29.704c1.901-1.187 3.802-1.901 5.94-1.901 2.615 0 5.466 1.426 7.367 3.802 14.021 17.586 19.724 23.289 25.427 27.328 5.229 3.565 14.971 6.89 25.664 6.89 19.247 0 36.596-11.883 36.596-25.19 0-15.208-7.604-23.050-25.902-31.367-20.911-9.505-49.427-34.218-49.427-62.974v-10.693c0-5.229 3.327-13.307 8.555-13.307h57.032c5.466 0 9.505 6.179 9.505 11.406 0 6.89 8.791 23.289 22.812 31.367 22.575 12.594 53.23 29.943 53.23 75.093v0z" />
<glyph unicode="&#xe926;" glyph-name="snapchat" data-tags="filmora, fm, brand, snapchat" horiz-adv-x="951" d="M484.571 886.857c102.857 1.143 188-56.571 230.857-149.143 13.143-28 15.429-71.429 15.429-102.286 0-36.571-2.857-72.571-5.143-109.143 4.571-2.286 10.857-4 16-4 20.571 0 37.714 15.429 58.286 15.429 19.429 0 47.429-13.714 47.429-36.571 0-54.857-114.857-44.571-114.857-92.571 0-8.571 3.429-16.571 6.857-24.571 27.429-60 79.429-117.714 141.143-143.429 14.857-6.286 29.714-9.714 45.714-13.143 10.286-2.286 16-9.714 16-20 0-38.857-98.857-54.857-125.143-58.857-11.429-17.714-2.857-59.429-33.143-59.429-23.429 0-46.857 7.429-72 7.429-12 0-24-0.571-35.429-2.857-68-11.429-90.857-84.571-202.286-84.571-107.429 0-133.143 73.143-199.429 84.571-12 2.286-24 2.857-36 2.857-25.714 0-50.286-8.571-70.857-8.571-32 0-22.286 42.286-34.286 60.571-26.286 4-125.143 20-125.143 58.857 0 10.286 5.714 17.714 16 20 16 3.429 30.857 6.857 45.714 13.143 61.143 25.143 114.286 83.429 141.143 143.429 3.429 8 6.857 16 6.857 24.571 0 48-115.429 38.857-115.429 92 0 22.286 26.286 36.571 46.286 36.571 17.714 0 35.429-14.857 57.714-14.857 6.286 0 12.571 1.143 18.286 4-2.286 36-5.143 72-5.143 108.571 0 30.857 2.286 74.857 15.429 102.857 50.286 108.571 135.429 148 249.143 149.143z" />
<glyph unicode="&#xe927;" glyph-name="info" data-tags="filmora, fm, tooltip, info" d="M512 884.87c-240.763 0-436.87-196.107-436.87-436.87s196.107-436.87 436.87-436.87c240.763 0 436.87 196.107 436.87 436.87s-196.107 436.87-436.87 436.87zM512 69.379c-209.697 0-378.621 168.924-378.621 378.621s168.924 378.621 378.621 378.621c209.697 0 378.621-168.924 378.621-378.621s-168.924-378.621-378.621-378.621zM512 535.374c-15.533 0-29.125-13.591-29.125-29.125v-291.247c0-15.533 13.591-29.125 29.125-29.125s29.125 13.591 29.125 29.125v291.247c0 15.533-13.591 29.125-29.125 29.125zM512 690.705c-15.533 0-29.125-13.591-29.125-29.125v-38.834c0-15.533 13.591-29.125 29.125-29.125s29.125 13.591 29.125 29.125v38.834c0 15.533-13.591 29.125-29.125 29.125z" />
<glyph unicode="&#xe928;" glyph-name="box, container" data-tags="filmora, fm, store, effects-store, box, container" d="M491.069 598.528v-476.746c0-8.807-8.401-15.214-16.912-12.904l-340.199 93.075c-5.84 1.607-9.872 6.882-9.872 12.929v459.086c0 8.558 7.924 14.92 16.278 13.064l340.221-75.438c6.135-1.359 10.482-6.791 10.482-13.064v0zM809.509 726.289l-294.624-65.34c-1.902-0.43-3.894-0.43-5.796 0l-294.624 65.34c-3.148 0.678-3.148 5.184 0 5.865l294.624 65.34c1.902 0.43 3.894 0.43 5.796 0l294.624-65.34c3.148-0.678 3.148-5.184 0-5.865v0zM888.729 201.612l-326.41-89.318c-8.514-2.31-16.912 4.076-16.912 12.929v476.066c0 6.271 4.369 11.727 10.482 13.064l326.435 72.382c8.354 1.858 16.278-4.506 16.278-13.064v-459.155c0-6.044-4.029-11.319-9.872-12.904v0zM954.252 755.744l-442.265 98.058-442.241-98.058-1.29-592.191 443.533-121.354 443.555 121.354-1.29 592.191z" />
<glyph unicode="&#xe929;" glyph-name="comment-more, reply-more" data-tags="filmora, fm, community, comment, reply" d="M675.203 511.014c0-34.954 28.049-63.004 63.004-63.004s63.004 28.049 63.004 63.004c0 34.954-28.049 63.004-63.004 63.004s-63.004-28.049-63.004-63.004zM486.16 511.014c0-34.954 28.049-63.004 63.004-63.004s63.004 28.049 63.004 63.004c0 34.954-28.049 63.004-63.004 63.004s-63.004-28.049-63.004-63.004v0zM297.118 511.014c0-34.954 28.049-63.004 63.004-63.004s63.004 28.049 63.004 63.004c0 34.954-28.049 63.004-63.004 63.004s-63.004-28.049-63.004-63.004v0zM549.164 763.088c204.792 0 378.081-115.195 378.081-252.077 0-73.363-49.221-143.273-134.399-191.494l-42.831-24.626 13.299-47.253c9.36-34.954 21.657-62.036 34.47-84.659-49.736 20.688-95.022 48.737-135.399 84.175l-21.171 18.72-28.049-2.97c-21.171-2.453-42.831-3.938-64.003-3.938-204.792 0-378.081 115.195-378.081 252.077s173.29 252.077 378.081 252.077v-0.031zM108.046 511.014c0-174.292 197.398-315.080 441.117-315.080 24.111 0 48.253 1.484 71.396 3.938 64.487-57.097 141.305-97.474 226.447-119.129 17.72-4.907 36.924-8.362 56.128-10.842h2.453c9.844 0 18.72 7.876 21.171 18.72v0.484c2.453 12.297-5.906 19.688-13.299 28.565-31.015 34.954-66.457 64.487-89.596 146.695 101.412 57.613 166.415 146.695 166.415 246.655 0 173.776-197.398 315.080-441.117 315.080v0c-243.685 0-441.117-141.305-441.117-315.080v0zM136.906 163.403c-4.797-17.906-10.989-32.7-19.069-46.962-12.292-21.704 9.83-46.683 32.859-37.103 33.748 14.038 64.395 33.073 91.627 56.974l4.626 4.093 6.013-0.636c14.576-1.69 28.959-2.6 42.656-2.6 91.914 0 178.082 34.852 225.395 90.552l-39.939 33.924c-36.689-43.193-108.095-72.073-185.455-72.073-11.577 0-23.968 0.785-36.884 2.281l-17.743 1.88c-7.31 0.775-14.607-1.557-20.113-6.425l-13.199-11.671c-5.412-4.75-10.987-9.272-16.726-13.568l4.673 16.599c3.25 11.55-1.759 23.83-12.161 29.81l-26.701 15.352c-45.705 25.876-70.64 61.375-70.64 96.663 0 31.748 20.678 63.703 58.291 88.76l-29.052 43.612c-51.095-34.036-81.642-81.241-81.642-132.372 0-56.081 36.312-107.777 97.076-142.174l8.859-5.095-2.762-9.814z" />
<glyph unicode="&#xe92a;" glyph-name="cog, gear, setting" data-tags="filmora, fm, community, cog, gear, setting" d="M647.618 448c0 74.696-60.922 135.619-135.619 135.619s-135.619-60.922-135.619-135.619 60.922-135.619 135.619-135.619 135.619 60.922 135.619 135.619zM918.856 505.744v-117.607c0-7.946-6.357-17.482-14.833-19.071l-98.006-14.833c-5.828-16.953-12.185-32.846-20.661-48.208 18.012-25.958 37.083-49.268 56.685-73.107 3.179-3.708 5.297-8.476 5.297-13.244s-1.589-8.476-4.768-12.185c-12.714-16.953-84.232-94.828-102.244-94.828-4.768 0-9.536 2.119-13.774 4.768l-73.107 57.214c-15.363-7.946-31.786-14.833-48.208-20.131-3.708-32.315-6.887-66.75-15.363-98.536-2.119-8.476-9.536-14.833-19.071-14.833h-117.607c-9.536 0-18.012 6.887-19.071 15.893l-14.833 97.476c-16.422 5.297-32.315 11.654-47.679 19.601l-74.696-56.685c-3.708-3.179-8.476-4.768-13.244-4.768s-9.536 2.119-13.244 5.828c-28.078 25.429-65.161 58.274-87.411 89-2.649 3.708-3.708 7.946-3.708 12.185 0 4.768 1.589 8.476 4.238 12.185 18.012 24.369 37.613 47.679 55.625 72.578-9.006 16.953-16.422 34.435-21.721 52.446l-96.946 14.304c-9.006 1.589-15.363 10.065-15.363 19.071v117.607c0 7.946 6.357 17.482 14.304 19.071l98.536 14.833c5.297 16.953 12.185 32.846 20.661 48.738-18.012 25.429-37.083 49.268-56.685 73.107-3.179 3.708-5.297 7.946-5.297 12.714s2.119 8.476 4.768 12.185c12.714 17.482 84.232 94.828 102.244 94.828 4.768 0 9.536-2.119 13.774-5.297l73.107-56.685c15.363 7.946 31.786 14.833 48.208 20.131 3.708 32.315 6.887 66.75 15.363 98.536 2.119 8.476 9.536 14.833 19.071 14.833h117.607c9.536 0 18.012-6.887 19.071-15.893l14.833-97.476c16.422-5.297 32.315-11.654 47.679-19.601l75.226 56.685c3.179 3.179 7.946 4.768 12.714 4.768s9.536-2.119 13.244-5.297c28.078-25.958 65.161-58.804 87.411-90.060 2.649-3.179 3.708-7.417 3.708-11.654 0-4.768-1.589-8.476-4.238-12.185-18.012-24.369-37.613-47.679-55.625-72.578 9.006-16.953 16.422-34.435 21.721-51.917l96.946-14.833c9.006-1.589 15.363-10.065 15.363-19.071z" />
<glyph unicode="&#xe92b;" glyph-name="comment, reply" data-tags="filmora, fm, community, comment, reply" d="M387.047 510.477c0-34.655-27.821-62.477-62.477-62.477s-62.477 27.821-62.477 62.477 27.821 62.477 62.477 62.477 62.477-27.821 62.477-62.477zM574.476 510.477c0-34.655-27.821-62.477-62.477-62.477s-62.477 27.821-62.477 62.477 27.821 62.477 62.477 62.477 62.477-27.821 62.477-62.477zM761.904 510.477c0-34.655-27.821-62.477-62.477-62.477s-62.477 27.821-62.477 62.477 27.821 62.477 62.477 62.477 62.477-27.821 62.477-62.477zM511.999 760.38c-203.048 0-374.857-114.214-374.857-249.905 0-72.727 48.809-142.036 133.25-189.87l42.464-24.405-13.179-46.857c-9.273-34.655-21.477-61.5-34.166-83.952 49.298 20.5 94.202 48.321 134.227 83.464l20.987 18.548 27.821-2.929c20.987-2.441 42.464-3.905 63.452-3.905 203.048 0 374.857 114.214 374.857 249.905s-171.809 249.905-374.857 249.905zM949.333 510.477c0-172.786-195.727-312.38-437.335-312.38-23.916 0-47.834 1.464-70.773 3.905-63.941-56.62-140.084-96.643-224.523-118.12-17.571-4.88-36.607-8.298-55.643-10.737h-2.441c-9.763 0-18.548 7.809-20.987 18.548v0.487c-2.441 12.202 5.857 19.523 13.179 28.309 30.75 34.655 65.893 63.941 88.834 145.452-100.548 57.107-164.977 145.452-164.977 244.536 0 172.298 195.727 312.38 437.335 312.38v0c241.607 0 437.335-140.084 437.335-312.38z" />
<glyph unicode="&#xe92c;" glyph-name="comment-alt, reply-alt" data-tags="filmora, fm, community, comment, reply" d="M387.471 502.967c0 34.537-27.727 62.262-62.262 62.262s-62.262-27.727-62.262-62.262 27.727-62.262 62.262-62.262 62.262 27.727 62.262 62.262zM574.262 502.967c0 34.537-27.727 62.262-62.262 62.262s-62.262-27.727-62.262-62.262 27.727-62.262 62.262-62.262 62.262 27.727 62.262 62.262zM761.054 502.967c0 34.537-27.727 62.262-62.262 62.262s-62.262-27.727-62.262-62.262 27.727-62.262 62.262-62.262 62.262 27.727 62.262 62.262zM947.845 502.967c0-172.198-195.061-311.318-435.846-311.318-35.51 0-70.046 2.919-102.637 8.756-55.453-55.453-127.932-93.396-211.599-111.393-13.134-2.433-27.24-4.864-41.833-6.325-7.783-0.973-15.080 4.379-17.026 11.674v0c-1.946 7.783 3.891 12.647 9.729 17.999 30.646 28.7 67.127 51.56 79.777 154.2-92.909 56.913-152.256 141.552-152.256 236.408 0 172.198 195.061 311.318 435.846 311.318s435.846-139.121 435.846-311.318z" />
<glyph unicode="&#xe92d;" glyph-name="level, diamond" data-tags="filmora, fm, community, level, diamond" d="M141.69 535.56l284.114-303.269-136.813 303.269h-147.302zM511.997 183.495l159.16 352.067h-318.319zM290.359 593.933l93.033 175.122h-119.483l-131.34-175.122h157.79zM598.19 232.29l284.114 303.269h-147.302zM356.484 593.933h311.021l-93.033 175.122h-124.957zM733.635 593.933h157.79l-131.34 175.122h-119.483zM797.937 815.571l175.122-233.495c8.664-10.945 7.752-26.907-1.824-37.395l-437.802-466.987c-5.473-5.929-13.226-9.122-21.433-9.122s-15.962 3.193-21.433 9.122l-437.802 466.987c-9.576 10.487-10.487 26.45-1.824 37.395l175.122 233.495c5.473 7.752 14.138 11.857 23.257 11.857h525.362c9.122 0 17.786-4.105 23.257-11.857z" />
<glyph unicode="&#xe92e;" glyph-name="thumbs-down, dislike, disagree, disapprove" data-tags="filmora, fm, community, thumbs, thumbs-down, dislike, disagree, disapprove" d="M765.191 701.187c0-17.308 14.341-31.648 31.648-31.648s31.648 14.341 31.648 31.648-14.341 31.648-31.648 31.648-31.648-14.341-31.648-31.648zM195.52 416.352c0-33.627 30.165-63.297 63.297-63.297h174.066c0-57.857-47.473-99.891-47.473-158.241 0-57.857 11.373-94.944 79.121-94.944 31.648 32.143 15.33 107.801 63.297 158.241 13.846 14.341 25.714 29.67 38.076 45 22.252 28.681 81.098 113.241 120.165 113.241h15.824v316.484h-15.824c-27.692 0-73.187 17.801-99.891 27.199-54.395 18.791-110.77 36.098-169.121 36.098h-59.835c-55.879 0-94.944-22.252-94.944-82.583 0-9.395 0.989-18.791 2.473-27.692-20.77-11.373-32.143-39.56-32.143-62.308 0-11.868 2.967-23.737 8.902-34.121-16.813-15.824-26.209-35.605-26.209-58.846 0-15.824 6.924-39.066 17.308-50.934-23.241-0.495-37.087-45-37.087-63.297zM132.223 415.857c0 28.681 8.406 56.868 24.23 80.605-2.967 10.879-4.451 22.748-4.451 34.121 0 24.725 6.429 49.451 18.791 71.209-0.989 6.924-1.484 14.341-1.484 21.263 0 31.648 10.384 63.297 29.67 88.022-0.989 93.462 62.801 148.352 154.286 148.352h63.791c70.219 0 135.495-20.77 200.77-43.516 14.341-4.944 54.395-19.781 68.241-19.781h142.417c35.109 0 63.297-28.187 63.297-63.297v-316.484c0-35.109-28.187-63.297-63.297-63.297h-135.495c-19.286-12.857-52.913-57.362-67.748-76.648-16.813-21.759-34.121-43.022-52.913-63.297-29.67-31.648-13.846-109.781-63.297-158.241-11.868-11.373-27.692-18.297-44.505-18.297-51.429 0-100.879 18.297-125.109 66.263-15.33 30.165-17.308 58.846-17.308 91.978 0 34.616 8.902 64.286 23.737 94.944h-87.033c-68.241 0-126.594 57.857-126.594 126.098z" />
<glyph unicode="&#xe92f;" glyph-name="draft, blank" data-tags="filmora, fm, community, draft, blank" d="M847.6 773.265c0 49.772-40.301 89.985-90.014 89.985h-491.294c-49.782 0-90.014-40.279-90.014-89.963v-650.575c0-49.627 40.283-89.963 89.975-89.963h391.402v54.013h-391.402c-19.836 0-35.962 16.13-35.962 35.95v650.575c0 19.876 16.072 35.95 36.001 35.95h491.294c19.919 0 36.001-16.066 36.001-35.969v-550.077h54.013v550.077zM682.752 197.119v-72.138l72.486 72.138h-72.486zM655.744 251.132h164.918c24.093 0 36.127-29.156 19.050-46.15l-164.918-164.124c-17.032-16.951-46.058-4.885-46.058 19.142v164.124c0 14.917 12.092 27.008 27.008 27.008zM304.306 608.609h318.616v54.013h-318.616zM304.306 500.582h261.281v54.013h-261.281zM304.306 384.835h318.616v54.013h-318.616z" />
<glyph unicode="&#xe930;" glyph-name="edit" data-tags="filmora, fm, community, edit" d="M575.492 735.261h-389.489c-20.804 0-35.292-13.214-35.292-26.398v-581.222c0-13.159 14.504-26.398 35.196-26.398h620.745c20.687 0 35.196 13.237 35.196 26.392v349.839h65.377v-349.839c0-50.683-45.064-91.769-100.577-91.769h-620.745c-55.545 0-100.577 41.118-100.577 91.774v581.222c0 50.685 45.015 91.774 100.669 91.774h389.489v-65.377zM362.608 286.624l43.307-5.553 468.972 468.972-46.332 46.332-470.926-470.926 4.977-38.826zM298.548 345.617l503.545 503.545c14.615 14.615 38.279 14.65 52.944-0.015l72.623-72.623c14.624-14.624 14.71-38.248 0.111-52.846l-501.689-501.689-113.551 14.559-13.983 109.071zM740.976 789.344l113.657-113.657 26.417 26.417-113.657 113.657z" />
<glyph unicode="&#xe931;" glyph-name="list" data-tags="filmora, fm, navigation, nav, list" d="M128 832h192v-192h-192zM416 784h480v-96h-480zM128 544h192v-192h-192zM416 496h480v-96h-480zM128 256h192v-192h-192zM416 208h480v-96h-480z" />
<glyph unicode="&#xe932;" glyph-name="loading, busy, wait" data-tags="filmora, fm, navigation, nav, spinner, loading, busy, wait" d="M96.033 446.685l-0.019-0.004c0 0 0.009-0.072 0.022-0.18 0.089-3.152 0.448-6.236 1.073-9.223 0.165-1.419 0.347-2.973 0.548-4.691 0.18-1.532 0.373-3.179 0.583-4.938 0.305-2.086 0.626-4.299 0.968-6.643 0.695-4.669 1.462-9.85 2.362-15.403 1.096-5.237 2.279-10.9 3.545-16.952 0.578-3.022 1.443-6.097 2.264-9.267 0.832-3.161 1.688-6.415 2.567-9.754 0.461-1.658 0.845-3.358 1.387-5.044 0.533-1.684 1.072-3.393 1.616-5.118 1.096-3.439 2.216-6.961 3.36-10.552 0.286-0.899 0.576-1.796 0.864-2.7 0.331-0.895 0.661-1.794 0.995-2.695 0.67-1.801 1.346-3.621 2.034-5.454 1.378-3.653 2.78-7.377 4.208-11.165 1.599-3.711 3.226-7.486 4.879-11.321 0.826-1.907 1.66-3.829 2.502-5.766 0.851-1.93 1.844-3.822 2.769-5.748 1.887-3.829 3.802-7.715 5.739-11.644 2.008-3.889 4.231-7.728 6.376-11.641 1.085-1.948 2.177-3.906 3.272-5.874 1.111-1.957 2.359-3.859 3.54-5.802 2.398-3.85 4.817-7.739 7.26-11.657 10.27-15.351 21.675-30.522 34.296-44.913 12.766-14.281 26.591-27.827 41.188-40.302 14.772-12.298 30.277-23.484 46.091-33.404 15.929-9.78 32.21-18.128 48.243-25.304 4.065-1.657 8.095-3.3 12.088-4.929 2-0.789 3.956-1.651 5.96-2.372 2.008-0.706 4.006-1.41 5.993-2.108 3.98-1.369 7.863-2.817 11.769-4.056 3.926-1.163 7.804-2.31 11.628-3.447 1.915-0.546 3.787-1.159 5.69-1.634 1.905-0.466 3.8-0.927 5.675-1.384 3.742-0.908 7.429-1.8 11.054-2.678 3.657-0.706 7.252-1.398 10.783-2.078 1.761-0.332 3.503-0.667 5.228-0.994 0.864-0.162 1.722-0.323 2.572-0.487 0.862-0.121 1.722-0.238 2.572-0.358 3.406-0.474 6.738-0.936 9.993-1.389 1.623-0.223 3.228-0.444 4.812-0.663 1.58-0.232 3.172-0.306 4.725-0.462 3.105-0.273 6.129-0.539 9.070-0.797 2.938-0.247 5.772-0.559 8.552-0.6 0.188-0.006 0.368-0.013 0.553-0.020 0.5-28.284 23.569-51.062 51.974-51.062 0.44 0 0.877 0.022 1.317 0.033v-0.019c0 0 0.072 0.009 0.182 0.022 3.152 0.089 6.234 0.448 9.223 1.073 1.421 0.165 2.975 0.345 4.693 0.546 1.53 0.18 3.178 0.375 4.936 0.583 2.086 0.305 4.299 0.628 6.643 0.968 4.669 0.695 9.85 1.462 15.403 2.362 5.237 1.096 10.9 2.279 16.952 3.543 3.022 0.578 6.097 1.445 9.267 2.264 3.163 0.834 6.415 1.69 9.754 2.568 1.66 0.461 3.358 0.845 5.044 1.387 1.684 0.533 3.391 1.072 5.118 1.616 3.438 1.096 6.959 2.216 10.552 3.36 0.897 0.288 1.796 0.576 2.7 0.865 0.893 0.331 1.792 0.661 2.695 0.995 1.8 0.669 3.62 1.346 5.454 2.032 3.653 1.38 7.377 2.782 11.163 4.21 3.711 1.599 7.488 3.226 11.323 4.879 1.907 0.826 3.829 1.66 5.766 2.502 1.93 0.851 3.82 1.844 5.748 2.769 3.829 1.887 7.715 3.802 11.642 5.739 3.889 2.008 7.728 4.231 11.641 6.376 1.948 1.085 3.906 2.177 5.874 3.272 1.957 1.111 3.859 2.357 5.802 3.538 3.85 2.398 7.739 4.817 11.659 7.26 15.347 10.27 30.52 21.673 44.913 34.296 14.28 12.766 27.826 26.591 40.302 41.186 12.298 14.774 23.484 30.277 33.403 46.091 9.78 15.927 18.129 32.21 25.304 48.243 1.658 4.063 3.3 8.095 4.931 12.088 0.791 2 1.651 3.956 2.372 5.96 0.708 2.008 1.408 4.008 2.106 5.993 1.371 3.98 2.817 7.863 4.058 11.769 1.163 3.926 2.312 7.804 3.445 11.628 0.548 1.917 1.163 3.787 1.638 5.69 0.462 1.907 0.925 3.8 1.384 5.677 0.908 3.742 1.8 7.427 2.678 11.052 0.706 3.659 1.397 7.254 2.078 10.783 0.332 1.759 0.665 3.501 0.994 5.228 0.162 0.862 0.323 1.72 0.485 2.57 0.121 0.864 0.24 1.722 0.36 2.574 0.474 3.404 0.936 6.738 1.387 9.993 0.227 1.621 0.448 3.226 0.667 4.812 0.23 1.58 0.305 3.17 0.461 4.723 0.273 3.105 0.539 6.13 0.797 9.070 0.247 2.938 0.557 5.774 0.6 8.554 0.017 0.435 0.032 0.849 0.046 1.28 28.619 0.119 51.783 23.35 51.783 51.993 0 0.44-0.022 0.877-0.033 1.317h0.019c0 0-0.009 0.072-0.022 0.182-0.089 3.152-0.448 6.234-1.073 9.223-0.165 1.421-0.347 2.975-0.548 4.693-0.18 1.532-0.373 3.179-0.583 4.936-0.305 2.086-0.626 4.301-0.968 6.643-0.695 4.669-1.462 9.85-2.362 15.403-1.096 5.235-2.279 10.9-3.545 16.95-0.578 3.022-1.443 6.099-2.264 9.269-0.832 3.163-1.688 6.415-2.567 9.752-0.461 1.66-0.845 3.36-1.387 5.044-0.533 1.686-1.072 3.391-1.616 5.118-1.096 3.439-2.216 6.961-3.36 10.554-0.286 0.895-0.576 1.796-0.864 2.7-0.331 0.893-0.661 1.792-0.995 2.695-0.67 1.8-1.346 3.62-2.034 5.454-1.378 3.655-2.78 7.377-4.208 11.163-1.599 3.712-3.226 7.488-4.879 11.323-0.828 1.907-1.66 3.829-2.502 5.766-0.851 1.93-1.844 3.82-2.769 5.75-1.887 3.829-3.802 7.715-5.739 11.642-2.008 3.889-4.231 7.728-6.376 11.641-1.085 1.948-2.177 3.906-3.272 5.874-1.111 1.957-2.359 3.859-3.54 5.802-2.398 3.852-4.817 7.739-7.26 11.659-10.27 15.349-21.675 30.52-34.296 44.913-12.766 14.28-26.591 27.827-41.188 40.302-14.772 12.298-30.277 23.484-46.091 33.403-15.929 9.78-32.21 18.129-48.243 25.304-4.065 1.657-8.095 3.3-12.088 4.931-2 0.791-3.956 1.651-5.96 2.372-2.008 0.708-4.006 1.41-5.993 2.106-3.98 1.369-7.863 2.817-11.769 4.058-3.926 1.163-7.804 2.312-11.628 3.447-1.915 0.546-3.787 1.161-5.69 1.636-1.905 0.464-3.8 0.925-5.675 1.384-3.742 0.908-7.429 1.8-11.054 2.68-3.657 0.706-7.252 1.397-10.783 2.078-1.761 0.334-3.503 0.667-5.228 0.994-0.864 0.162-1.722 0.323-2.572 0.485-0.862 0.121-1.722 0.24-2.572 0.358-3.406 0.474-6.738 0.938-9.993 1.389-1.623 0.225-3.228 0.448-4.812 0.667-1.58 0.23-3.172 0.305-4.725 0.462-3.105 0.273-6.129 0.539-9.070 0.797-2.938 0.247-5.772 0.557-8.552 0.6-0.693 0.026-1.359 0.050-2.041 0.074-0.527 28.258-23.586 51.006-51.972 51.006-0.44 0-0.877-0.022-1.317-0.033l-0.002 0.019c0 0-0.072-0.009-0.18-0.022-3.152-0.089-6.236-0.448-9.223-1.073-1.421-0.165-2.975-0.345-4.693-0.546-1.53-0.18-3.178-0.375-4.936-0.583-2.086-0.305-4.299-0.628-6.643-0.968-4.669-0.695-9.85-1.462-15.403-2.362-5.237-1.096-10.9-2.279-16.952-3.543-3.022-0.578-6.097-1.445-9.267-2.264-3.163-0.834-6.415-1.69-9.754-2.568-1.66-0.461-3.358-0.845-5.044-1.387-1.684-0.533-3.391-1.072-5.118-1.616-3.438-1.096-6.959-2.216-10.552-3.36-0.897-0.288-1.796-0.576-2.7-0.865-0.893-0.331-1.792-0.661-2.695-0.995-1.8-0.669-3.62-1.346-5.454-2.032-3.653-1.38-7.377-2.782-11.163-4.21-3.711-1.599-7.488-3.226-11.323-4.879-1.907-0.826-3.829-1.66-5.766-2.502-1.93-0.851-3.82-1.844-5.748-2.769-3.829-1.887-7.715-3.802-11.642-5.739-3.889-2.008-7.728-4.231-11.641-6.376-1.948-1.085-3.906-2.177-5.874-3.272-1.957-1.111-3.859-2.357-5.802-3.538-3.85-2.398-7.739-4.817-11.659-7.26-15.347-10.27-30.52-21.673-44.913-34.296-14.28-12.766-27.826-26.591-40.302-41.186-12.298-14.774-23.484-30.277-33.403-46.091-9.78-15.927-18.129-32.21-25.304-48.243-1.658-4.063-3.3-8.095-4.931-12.088-0.791-2-1.651-3.956-2.372-5.96-0.708-2.008-1.408-4.008-2.106-5.993-1.371-3.98-2.817-7.863-4.058-11.769-1.163-3.926-2.312-7.804-3.445-11.628-0.548-1.917-1.163-3.787-1.638-5.69-0.462-1.907-0.925-3.8-1.384-5.677-0.908-3.742-1.8-7.427-2.678-11.052-0.706-3.659-1.397-7.254-2.078-10.783-0.332-1.759-0.665-3.501-0.994-5.228-0.162-0.862-0.323-1.72-0.485-2.57-0.121-0.864-0.24-1.722-0.36-2.574-0.474-3.404-0.936-6.738-1.387-9.993-0.227-1.621-0.448-3.226-0.667-4.812-0.23-1.58-0.305-3.17-0.461-4.723-0.273-3.105-0.539-6.13-0.797-9.070-0.247-2.938-0.557-5.774-0.6-8.554-0.017-0.446-0.032-0.875-0.046-1.317-27.93-0.903-50.295-23.809-50.295-51.955 0-0.44 0.022-0.877 0.033-1.315zM155.733 499.426c0.033 0.16 0.071 0.312 0.104 0.472 0.524 2.639 1.326 5.315 2.076 8.079 0.76 2.752 1.54 5.586 2.34 8.495 0.42 1.447 0.76 2.927 1.255 4.392 0.485 1.463 0.977 2.947 1.471 4.45 0.99 2.992 2.002 6.052 3.035 9.176 0.256 0.778 0.514 1.564 0.776 2.349 0.301 0.774 0.602 1.554 0.904 2.336 0.605 1.564 1.218 3.142 1.837 4.738 1.235 3.172 2.494 6.403 3.776 9.692 1.436 3.217 2.897 6.493 4.381 9.815 0.737 1.657 1.482 3.322 2.23 5.001 0.758 1.673 1.655 3.308 2.479 4.977 1.683 3.319 3.387 6.68 5.115 10.084 1.788 3.365 3.781 6.682 5.687 10.068 0.962 1.684 1.93 3.38 2.901 5.083 0.982 1.696 2.1 3.334 3.15 5.011 2.125 3.33 4.27 6.688 6.433 10.077 9.128 13.241 19.201 26.323 30.331 38.707 11.273 12.272 23.433 23.89 36.237 34.571 12.98 10.504 26.557 20.027 40.361 28.455 13.917 8.283 28.112 15.307 42.035 21.335 3.534 1.382 7.039 2.749 10.51 4.102 1.735 0.659 3.425 1.389 5.167 1.985 1.744 0.579 3.477 1.161 5.204 1.735 3.452 1.125 6.81 2.346 10.196 3.365 3.399 0.955 6.754 1.894 10.068 2.823 1.657 0.448 3.27 0.968 4.92 1.35 1.649 0.371 3.285 0.743 4.91 1.111 3.231 0.739 6.415 1.467 9.546 2.184 3.159 0.557 6.264 1.105 9.314 1.644 1.517 0.267 3.020 0.535 4.505 0.797 0.743 0.132 1.482 0.264 2.216 0.394 0.745 0.091 1.486 0.18 2.221 0.269 2.934 0.364 5.807 0.717 8.615 1.064 1.397 0.175 2.78 0.351 4.145 0.524 1.359 0.184 2.734 0.215 4.071 0.331 2.674 0.193 5.28 0.383 7.813 0.568 2.528 0.176 4.964 0.425 7.36 0.412 4.751 0.108 9.197 0.208 13.308 0.303 3.789-0.136 7.271-0.264 10.415-0.375 1.554-0.045 3.027-0.087 4.413-0.126 1.723-0.11 3.337-0.212 4.842-0.306 1.731-0.111 3.298-0.215 4.728-0.308 2.645-0.414 5.356-0.635 8.118-0.635 0.379 0 0.756 0.020 1.135 0.030 0.108-0.006 0.182-0.011 0.182-0.011v0.017c25.302 0.631 46.109 19.324 50.015 43.674 0.44-0.097 0.864-0.191 1.309-0.29 2.637-0.524 5.315-1.326 8.079-2.076 2.75-0.76 5.586-1.54 8.495-2.34 1.445-0.42 2.927-0.76 4.39-1.255 1.463-0.485 2.949-0.977 4.452-1.473 2.99-0.99 6.051-2.002 9.174-3.035 0.78-0.256 1.564-0.514 2.349-0.776 0.776-0.301 1.554-0.602 2.336-0.903 1.566-0.605 3.142-1.218 4.738-1.837 3.172-1.235 6.405-2.494 9.694-3.776 3.217-1.436 6.491-2.897 9.815-4.381 1.657-0.737 3.321-1.482 5.001-2.23 1.673-0.758 3.308-1.655 4.977-2.481 3.317-1.683 6.68-3.387 10.082-5.115 3.367-1.788 6.684-3.781 10.069-5.687 1.684-0.962 3.38-1.93 5.083-2.903 1.696-0.982 3.334-2.1 5.011-3.15 3.33-2.125 6.688-4.27 10.077-6.433 13.24-9.128 26.323-19.201 38.705-30.331 12.272-11.273 23.892-23.433 34.573-36.237 10.504-12.98 20.026-26.557 28.453-40.361 8.285-13.917 15.307-28.112 21.337-42.035 1.38-3.532 2.749-7.039 4.102-10.508 0.659-1.735 1.389-3.425 1.985-5.167 0.579-1.744 1.161-3.477 1.735-5.204 1.125-3.452 2.346-6.812 3.365-10.196 0.955-3.399 1.892-6.756 2.823-10.068 0.448-1.657 0.968-3.27 1.348-4.92 0.373-1.649 0.745-3.287 1.111-4.912 0.739-3.231 1.469-6.415 2.184-9.546 0.559-3.159 1.107-6.264 1.644-9.314 0.267-1.517 0.533-3.020 0.797-4.507 0.132-0.743 0.264-1.482 0.394-2.216 0.089-0.745 0.18-1.486 0.269-2.221 0.362-2.934 0.717-5.807 1.064-8.615 0.175-1.397 0.351-2.778 0.522-4.143 0.184-1.359 0.217-2.734 0.332-4.071 0.193-2.674 0.383-5.28 0.568-7.813 0.176-2.528 0.425-4.964 0.412-7.36 0.108-4.751 0.208-9.197 0.303-13.308-0.136-3.789-0.264-7.271-0.375-10.415-0.045-1.554-0.087-3.027-0.126-4.413-0.11-1.723-0.212-3.337-0.306-4.842-0.111-1.731-0.215-3.298-0.308-4.728-0.405-2.645-0.624-5.356-0.624-8.118 0-0.381 0.020-0.756 0.030-1.135-0.006-0.108-0.013-0.182-0.013-0.182h0.019c0.624-24.997 18.88-45.604 42.803-49.862-0.054-0.24-0.106-0.474-0.162-0.719-0.524-2.639-1.326-5.315-2.076-8.079-0.76-2.752-1.54-5.586-2.34-8.495-0.42-1.447-0.76-2.927-1.255-4.392-0.485-1.463-0.977-2.947-1.471-4.45-0.99-2.992-2.002-6.052-3.035-9.176-0.256-0.778-0.514-1.564-0.776-2.349-0.301-0.774-0.602-1.554-0.904-2.336-0.605-1.564-1.218-3.142-1.837-4.738-1.235-3.172-2.494-6.403-3.776-9.692-1.436-3.217-2.897-6.493-4.381-9.815-0.737-1.657-1.482-3.322-2.23-5.001-0.758-1.673-1.655-3.308-2.479-4.977-1.683-3.319-3.387-6.68-5.115-10.084-1.788-3.365-3.781-6.682-5.687-10.068-0.962-1.684-1.93-3.38-2.901-5.083-0.982-1.696-2.1-3.334-3.15-5.011-2.125-3.33-4.27-6.688-6.433-10.077-9.128-13.241-19.201-26.323-30.331-38.707-11.273-12.272-23.433-23.89-36.237-34.571-12.98-10.504-26.557-20.027-40.361-28.455-13.917-8.283-28.112-15.307-42.035-21.335-3.534-1.382-7.039-2.749-10.51-4.102-1.735-0.659-3.425-1.389-5.167-1.985-1.744-0.579-3.477-1.161-5.204-1.735-3.452-1.125-6.81-2.346-10.196-3.365-3.399-0.955-6.754-1.894-10.068-2.823-1.657-0.448-3.27-0.968-4.92-1.35-1.649-0.371-3.285-0.743-4.91-1.111-3.231-0.739-6.415-1.467-9.546-2.184-3.159-0.557-6.264-1.105-9.314-1.644-1.517-0.267-3.020-0.535-4.505-0.797-0.743-0.132-1.482-0.264-2.216-0.394-0.745-0.091-1.486-0.18-2.221-0.269-2.934-0.364-5.807-0.717-8.615-1.064-1.397-0.175-2.78-0.351-4.145-0.524-1.359-0.184-2.734-0.215-4.071-0.331-2.674-0.193-5.28-0.383-7.813-0.568-2.528-0.176-4.964-0.425-7.36-0.412-4.751-0.108-9.197-0.208-13.308-0.303-3.789 0.136-7.271 0.264-10.415 0.375-1.554 0.045-3.027 0.087-4.413 0.126-1.723 0.11-3.337 0.212-4.842 0.306-1.731 0.111-3.298 0.215-4.728 0.308-2.645 0.414-5.356 0.635-8.118 0.635-0.379 0-0.756-0.020-1.135-0.030-0.108 0.006-0.182 0.011-0.182 0.011v-0.017c-25.19-0.63-45.925-19.164-49.959-43.359-2.6 0.52-5.237 1.307-7.956 2.048-2.75 0.76-5.586 1.54-8.495 2.338-1.445 0.42-2.927 0.761-4.39 1.255-1.463 0.487-2.949 0.979-4.452 1.473-2.99 0.99-6.051 2.002-9.174 3.036-0.78 0.256-1.564 0.513-2.349 0.774-0.776 0.303-1.554 0.604-2.336 0.904-1.566 0.605-3.142 1.218-4.738 1.835-3.172 1.239-6.405 2.494-9.694 3.776-3.217 1.437-6.491 2.897-9.815 4.379-1.657 0.739-3.321 1.482-5.001 2.23-1.673 0.76-3.308 1.655-4.977 2.481-3.317 1.683-6.68 3.389-10.082 5.115-3.367 1.787-6.684 3.779-10.069 5.685-1.684 0.962-3.38 1.93-5.083 2.901-1.696 0.982-3.334 2.1-5.011 3.152-3.33 2.125-6.688 4.27-10.077 6.433-13.24 9.124-26.323 19.201-38.705 30.329-12.272 11.275-23.892 23.432-34.573 36.237-10.504 12.978-20.026 26.555-28.453 40.361-8.285 13.916-15.307 28.113-21.337 42.035-1.38 3.536-2.749 7.039-4.102 10.51-0.659 1.735-1.389 3.426-1.985 5.167-0.579 1.746-1.161 3.478-1.735 5.206-1.125 3.452-2.346 6.81-3.365 10.194-0.955 3.399-1.892 6.756-2.823 10.069-0.448 1.655-0.968 3.269-1.348 4.92-0.373 1.647-0.745 3.283-1.111 4.908-0.739 3.233-1.469 6.416-2.184 9.548-0.559 3.157-1.107 6.264-1.644 9.312-0.267 1.517-0.533 3.022-0.797 4.505-0.132 0.743-0.264 1.482-0.394 2.217-0.089 0.743-0.18 1.486-0.269 2.221-0.362 2.932-0.717 5.807-1.064 8.613-0.175 1.398-0.351 2.78-0.522 4.145-0.184 1.361-0.217 2.734-0.332 4.073-0.193 2.672-0.383 5.278-0.568 7.811-0.176 2.528-0.425 4.964-0.412 7.36-0.108 4.751-0.208 9.197-0.303 13.31 0.136 3.789 0.264 7.269 0.375 10.413 0.045 1.554 0.087 3.027 0.126 4.414 0.11 1.723 0.212 3.335 0.306 4.842 0.111 1.729 0.215 3.296 0.308 4.728 0.403 2.648 0.622 5.36 0.622 8.119 0 0.379-0.020 0.756-0.030 1.135 0.006 0.108 0.013 0.182 0.013 0.182h-0.019c-0.633 25.497-19.61 46.438-44.232 50.109z" />
<glyph unicode="&#xe933;" glyph-name="gift, reward" data-tags="filmora, fm, community, gift, reward" d="M541.74 26.813h297.404v297.404h-297.404v-297.404zM184.855 26.813h297.404v297.404h-297.404v-297.404zM541.508 569.401c29.247 3.253 62.153 6.883 81.205 9.033 77.953 8.684 148.121 78.882 156.776 156.806 8.654 77.836-47.399 133.948-125.178 125.206-60.816-6.797-116.434-51.088-142.312-107.199-25.878 56.112-81.496 100.403-142.284 107.257-77.807 8.684-133.948-47.428-125.205-125.264 8.684-77.924 78.882-148.063 156.747-156.806 19.081-2.149 51.988-5.837 81.234-9.033-0.465-3.92-0.232-7.26-0.232-7.26h59.481c0 0 0.232 3.34-0.232 7.26zM641.534 788.273c42.055 4.705 72.492-25.616 67.729-67.729-4.647-42.112-42.636-80.072-84.691-84.778-42.171-4.676-72.492 25.646-67.788 67.758s42.694 80.073 84.749 84.749zM399.457 635.766c-42.055 4.705-79.985 42.665-84.691 84.778s25.646 72.435 67.671 67.729c42.112-4.676 80.072-42.636 84.781-84.749 4.703-42.113-25.647-72.434-67.761-67.758zM541.74 562.141v-178.443h356.885v178.443h-356.885zM125.374 383.698h356.885v178.443h-356.885v-178.443z" />
<glyph unicode="&#xe934;" glyph-name="presentation, how" data-tags="filmora, fm, community, presentation, how" d="M832.548 768.341h-641.126c-15.356 0-27.786 12.458-27.786 27.869 0 15.384 12.43 27.842 27.786 27.842h293.628v27.869c0 15.384 12.458 27.842 27.814 27.842s27.786-12.458 27.786-27.842v-27.869h291.9c15.384 0 27.814-12.486 27.814-27.842 0-15.412-12.43-27.869-27.814-27.869zM832.548 322.632h-641.126v417.868h641.126v-417.868zM275.114 544.637c0-61.674 49.914-111.671 111.476-111.671s111.476 49.997 111.476 111.671h-111.476v111.726c-61.562 0-111.476-50.024-111.476-111.726zM582.341 656.921h-27.786v-27.842h27.786v27.842zM582.341 601.211h-27.786v-27.842h27.786v27.842zM582.341 545.501h-27.786v-27.842h27.786v27.842zM582.341 489.79h-27.786v-27.869h27.786v27.869zM582.341 434.053h-27.786v-27.869h27.786v27.869zM749.165 656.921h-138.982v-27.842h138.982v27.842zM749.165 601.211h-138.982v-27.842h138.982v27.842zM749.165 545.501h-138.982v-27.842h138.982v27.842zM749.165 489.79h-138.982v-27.869h138.982v27.869zM749.165 434.053h-138.982v-27.869h138.982v27.869zM436.224 183.343h62.733v139.29h27.814v-139.29h61.758l-61.758 139.29h55.598l111.17-250.71h-55.57l-37.066 83.606h-74.132v-139.29h-27.814v139.29h-75.274l-37.651-83.606h-55.598l112.926 250.71h55.598l-62.733-139.29zM526.77 322.632v0 0 0zM498.957 322.632v0 0 0z" />
<glyph unicode="&#xe935;" glyph-name="trophy, contest" data-tags="filmora, fm, community, trophy, contest" d="M786.286 722.286v109.714h-548.572v-109.714h-164.572v-109.714c0-90.89 73.678-164.572 164.572-164.572 17.208 0 33.798 2.646 49.388 7.544 39.578-56.578 99.95-97.54 170.040-111.768v-170.062h-54.858c-60.594 0-109.714-49.12-109.714-109.714h438.858c0 60.594-49.12 109.714-109.714 109.714h-54.858v170.062c70.090 14.228 130.462 55.188 170.040 111.768 15.592-4.9 32.18-7.544 49.388-7.544 90.894 0 164.572 73.682 164.572 164.572v109.714h-164.572zM237.714 513.142c-54.824 0-99.428 44.604-99.428 99.428v54.858h99.428v-54.858c0-34.446 6.368-67.398 17.96-97.772-5.83-1.068-11.826-1.656-17.96-1.656zM885.714 612.572c0-54.824-44.604-99.428-99.428-99.428-6.134 0-12.13 0.588-17.96 1.656 11.592 30.374 17.96 63.328 17.96 97.772v54.858h99.428v-54.858z" />
<glyph unicode="&#xe936;" glyph-name="heart, heart-empty, favor, favorite" data-tags="filmora, fm, store, effects-store, heart, favor, favorite" d="M886.857 594.429c0 137.155-92.737 165.952-170.834 165.952-72.727 0-154.727-78.584-180.107-108.845-11.714-14.155-36.12-14.155-47.834 0-25.38 30.263-107.38 108.845-180.107 108.845-78.095 0-170.834-28.798-170.834-165.952 0-89.321 90.298-172.298 91.273-173.273l283.584-273.334 283.095 272.845c1.464 1.464 91.763 84.441 91.763 173.763zM949.334 594.429c0-117.143-107.38-215.25-111.773-219.643l-304.084-292.857c-5.857-5.857-13.666-8.786-21.477-8.786s-15.62 2.929-21.477 8.786l-304.571 293.834c-3.905 3.416-111.286 101.523-111.286 218.666 0 143.013 87.37 228.429 233.309 228.429 85.416 0 165.464-67.357 204.023-105.429 38.559 38.071 118.607 105.429 204.023 105.429 145.941 0 233.309-85.416 233.309-228.429z" />
<glyph unicode="&#xe937;" glyph-name="shop, bag" data-tags="filmora, fm, store, effects-store, shop" d="M880.577 112.206l-52.758 594.133c-1.133 13.196-12.248 23.188-25.248 23.188h-108.544c-1.51 99.112-82.533 179.198-182.031 179.198-99.492 0-180.514-80.085-182.024-179.198h-108.544c-13.183 0-24.115-9.992-25.248-23.188l-52.767-594.133c0-0.754-0.183-1.51-0.183-2.264 0-67.646 61.995-122.667 138.31-122.667h460.911c76.324 0 138.319 55.020 138.319 122.667 0 0.754 0 1.51-0.195 2.264zM511.997 857.84c71.417 0 129.651-57.284 131.149-128.315h-262.3c1.51 71.030 59.731 128.315 131.151 128.315zM742.451 38.146h-460.911c-47.864 0-86.673 31.662-87.427 70.663l50.494 569.641h85.173v-77.25c0-14.132 11.31-25.439 25.441-25.439s25.441 11.306 25.441 25.439v77.25h262.484v-77.25c0-14.132 11.31-25.439 25.441-25.439s25.441 11.306 25.441 25.439v77.25h85.173l50.689-569.641c-0.755-39.001-39.758-70.663-87.439-70.663z" />
<glyph unicode="&#xe938;" glyph-name="heart-full, heart-alt, favor-alt, favorite-alt" data-tags="filmora, fm, store, effects-store, heart, favor, favorite" d="M512 73.143c-7.809 0-15.62 2.929-21.477 8.786l-304.571 293.834c-3.905 3.416-111.286 101.523-111.286 218.666 0 143.013 87.37 228.429 233.309 228.429 85.416 0 165.464-67.357 204.023-105.429 38.559 38.071 118.607 105.429 204.023 105.429 145.941 0 233.309-85.416 233.309-228.429 0-117.143-107.38-215.25-111.773-219.643l-304.084-292.857c-5.857-5.857-13.666-8.786-21.477-8.786z" />
<glyph unicode="&#xe939;" glyph-name="power, logout, signout" data-tags="filmora, fm, store, effects-store, power, logout, signout" d="M780.667 764.333c88.833-75.833 147.333-190.667 147.333-316.333 0-229.667-186.333-416-416-416s-416 186.333-416 416c0 125.667 58.5 240.5 147.333 316.333l65-65c-71.5-58.5-119.167-149.5-119.167-251.333 0-179.833 143-322.833 322.833-322.833s322.833 143 322.833 322.833c0 101.833-45.5 190.667-119.167 249.167zM557.5 864v-461.5h-91v461.5h91z" />
<glyph unicode="&#xe93a;" glyph-name="sad" data-tags="filmora, fm, store, effects-store, face, sad" d="M512 896c-247.024 0-448-200.976-448-448s200.976-448 448-448 448 200.976 448 448-200.976 448-448 448zM512 21.854c-234.982 0-426.146 191.164-426.146 426.146s191.164 426.146 426.146 426.146 426.146-191.164 426.146-426.146-191.164-426.146-426.146-426.146zM509.858 360.586c-87.862 0-168.142-44.538-214.734-119.158-3.19-5.114-1.639-11.855 3.475-15.058 5.125-3.18 11.866-1.629 15.056 3.486 42.582 68.174 115.923 108.874 196.202 108.874 81.59 0 158.002-43.751 199.404-114.164 2.043-3.466 5.692-5.386 9.428-5.386 1.88 0 3.791 0.481 5.529 1.507 5.213 3.060 6.938 9.768 3.879 14.958-45.313 77.056-128.936 124.938-218.241 124.938zM404.415 575.758c0-25.998-21.076-47.073-47.073-47.073s-47.073 21.076-47.073 47.073c0 25.998 21.076 47.073 47.073 47.073s47.073-21.076 47.073-47.073zM700.28 575.758c0-25.998-21.076-47.073-47.073-47.073s-47.073 21.076-47.073 47.073c0 25.998 21.076 47.073 47.073 47.073s47.073-21.076 47.073-47.073z" />
<glyph unicode="&#xe93b;" glyph-name="sad-full, sad-alt" data-tags="filmora, fm, store, effects-store, face, sad" d="M512 896c-247.419 0-448-200.581-448-448 0-247.43 200.581-448 448-448 247.43 0 448 200.57 448 448 0 247.419-200.57 448-448 448zM656.738 627.2c26.656 0 48.25-21.605 48.25-48.25s-21.594-48.25-48.25-48.25c-26.645 0-48.25 21.594-48.25 48.25 0 26.645 21.605 48.25 48.25 48.25zM353.475 627.2c26.645 0 48.25-21.605 48.25-48.25s-21.605-48.25-48.25-48.25-48.25 21.594-48.25 48.25c0.011 26.645 21.605 48.25 48.25 48.25zM729.526 214.995c-5.342-3.136-12.197-1.344-15.333 3.976-42.291 71.938-119.414 117.029-204.389 117.029-82.712 0-158.088-42.717-201.107-111.608-3.27-5.253-10.192-6.843-15.434-3.562s-6.843 10.192-3.562 15.445c47.062 75.354 129.573 122.125 220.102 122.125 93.005 0 177.43-49.37 223.709-128.072 3.125-5.32 1.344-12.186-3.987-15.333z" />
<glyph unicode="&#xe93c;" glyph-name="smile" data-tags="filmora, fm, store, effects-store, face, smile" d="M512 896c-247.428 0-448-200.572-448-448s200.572-448 448-448 448 200.572 448 448-200.572 448-448 448zM512 21.854c-235.353 0-426.146 190.794-426.146 426.146s190.794 426.146 426.146 426.146 426.146-190.794 426.146-426.146-190.794-426.146-426.146-426.146zM747.79 374.922c-5.692 2.010-11.933-1.005-13.921-6.698-32.178-91.928-119.222-154.723-218.22-154.723-96.822 0-182.346 60.076-216.166 149.086-2.142 5.648-8.447 8.479-14.095 6.337-5.638-2.142-8.479-8.458-6.337-14.095 37.010-97.423 130.619-163.181 236.588-163.181 108.351 0 203.622 68.741 238.838 169.366 2.010 5.706-0.984 11.933-6.687 13.908zM404.415 575.758c0-25.998-21.076-47.073-47.073-47.073s-47.073 21.076-47.073 47.073c0 25.998 21.076 47.073 47.073 47.073s47.073-21.076 47.073-47.073zM700.28 575.758c0-25.998-21.076-47.073-47.073-47.073s-47.073 21.076-47.073 47.073c0 25.998 21.076 47.073 47.073 47.073s47.073-21.076 47.073-47.073z" />
<glyph unicode="&#xe93d;" glyph-name="smile-full, smile-alt" data-tags="filmora, fm, store, effects-store, face, smile" d="M512 896c-247.419 0-448-200.581-448-448 0-247.43 200.581-448 448-448 247.43 0 448 200.57 448 448 0 247.419-200.57 448-448 448zM656.738 627.2c26.656 0 48.25-21.605 48.25-48.25s-21.594-48.25-48.25-48.25c-26.645 0-48.25 21.594-48.25 48.25 0 26.645 21.605 48.25 48.25 48.25zM353.475 627.2c26.645 0 48.25-21.605 48.25-48.25s-21.605-48.25-48.25-48.25-48.25 21.594-48.25 48.25c0.011 26.645 21.605 48.25 48.25 48.25zM760.55 358.837c-36.109-103.141-133.75-173.6-244.81-173.6-108.618 0-204.579 67.402-242.502 167.261-2.195 5.779 0.706 12.253 6.496 14.448s12.253-0.706 14.448-6.496c34.653-91.235 122.326-152.813 221.57-152.813 101.472 0 190.68 64.366 223.675 158.592 2.050 5.835 8.434 8.926 14.269 6.866 5.835-2.027 8.904-8.411 6.854-14.258z" />
<glyph unicode="&#xe93e;" glyph-name="schedule, calendar" data-tags="filmora, fm, community, schedule, calendar" d="M280.924 832.073c0 17.634 14.294 31.927 31.927 31.927s31.927-14.294 31.927-31.927v-24.973h334.445v24.973c0 17.634 14.294 31.927 31.927 31.927s31.927-14.294 31.927-31.927v-24.973h81.872c56.914 0 103.052-46.138 103.052-103.052v-568.997c0-56.914-46.138-103.052-103.052-103.052h-625.896c-56.914 0-103.052 46.138-103.052 103.052v568.997c0 56.914 46.138 103.052 103.052 103.052h81.872v24.973zM199.052 760.948c-31.426 0-56.899-25.474-56.899-56.899v-107.031h739.695v107.031c0 31.426-25.474 56.899-56.899 56.899h-81.872v-42.674c0-7.857-5.162-23.076-31.927-23.076s-31.927 15.219-31.927 23.076v42.674h-334.445v-42.674c0-7.857-7.863-23.943-31.927-23.943s-31.927 16.088-31.927 23.943v42.674h-81.872zM824.948 78.152c31.426 0 56.899 25.474 56.899 56.899v412.523h-739.695v-412.523c0-31.426 25.474-56.899 56.899-56.899h625.896zM458.839 244.491l199.12 243.796c5.365 6.559 13.119 10.714 21.549 11.551s16.852-1.71 23.262-6.966c6.751-5.419 11.010-13.345 11.805-21.965s-1.944-17.193-7.303-23.412l-223.26-273.1c-5.987-7.34-14.921-11.644-24.616-11.75-9.342 0.016-18.21 4.123-24.247 11.217l-120.958 141.723c-11.46 13.4-9.888 33.555 3.512 45.015s33.555 9.888 45.026-3.525l96.11-112.585z" />
<glyph unicode="&#xe93f;" glyph-name="send, publish" data-tags="filmora, fm, community, send, publish" d="M798.601 722.045l-624.431-312.859 175.034-61.152c17.259-6.030 26.362-24.909 20.333-42.167s-24.909-26.362-42.167-20.333l-248.889 86.955c-27.613 9.646-30.061 47.743-3.911 60.844l845.168 423.453c24.804 12.427 52.973-9.337 47.209-36.475l-142.128-669.076c-4.145-19.508-24.47-30.951-43.299-24.373l-229.124 80.050c-17.259 6.030-26.362 24.909-20.333 42.167s24.909 26.362 42.167 20.333l193.638-67.652 107.815 507.55-385.821-436.867v-203.71c0-18.281-14.82-33.103-33.103-33.103s-33.103 14.82-33.103 33.103v216.234c0 8.070 2.951 15.863 8.291 21.915l366.651 415.156z" />
<glyph unicode="&#xe940;" glyph-name="solved, check-alt" data-tags="filmora, fm, community, solved, check" d="M511.999 896c-247.424 0-448-200.576-448-448s200.576-448 448-448c247.424 0 448 200.576 448 448s-200.576 448-448 448zM511.999 27.149c-232.43 0-420.851 188.421-420.851 420.851s188.421 420.851 420.851 420.851c232.43 0 420.851-188.421 420.851-420.851s-188.421-420.851-420.851-420.851zM719.458 614.793c-3.287 2.694-7.51 3.973-11.741 3.552s-8.119-2.505-10.812-5.795l-239.299-292.989-123.718 144.925c-5.749 6.723-15.862 7.51-22.585 1.761s-7.51-15.862-1.761-22.585l136.214-159.597c3.037-3.57 7.485-5.631 12.172-5.638 4.752 0.052 9.232 2.212 12.237 5.894l251.408 307.533c2.833 3.292 4.206 7.593 3.808 11.918s-2.536 8.301-5.922 11.021v0z" />
<glyph unicode="&#xe941;" glyph-name="trash, remove-alt2, bin" data-tags="filmora, fm, store, effects-store, trash, remove, bin" d="M402.287 539.427v-329.143c0-10.286-8-18.286-18.286-18.286h-36.571c-10.286 0-18.286 8-18.286 18.286v329.143c0 10.286 8 18.286 18.286 18.286h36.571c10.286 0 18.286-8 18.286-18.286zM548.573 539.427v-329.143c0-10.286-8-18.286-18.286-18.286h-36.571c-10.286 0-18.286 8-18.286 18.286v329.143c0 10.286 8 18.286 18.286 18.286h36.571c10.286 0 18.286-8 18.286-18.286zM694.859 539.427v-329.143c0-10.286-8-18.286-18.286-18.286h-36.571c-10.286 0-18.286 8-18.286 18.286v329.143c0 10.286 8 18.286 18.286 18.286h36.571c10.286 0 18.286-8 18.286-18.286zM768.002 125.712v541.714h-512v-541.714c0-27.429 15.429-43.429 18.286-43.429h475.429c2.857 0 18.286 16 18.286 43.429zM384.002 740.569h256l-27.429 66.857c-1.714 2.286-6.857 5.714-9.714 6.286h-181.143c-3.429-0.571-8-4-9.714-6.286zM914.287 722.284v-36.571c0-10.286-8-18.286-18.286-18.286h-54.857v-541.714c0-62.857-41.143-116.571-91.429-116.571h-475.429c-50.286 0-91.429 51.429-91.429 114.286v544h-54.857c-10.286 0-18.286 8-18.286 18.286v36.571c0 10.286 8 18.286 18.286 18.286h176.571l40 95.429c11.429 28 45.714 50.857 76 50.857h182.857c30.286 0 64.571-22.857 76-50.857l40-95.429h176.571c10.286 0 18.286-8 18.286-18.286z" />
<glyph unicode="&#xe942;" glyph-name="award, medal" data-tags="filmora, fm, community, award, medal" d="M677.732 699.551c-41.433 41.433-94.703 65.107-153.891 65.107 0 0-5.919 0-5.919 0-53.27 0-106.54-23.675-147.972-65.107s-65.107-94.703-65.107-147.972c0-59.189 17.756-112.459 59.189-153.891s94.703-65.107 153.891-65.107c0 0 5.919 0 5.919 0 53.27 0 106.54 23.675 147.972 65.107s65.107 94.703 65.107 147.972c5.919 59.189-17.756 112.459-59.189 153.891zM529.759 391.771c-47.351 0-88.783 17.756-118.377 47.351s-47.351 71.026-47.351 112.459c0 82.863 71.026 153.891 153.891 153.891 0 0 0 0 5.919 0 41.433 0 82.863-17.756 112.459-47.351s47.351-71.026 47.351-112.459c0-82.863-71.026-153.891-153.891-153.891zM914.486 267.475l-130.215 106.54c35.514 53.27 53.27 112.459 53.27 171.647 0 82.863-29.594 165.729-88.783 224.917s-142.052 94.703-224.917 94.703c0 0 0 0-5.919 0-82.863 0-159.81-35.514-218.999-94.703s-88.783-136.133-94.703-218.999c0-65.107 17.756-124.296 47.351-171.647l-136.133-112.459c-11.837-11.837-17.756-29.594-17.756-47.351s11.837-29.594 29.594-35.514l82.863-29.594 5.919-76.945c0-17.756 11.837-35.514 29.594-41.433 5.919 0 11.837-5.919 17.756-5.919 11.837 0 23.675 5.919 35.514 11.837l195.322 195.322c5.919 0 11.837 0 23.675 0 0 0 0 0 5.919 0s11.837 0 17.756 0l171.647-189.403c11.837-11.837 23.675-17.756 35.514-17.756 5.919 0 11.837 0 17.756 0 17.756 5.919 29.594 23.675 35.514 41.433l11.837 82.863 82.863 29.594c17.756 5.919 29.594 17.756 29.594 35.514s0 35.514-11.837 47.351zM281.167 95.827l-5.919 65.107c0 17.756-11.837 35.514-29.594 41.433l-76.945 29.594 124.296 106.54c0 0 5.919-5.919 5.919-5.919 35.514-41.433 82.863-65.107 136.133-82.863l-153.891-153.891zM529.759 291.149c-71.026 0-136.133 23.675-189.403 76.945-47.351 47.351-76.945 112.459-76.945 183.485 0 136.133 118.377 254.511 254.511 254.511 0 0 0 0 5.919 0 71.026 0 136.133-29.594 183.485-76.945s76.945-112.459 76.945-183.485c-5.919-136.133-118.377-254.511-254.511-254.511zM790.19 202.367c-17.756-5.919-29.594-23.675-29.594-41.433l-5.919-65.107-136.133 153.891c53.27 11.837 94.703 41.433 136.133 82.863 0 0 0 0 0 0l118.377-94.703-82.863-35.514z" />
<glyph unicode="&#xe943;" glyph-name="flag, report" data-tags="filmora, fm, community, flag, report" d="M645.043 788.333c-124.296 0-159.81 76.945-319.618 76.945-100.621 0-165.729-82.863-165.729-82.863v-728.020c0-11.837 11.837-23.675 23.675-23.675s23.675 11.837 23.675 23.675v331.457c29.594 17.756 65.107 35.514 112.459 35.514 159.81 0 207.16-76.945 331.457-76.945s213.080 76.945 213.080 76.945v443.914c5.919 0-88.783-76.945-218.999-76.945zM816.69 450.957c-29.594-17.756-88.783-53.27-165.729-53.27-47.351 0-82.863 11.837-124.296 29.594-53.27 23.675-112.459 47.351-207.16 47.351-41.433 0-82.863-11.837-112.459-23.675v313.699c17.756 17.756 59.189 47.351 118.377 47.351 76.945 0 118.377-17.756 159.81-35.514s88.783-41.433 159.81-41.433c65.107 0 124.296 17.756 171.647 41.433v-325.537z" />
<glyph unicode="&#xe944;" glyph-name="camera, photo" data-tags="filmora, fm, store, effects-store, camera, photo" d="M442.268 636.057c-131.008 0-236.658-105.65-236.658-232.434 0-131.008 105.65-232.434 236.658-232.434s236.658 105.65 236.658 232.434c-4.225 126.782-109.876 232.434-236.658 232.434zM442.268 217.679c-101.425 0-181.718 80.294-181.718 181.718s80.294 181.718 181.718 181.718c101.425 0 181.718-80.294 181.718-181.718 0-97.2-84.522-181.718-181.718-181.718zM843.741 729.029h-253.561c-12.679 50.712-54.94 88.747-109.876 88.747h-198.622c-54.94 0-101.425-38.034-109.876-88.747-63.389-4.225-114.104-59.164-114.104-122.554v-405.697c0-67.618 54.94-122.554 122.554-122.554h663.488c67.618 0 122.554 54.94 122.554 122.554v405.697c0 67.618-54.94 122.554-122.554 122.554zM281.68 762.836h198.622c25.357 0 46.486-12.679 54.94-33.807h-308.501c8.452 16.904 29.582 33.807 54.94 33.807zM915.584 196.549c0-38.034-33.807-71.843-71.843-71.843h-663.488c-38.034 0-71.843 29.582-71.843 71.843v405.697c0 38.034 33.807 71.843 71.843 71.843h663.488c38.034 0 71.843-29.582 71.843-71.843v-405.697zM852.195 564.214c0-21.005-17.028-38.034-38.034-38.034s-38.034 17.028-38.034 38.034c0 21.005 17.028 38.034 38.034 38.034s38.034-17.028 38.034-38.034z" />
<glyph unicode="&#xe945;" glyph-name="cog-alt, gear-alt, setting-alt" data-tags="filmora, fm, store, effects-store, cog-alt, gear-alt, setting-alt" d="M914.101 336.076c-4.145 8.29-12.435 16.582-20.728 16.582s-20.728 12.435-33.163 33.163c-29.018 53.891-12.435 120.217 41.453 157.525 12.435 8.29 20.728 29.018 8.29 41.453l-78.761 128.507c-4.145 8.29-12.435 12.435-20.728 12.435s-16.582 0-24.873-4.145c-12.435-8.29-33.163-12.435-53.891-12.435-62.181 0-116.071 49.745-116.071 116.071 0 16.582-12.435 33.163-33.163 33.163h-149.234c-16.582 0-33.163-12.435-33.163-33.163s-4.145-41.453-12.435-49.745c0 0 0-4.145-4.145-4.145-29.018-53.891-99.489-70.471-161.67-37.308-12.435 8.29-33.163 4.145-41.453-12.435l-78.761-128.507c-4.145-8.29-4.145-16.582-4.145-24.873s8.29-16.582 16.582-20.728c20.728-12.435 29.018-20.728 41.453-41.453 29.018-53.891 12.435-120.217-41.453-157.525-12.435-8.29-20.728-29.018-8.29-41.453l78.761-128.507c4.145-8.29 12.435-12.435 20.728-12.435s16.582 0 24.873 4.145c12.435 8.29 33.163 12.435 53.891 12.435 62.181 0 116.071-49.745 116.071-107.779 0-16.582 12.435-33.163 33.163-33.163h149.234c16.582 0 33.163 12.435 33.163 33.163s4.145 37.308 16.582 53.891c29.018 53.891 99.489 70.471 161.67 37.308 16.582-8.29 33.163-4.145 41.453 12.435l78.761 128.507c0 8.29 4.145 20.728 0 29.018zM806.322 356.801c8.29-12.435 20.728-29.018 37.308-41.453l-45.598-74.616c-82.908 29.018-178.251 0-215.561-74.616-12.435-16.582-16.582-37.308-20.728-53.891h-95.344c-16.582 78.761-87.054 140.942-174.105 140.942-16.582 0-37.308 0-62.181-8.29l-49.745 78.761c62.181 53.891 78.761 145.087 37.308 219.706-12.435 16.582-24.873 33.163-37.308 45.598l49.745 78.761c82.908-29.018 174.105 0 215.561 74.616 12.435 16.582 20.728 37.308 20.728 58.036h91.199c12.435-82.908 87.054-145.087 174.105-145.087 16.582 0 37.308 0 62.181 8.29l49.745-78.761c-62.181-62.181-82.908-153.38-37.308-227.996zM478.837 622.105c-58.036-8.29-107.779-45.598-132.652-95.344-29.018-53.891-29.018-120.217 4.145-174.105 33.163-58.036 95.344-91.199 161.67-91.199 103.634 0 186.543 82.908 186.543 182.398 0 49.745-24.873 99.489-62.181 136.797-45.598 33.163-99.489 49.745-157.525 41.453zM512 323.638c-45.598 0-87.054 24.873-107.779 62.181s-20.728 78.761 0 111.924c16.582 33.163 49.745 58.036 87.054 62.181 8.29 0 12.435 0 20.728 0 29.018 0 58.036-8.29 82.908-29.018 24.873-24.873 41.453-53.891 41.453-87.054 0-66.326-58.036-120.217-124.362-120.217z" />
<glyph unicode="&#xe946;" glyph-name="crown, prime" data-tags="filmora, fm, store, effects-store, crown, prime" d="M749.958 167.68h-476.16l-42.24-103.68h564.48l-46.080 103.68zM922.758 536.32c-23.040 207.36-295.68 145.92-318.72 126.72-34.56-23.040-49.92-26.88-53.76 0 0 11.52 0 26.88 0 26.88v42.24h46.080v42.24h-53.76v57.6h-61.44v-53.76h-53.76v-42.24h46.080v-42.24c0 0 0-11.52 0-26.88 0-26.88-19.2-26.88-53.76 0-26.88 19.2-295.68 76.8-318.72-126.72-3.84-30.72-7.68-69.12 30.72-107.52 49.92-46.080 134.4-115.2 145.92-230.4h218.88c0 0 0 0 0 0 23.040 0 38.4 0 38.4 0h218.88c11.52 115.2 96 184.32 145.92 230.4 30.72 38.4 26.88 72.96 23.040 103.68zM408.198 336.64h-69.12c3.84 49.92-30.72 65.28-76.8 172.8-49.92 115.2 122.88 88.32 122.88 88.32-15.36-34.56-38.4-84.48 3.84-157.44 0 0 0 0 0 0 34.56-65.28 19.2-103.68 19.2-103.68zM765.318 509.44c-49.92-107.52-84.48-122.88-76.8-172.8h-69.12c0 0-15.36 42.24 19.2 103.68 0 0 0 0 0 0 42.24 72.96 19.2 122.88 3.84 157.44 0 0 172.8 26.88 122.88-88.32z" />
<glyph unicode="&#xe947;" glyph-name="crown-alt, privilege" data-tags="filmora, fm, store, effects-store, crown-alt, privilege" d="M870.635 668.868c-13.12 8.748-26.241 4.373-34.989-4.373l-161.824-135.583-131.207 201.185c-13.12 17.494-43.737 17.494-52.483 0l-131.207-201.185-161.824 135.583c-8.748 8.748-26.241 8.748-34.989 4.373-13.12-8.748-17.494-21.868-17.494-34.989l78.726-428.613c4.373-13.12 17.494-26.241 30.616-26.241h529.206c17.494 0 30.616 13.12 30.616 26.241l78.726 428.613c-4.373 13.12-8.748 26.241-21.868 34.989zM748.173 240.257h-476.723l-56.857 314.899 122.461-100.594c8.748-4.373 17.494-8.748 26.241-8.748s17.494 4.373 21.868 13.12l126.835 192.439 126.835-192.439c4.373-8.748 13.12-13.12 21.868-13.12s17.494 0 26.241 8.748l122.461 100.594-61.23-314.899zM778.789 95.925h-529.206c-17.494 0-30.616-13.12-30.616-30.616s13.12-30.616 30.616-30.616h529.206c17.494 0 30.616 13.12 30.616 30.616s-13.12 30.616-30.616 30.616zM179.604 730.099c0-28.986-23.498-52.483-52.483-52.483s-52.483 23.498-52.483 52.483c0 28.986 23.498 52.483 52.483 52.483s52.483-23.498 52.483-52.483zM564.482 808.824c0-28.986-23.498-52.483-52.483-52.483s-52.483 23.498-52.483 52.483c0 28.986 23.498 52.483 52.483 52.483s52.483-23.498 52.483-52.483zM949.361 730.099c0-28.986-23.498-52.483-52.483-52.483s-52.483 23.498-52.483 52.483c0 28.986 23.498 52.483 52.483 52.483s52.483-23.498 52.483-52.483z" />
<glyph unicode="&#xe948;" glyph-name="diamond-alt, economy" data-tags="filmora, fm, store, effects-store, diamond-alt, economy" d="M900.073 590.882c0 0-109.365 183.455-109.365 183.455l-84.67-183.455h194.039zM480.248 802.56h-201.095c-7.055 0-17.64-3.529-24.695-7.055l88.2-190.51 137.59 197.565zM653.118 590.882l-141.12 204.62-144.645-204.62zM769.538 799.031c-7.055 3.529-14.11 3.529-21.168 3.529h-208.15l141.12-197.565 88.2 194.039zM123.923 562.66l342.211-426.885-137.59 426.885zM691.923 562.66l-141.12-433.94c0 0 345.74 430.41 345.74 433.94h-204.62zM233.288 770.81l-105.84-179.925h190.51zM360.296 562.66c0 0 151.702-469.22 151.702-469.22l151.702 469.22h-303.405z" />
<glyph unicode="&#xe949;" glyph-name="expired, sandglass" data-tags="filmora, fm, store, effects-store, expired, sandglass" d="M772.9 107.002h-18.308v128.162c0 9.155-4.576 18.308-9.155 22.885l-155.624 151.047c0 0 0 0-4.576 4.576-13.732 13.732-13.732 32.041 0 41.194 0 0 0 0 4.576 4.576l155.624 151.047c9.155 9.155 9.155 18.308 9.155 27.464v0 155.624h18.308c18.308 0 36.617 18.308 36.617 36.617s-18.308 36.617-36.617 36.617h-521.8c-18.308 0-36.617-18.308-36.617-36.617s18.308-36.617 36.617-36.617h18.308v-155.624c0-9.155 4.576-18.308 9.155-27.464l155.624-151.047c0 0 0 0 4.576-4.576 13.732-13.732 13.732-32.041 0-41.194 0 0 0 0-4.576-4.576l-155.624-151.047c-9.155-9.155-13.732-18.308-9.155-27.464v0-128.162h-18.308c-18.308 0-36.617-18.308-36.617-36.617s18.308-36.617 36.617-36.617h521.8c18.308 0 36.617 18.308 36.617 36.617 0 22.885-18.308 41.194-36.617 41.194zM351.798 642.532c-9.155 4.576-13.732 13.732-13.732 27.464 0 0 0 0 0 0v0 96.122c0 18.308 13.732 32.041 32.041 32.041h279.21c18.308 0 32.041-13.732 32.041-32.041v-91.543c0 0 0 0 0 0 0-9.155-4.576-18.308-9.155-27.464v0l-146.471-141.892 4.576 4.576c-13.732-13.732-32.041-13.732-41.194 0l4.576-4.576-141.892 137.315zM681.354 203.121v-64.081c0-18.308-13.732-32.041-32.041-32.041h-279.21c-18.308 0-32.041 13.732-32.041 32.041v64.081c0 0 0 0 0 0 0 9.155 4.576 18.308 9.155 27.464v0l137.315 132.739c0 0 0 0 0 0 13.732 13.732 32.041 13.732 41.194 0 0 0 0 0 0-4.576l137.315-132.739c18.308-4.576 18.308-13.732 18.308-22.885 0 0 0 0 0 0v0z" />
<glyph unicode="&#xe94a;" glyph-name="group, business" data-tags="filmora, fm, store, effects-store, group, business" d="M650.342 662.455c0-77.524-62.845-140.375-140.375-140.375s-140.375 62.845-140.375 140.375c0 77.524 62.845 140.375 140.375 140.375s140.375-62.845 140.375-140.375zM513.871 479.194c-144.271 0-265.147-132.574-265.147-296.342 0-15.595 0-27.295 3.897-42.892 62.39-27.295 152.071-46.79 245.65-46.79 113.076 0 210.558 23.395 276.845 62.39 0 7.8 0 19.497 0 27.295 3.897 163.768-116.978 296.342-261.25 296.342zM911.592 580.573c0-40.916-34.914-74.088-77.984-74.088s-77.984 33.172-77.984 74.088c0 40.916 34.914 74.088 77.984 74.088s77.984-33.172 77.984-74.088zM837.505 479.194c-38.993 0-77.984-19.497-105.28-50.69 42.892-31.195 74.088-89.682 81.882-159.867 3.897 0 7.8 0 11.697 0 62.39 0 116.978 11.697 152.071 31.195 0 3.897 0 7.8 0 15.595 3.897 93.58-62.39 163.768-140.375 163.768zM268.221 580.573c0-40.916-34.914-74.088-77.984-74.088s-77.984 33.172-77.984 74.088c0 40.916 34.914 74.088 77.984 74.088s77.984-33.172 77.984-74.088zM295.513 428.502c-27.295 31.195-62.39 50.69-105.28 50.69-77.984 0-144.271-74.088-144.271-159.867 0-3.897 0-7.8 0-15.595 35.092-19.497 89.682-31.195 152.071-31.195 3.897 0 7.8 0 11.697 0 7.8 70.185 38.993 128.675 85.784 155.968z" />
<glyph unicode="&#xe94b;" glyph-name="lock, security" data-tags="filmora, fm, store, effects-store, lock, security" d="M772 552v104c0 72.8-52 208-260 208s-260-135.2-260-208v-104h-104v-520h728v520h-104zM356 656c0 5.2 0 104 156 104 145.6 0 156-88.4 156-104v-104h-312v104zM772 136h-520v312h520v-312z" />
<glyph unicode="&#xe94c;" glyph-name="medal-alt, basic" data-tags="filmora, fm, store, effects-store, medal, basic" d="M815.36 797.44c3.84 3.84 3.84 7.68 3.84 11.52 0 11.52-11.52 23.040-23.040 23.040h-188.16c-11.52 0-19.2-7.68-19.2-15.36l-57.6-111.36c0 0 122.88-7.68 195.84-76.8l88.32 168.96zM492.8 705.28v0 0zM492.8 705.28l-57.6 111.36c-3.84 7.68-11.52 15.36-19.2 15.36h-188.16c-11.52 0-23.040-7.68-23.040-23.040 0-3.84 0-7.68 3.84-11.52l88.32-172.8c72.96 72.96 195.84 80.64 195.84 80.64zM512 663.040c-168.96 0-303.36-134.4-303.36-299.52s134.4-299.52 303.36-299.52c168.96 0 303.36 134.4 303.36 299.52s-134.4 299.52-303.36 299.52zM669.44 390.4l-61.44-57.6 15.36-80.64c3.84-26.88-11.52-38.4-34.56-26.88l-72.96 38.4-72.96-38.4c-23.040-11.52-42.24 0-34.56 26.88l15.36 80.64-61.44 57.6c-19.2 19.2-15.36 38.4 15.36 42.24l84.48 11.52 38.4 72.96c11.52 23.040 30.72 26.88 46.080 0l38.4-72.96 84.48-11.52c15.36-3.84 19.2-23.040 0-42.24z" />
<glyph unicode="&#xe94d;" glyph-name="shield, bind, security-alt" data-tags="filmora, fm, store, effects-store, shield, bind, security-alt" d="M517.236 893.006v0 0h-5.235l-387.417-130.884v-397.887c5.235-94.236 68.060-178.002 188.473-261.768 36.648-26.178 78.531-47.119 125.649-68.060 15.708-5.235 31.412-15.708 41.882-20.941l31.412-10.471 31.412 10.471c15.708 5.235 26.178 10.471 41.882 20.941 47.119 20.941 89.001 47.119 125.649 73.293 115.179 78.531 183.237 172.767 188.473 261.768v397.887l-382.182 125.649zM648.121 191.467c-31.412-20.941-68.060-41.882-109.942-62.824-10.471-5.235-20.941-10.471-31.412-15.708-10.471 5.235-20.941 10.471-31.412 15.708-41.882 20.941-78.531 41.882-109.942 62.824-89.001 62.824-141.354 120.413-141.354 178.002v319.357l282.711 94.236 277.474-94.236v-319.357c5.235-52.353-47.119-115.179-136.12-178.002zM485.824 390.411l-120.413 99.472-62.824-78.531 193.71-167.532 246.062 303.652-83.766 62.824z" />
<glyph unicode="&#xe94e;" glyph-name="tencent, qq" data-tags="filmora, fm, brand, tencent, qq" d="M154.286 499.429c-4 9.714-4.571 19.429-4.571 29.714 0 16 10.286 41.714 20 53.714-0.571 14.857 5.714 45.143 17.143 54.857 0 105.714 81.714 238.857 177.143 284.571 58.857 28 120.571 37.714 185.143 37.714 50.286 0 105.143-12 152-31.429 134.286-56.571 164.571-161.714 193.143-296l0.571-2.857c16.571-25.143 31.429-54.857 31.429-85.714 0-15.429-10.286-30.857-10.286-44.571 0-1.143 3.429-5.714 4-6.857 49.143-72.571 93.714-151.429 93.714-241.714 0-20-10.857-89.714-42.857-89.714-22.286 0-46.857 54.286-54.857 69.143-0.571 0.571-1.143 0.571-1.714 0.571l-2.857-2.286c-18.286-47.429-38.286-92-75.429-127.429 32.571-31.429 85.143-28.571 94.857-82.857-2.857-6.286-1.714-13.143-6.286-19.429-32.571-49.143-120-55.429-172.571-55.429-69.714 0-126.286 18.286-192 37.714-13.714 4-34.286 1.714-49.143 3.429-34.857-38.286-120-48.571-169.143-48.571-43.429 0-211.429 2.857-211.429 77.143 0 32 6.857 41.143 29.143 61.714 17.714 3.429 30.857 13.143 51.429 14.286 2.857 0 5.143 0.571 8 1.143 0.571 0.571 1.143 0.571 1.143 2.286l-1.143 1.714c-39.429 9.143-94.857 108.571-103.429 149.714l-2.857 1.714c-4 0-5.714-8.571-6.857-11.429-12.571-29.143-42.286-60.571-75.429-64h-0.571c-4.571 0-2.857 4.571-6.286 5.714-8 18.857-13.143 36-13.143 57.143 0 114.286 54.857 198.857 144 266.286z" />
<glyph unicode="&#xe94f;" glyph-name="wechat, wx" data-tags="filmora, fm, brand, wechat, wx" horiz-adv-x="1170" d="M331.429 696.571c0 31.429-20.571 52-52 52-30.857 0-62.286-20.571-62.286-52 0-30.857 31.429-51.429 62.286-51.429 31.429 0 52 20.571 52 51.429zM756 406.857c0 20.571-20.571 41.143-52 41.143-20.571 0-41.143-20.571-41.143-41.143 0-21.143 20.571-41.714 41.143-41.714 31.429 0 52 20.571 52 41.714zM621.143 696.571c0 31.429-20.571 52-51.429 52-31.429 0-62.286-20.571-62.286-52 0-30.857 30.857-51.429 62.286-51.429 30.857 0 51.429 20.571 51.429 51.429zM984 406.857c0 20.571-21.143 41.143-52 41.143-20.571 0-41.143-20.571-41.143-41.143 0-21.143 20.571-41.714 41.143-41.714 30.857 0 52 20.571 52 41.714zM832 633.714c-13.143 1.714-26.286 2.286-40 2.286-196.571 0-352-146.857-352-327.429 0-30.286 4.571-59.429 13.143-86.857-13.143-1.143-25.714-1.714-38.857-1.714-52 0-93.143 10.286-145.143 20.571l-144.571-72.571 41.143 124.571c-103.429 72.571-165.714 166.286-165.714 280 0 197.143 186.286 352 414.286 352 203.429 0 382.286-124 417.714-290.857zM1170.286 313.143c0-93.143-61.714-176-145.143-238.286l31.429-103.429-113.714 62.286c-41.714-10.286-83.429-21.143-124.571-21.143-197.143 0-352 134.857-352 300.571s154.857 300.571 352 300.571c186.286 0 352-134.857 352-300.571z" />
<glyph unicode="&#xe950;" glyph-name="weibo, wb" data-tags="filmora, fm, brand, weibo, wb" horiz-adv-x="1039" d="M385.714 226.286c16 26.286 7.429 56.571-19.429 68-25.714 10.857-60-0.571-76-25.714-16.571-25.714-8.571-56 17.143-68 26.286-12 61.714-0.571 78.286 25.714zM439.429 295.429c5.714 10.286 2.286 21.714-8 25.714-10.286 3.429-22.857-1.143-28.571-10.857-5.714-10.286-2.857-21.143 7.429-25.714 10.286-4 23.429 0.571 29.143 10.857zM538.857 234.286c-34.286-77.714-133.714-120-218.286-92.571-81.714 26.286-116 106.857-80.571 179.429 35.429 70.857 126.286 110.857 206.857 90.286 84-21.714 126.286-100.571 92-177.143zM717.143 325.714c-10.857 111.429-157.143 188-326.857 171.429-169.714-17.143-297.714-120.571-286.857-232s157.143-188 326.857-171.429c169.714 17.143 297.714 120.571 286.857 232zM893.143 323.429c0-128.571-185.143-290.286-463.429-290.286-212.571 0-429.714 102.857-429.714 272.571 0 88.571 56 190.857 152.571 287.429 129.143 129.143 279.429 187.429 336 130.857 25.143-24.571 27.429-68 11.429-119.429-8-26.286 24.571-11.429 24.571-12 104 44 194.857 46.286 228-1.143 17.714-25.143 16-60.571 0-101.714-7.429-18.857 2.286-21.714 16.571-26.286 58.857-18.286 124-62.286 124-140zM850.857 680c32.571-36 41.714-85.714 27.429-129.143-5.714-17.714-24.571-27.429-42.286-21.714s-27.429 24.571-21.714 42.286v0c6.857 21.714 2.286 45.714-13.714 63.429s-39.429 24.571-61.143 20v0c-18.286-4-36.571 7.429-40 25.714-4 18.286 7.429 36 25.714 40 44.571 9.714 93.143-4 125.714-40.571zM954.286 773.143c67.429-74.286 85.143-176 56.571-265.143v0c-6.857-20.571-28.571-32-49.143-25.143s-32 28.571-25.714 49.143v0c20.571 63.429 8 136-40 188.571-48 53.143-118.286 73.143-183.429 59.429-21.143-4.571-42.286 9.143-46.857 30.286s9.143 41.714 30.286 46.286v0c92 19.429 190.857-8.571 258.286-83.429z" />
<glyph unicode="&#xe951;" glyph-name="inspired, bulb" data-tags="filmora, fm, tooltip, inspired, bulb" d="M583.358 179.696h-135.103c-26.64 0-47.572 20.932-47.572 47.572v45.669c-79.92 41.863-129.395 125.59-129.395 216.926 0 135.103 110.366 245.469 245.469 245.469s245.469-110.366 245.469-245.469c0-91.337-51.378-175.063-129.395-216.926v-45.669c-1.903-26.64-24.737-47.572-49.475-47.572zM455.865 236.781h116.074v55.183c0 11.416 7.611 20.932 17.127 26.64 68.503 30.446 112.269 97.046 112.269 173.16 0 104.658-83.726 188.384-188.384 188.384s-188.384-83.726-188.384-188.384c0-74.212 43.767-142.714 112.269-173.16 9.514-3.805 17.127-15.224 17.127-26.64v-55.183zM579.551 92.164h-129.395c-15.224 0-28.543 13.32-28.543 28.543s13.32 28.543 28.543 28.543h129.395c15.224 0 28.543-13.32 28.543-28.543s-13.32-28.543-28.543-28.543zM558.62 6.536h-87.531c-15.224 0-28.543 13.32-28.543 28.543s13.32 28.543 28.543 28.543h87.531c15.224 0 28.543-13.32 28.543-28.543s-13.32-28.543-28.543-28.543zM195.174 482.251h-57.086c-15.224 0-28.543 13.32-28.543 28.543s13.32 28.543 28.543 28.543h57.086c15.224 0 28.543-13.32 28.543-28.543s-13.32-28.543-28.543-28.543zM231.328 225.365c-7.611 0-15.224 1.903-20.932 7.611-11.416 11.416-11.416 28.543 0 39.959l39.959 39.959c11.416 11.416 28.543 11.416 39.959 0s11.416-28.543 0-39.959l-39.959-39.959c-3.805-3.805-11.416-7.611-19.029-7.611zM807.895 225.365c-7.611 0-15.224 1.903-20.932 7.611l-39.959 39.959c-11.416 11.416-11.416 28.543 0 39.959s28.543 11.416 39.959 0l39.959-39.959c11.416-11.416 11.416-28.543 0-39.959-5.708-3.805-11.416-7.611-19.029-7.611zM885.913 482.251h-57.086c-15.224 0-28.543 13.32-28.543 28.543s13.32 28.543 28.543 28.543h57.086c15.224 0 28.543-13.32 28.543-28.543s-13.32-28.543-28.543-28.543zM514.854 775.292c-15.224 0-28.543 13.32-28.543 28.543v57.086c0 15.224 13.32 28.543 28.543 28.543s28.543-13.32 28.543-28.543v-57.086c0-15.224-13.32-28.543-28.543-28.543zM727.975 683.955c-7.611 0-15.224 1.903-20.932 7.611-11.416 11.416-11.416 28.543 0 39.959l39.959 39.959c11.416 11.416 28.543 11.416 39.959 0s11.416-28.543 0-39.959l-39.959-39.959c-5.708-5.708-13.32-7.611-19.029-7.611zM292.219 683.955c-7.611 0-15.224 1.903-20.932 7.611l-39.959 39.959c-11.416 11.416-11.416 28.543 0 39.959s28.543 11.416 39.959 0l39.959-39.959c11.416-11.416 11.416-28.543 0-39.959-3.805-5.708-11.416-7.611-19.029-7.611z" />
<glyph unicode="&#xe952;" glyph-name="menu-alt, metro" data-tags="filmora, fm, tooltip, menu, metro" d="M429.715 831.999h-256.001c-25.601 0-45.714-20.115-45.714-45.714v-256.001c0-25.601 20.115-45.714 45.714-45.714h256.001c25.601 0 45.714 20.115 45.714 45.714v256.001c0 25.601-20.115 45.714-45.714 45.714zM420.572 539.428h-237.713v237.713h237.713v-237.713zM429.715 411.429h-256.001c-25.601 0-45.714-20.115-45.714-45.714v-256.001c0-25.601 20.115-45.714 45.714-45.714h256.001c25.601 0 45.714 20.115 45.714 45.714v256.001c0 25.601-20.115 45.714-45.714 45.714zM420.572 118.858h-237.713v237.713h237.713v-237.713zM850.286 831.999h-256.001c-25.601 0-45.714-20.115-45.714-45.714v-256.001c0-25.601 20.115-45.714 45.714-45.714h256.001c25.601 0 45.714 20.115 45.714 45.714v256.001c0 25.601-20.115 45.714-45.714 45.714zM841.142 539.428h-237.713v237.713h237.713v-237.713zM850.286 411.429h-256.001c-25.601 0-45.714-20.115-45.714-45.714v-256.001c0-25.601 20.115-45.714 45.714-45.714h256.001c25.601 0 45.714 20.115 45.714 45.714v256.001c0 25.601-20.115 45.714-45.714 45.714zM841.142 118.858h-237.713v237.713h237.713v-237.713z" />
<glyph unicode="&#xe953;" glyph-name="movie-alt, video-alt" data-tags="filmora, fm, tooltip, file, movie, video" d="M924.344 800.001h-824.687c-28.16 0-50.286-22.126-50.286-50.286v-603.429c0-28.16 22.126-50.286 50.286-50.286h824.687c28.16 0 50.286 22.126 50.286 50.286v603.429c0 28.16-22.126 50.286-50.286 50.286zM182.127 669.259l40.229 70.4h70.4l-40.229-70.4h-70.4zM363.154 739.659h70.4l-40.229-70.4h-70.4l40.229 70.4zM503.955 739.659h70.4l-40.229-70.4h-70.4l40.229 70.4zM644.756 739.659h70.4l-40.229-70.4h-70.4l40.229 70.4zM785.556 739.659h70.4l-40.229-70.4h-70.4l40.229 70.4zM914.29 719.543v-50.286h-28.16l28.16 50.286zM151.954 739.659l-40.229-70.4h-2.011v70.4h42.24zM109.714 156.342v452.571h804.572v-452.571h-804.572zM624.642 395.702l-203.155 124.709c-4.020 2.011-6.033 2.011-10.059 2.011-12.069 0-20.113-8.046-20.113-20.113v-249.419c0-4.020 2.011-8.046 2.011-10.059 6.033-10.059 18.1-12.069 28.16-6.033l203.155 124.709c2.011 2.011 4.020 4.020 6.033 6.033 6.033 8.046 4.020 22.126-6.033 28.16z" />
<glyph unicode="&#xe954;" glyph-name="question-alt, faq-alt" data-tags="filmora, fm, tooltip, question, faq" d="M512 853.083c-223.246 0-405.083-181.836-405.083-405.083 0-63.012 14.404-122.424 41.408-178.236 7.2-14.404 16.204-54.012-3.6-160.232-1.8-9.001 0-16.204 7.2-23.404 5.4-5.4 14.404-9.001 21.604-9.001 133.227 12.604 163.833 3.6 169.235 1.8 54.012-25.204 111.623-37.808 171.035-37.808 223.246 0 405.083 181.836 405.083 405.083-1.8 225.047-183.638 406.883-406.883 406.883zM512 96.929c-52.212 0-100.82 10.803-147.631 32.408-10.803 5.4-30.607 10.803-77.416 10.803-21.604 0-48.61-1.8-84.616-3.6 10.803 75.616 9.001 126.026-5.4 158.432-23.404 48.61-36.008 99.020-36.008 153.031 0 194.439 156.632 351.071 351.071 351.071s351.071-156.632 351.071-351.071c0-194.439-156.632-351.071-351.071-351.071zM502.999 673.047c-79.216 0-144.029-64.812-144.029-144.029h54.012c0 50.411 39.608 90.019 90.019 90.019 34.208 0 90.019-10.803 90.019-90.019 0-46.809-30.607-64.812-57.612-81.016-9.001-5.4-16.204-9.001-21.604-14.404-21.604-12.604-46.809-39.608-46.809-93.62h54.012c0 37.808 16.204 45.008 21.604 48.61 1.8 1.8 5.4 3.6 7.2 5.4s9.001 5.4 14.404 9.001c28.806 18.004 82.816 48.61 82.816 127.827 0 86.417-55.812 142.228-144.029 142.228zM466.992 303.971h54.012v-72.015h-54.012v72.015z" />
<glyph unicode="&#xe955;" glyph-name="subscribe-alt, mail-alt, contact-alt, envelope-alt" data-tags="filmora, fm, tooltip, subscribe, mail, contact, envelope" d="M924.339 799.999h-824.684c-28.16 0-50.287-22.127-50.287-50.287v-603.426c0-28.16 22.127-50.287 50.287-50.287h824.684c28.16 0 50.287 22.127 50.287 50.287v603.426c0 28.16-22.127 50.287-50.287 50.287zM109.715 675.29l247.405-259.472-247.405-201.139v460.618zM511.998 341.393l-380.158 398.259h762.327l-382.169-398.259zM399.358 371.566l90.514-96.549c6.034-6.034 14.080-10.060 22.127-10.060s16.090 4.021 22.127 10.060l90.514 96.549c0 0 0 0 2.011-2.011l265.508-215.219h-758.305l265.508 217.232zM666.877 415.819l247.405 259.472v-458.605l-247.405 199.129z" />
<glyph unicode="&#xe956;" glyph-name="tutorial, text" data-tags="filmora, fm, tooltip, file, tutorial, text" d="M585.956 864h-425.245v-832h702.579v536.178l-277.334 295.822zM595.201 773.405l201.53-214.47h-201.53v214.47zM216.178 87.466v721.066h323.555v-277.334c0-14.79 12.942-27.734 27.734-27.734h240.355v-416h-591.645zM308.621 660.621h147.91c14.79 0 27.734 12.942 27.734 27.734s-12.942 27.734-27.734 27.734h-147.91c-14.79 0-27.734-12.942-27.734-27.734s12.942-27.734 27.734-27.734zM308.621 512.71h147.91c14.79 0 27.734 12.942 27.734 27.734s-12.942 27.734-27.734 27.734h-147.91c-14.79 0-27.734-12.942-27.734-27.734s12.942-27.734 27.734-27.734zM715.379 401.779h-406.755c-14.79 0-27.734-12.942-27.734-27.734s12.942-27.734 27.734-27.734h406.755c14.79 0 27.734 12.942 27.734 27.734s-12.942 27.734-27.734 27.734zM715.379 253.866h-406.755c-14.79 0-27.734-12.942-27.734-27.734s12.942-27.734 27.734-27.734h406.755c14.79 0 27.734 12.942 27.734 27.734s-12.942 27.734-27.734 27.734z" />
<glyph unicode="&#xe957;" glyph-name="unsolved, problem" data-tags="filmora, fm, community, unsolved, problem" d="M512.175 327.25v0c9.275 0 16.8 7.525 16.8 16.8v339.85c0 9.275-7.525 16.8-16.8 16.8v0c-9.275 0-16.8-7.525-16.8-16.8v-339.85c-0.175-9.275 7.525-16.8 16.8-16.8zM491.35 213.675c0-11.55 9.45-21 21-21s21 9.45 21 21c0 11.55-9.45 21-21 21s-21-9.45-21-21v0 0zM512 896c-247.45 0-448-200.55-448-448s200.55-448 448-448 448 200.55 448 448-200.55 448-448 448zM512 27.125c-232.4 0-420.875 188.475-420.875 420.875s188.475 420.875 420.875 420.875c232.4 0 420.875-188.475 420.875-420.875s-188.475-420.875-420.875-420.875v0z" />
<glyph unicode="&#xe958;" glyph-name="chrome" data-tags="filmora, fm, brand, tech, chrome" horiz-adv-x="1079" d="M510.286 960c87.429 0.571 176.571-21.714 257.714-68.571 89.714-52 157.714-126.857 201.143-212.571l-424 22.286c-120 6.857-234.286-60.571-273.714-173.714l-157.714 242.286c98.286 122.286 245.714 189.714 396.571 190.286zM83.429 728.571l192.571-378.857c54.286-106.857 169.143-172 288-149.714l-131.429-257.714c-245.143 37.714-432.571 249.714-432.571 505.714 0 103.429 30.857 200 83.429 280.571zM989.714 632c89.714-230.857 0-499.429-221.714-627.429-89.714-52-188.571-73.143-284.571-68l231.429 356c65.714 101.143 64.571 233.143-13.714 324.571zM512 620.571c95.429 0 172.571-77.143 172.571-172.571s-77.143-172.571-172.571-172.571-172.571 77.143-172.571 172.571 77.143 172.571 172.571 172.571z" />
<glyph unicode="&#xe959;" glyph-name="css3" data-tags="filmora, fm, brand, tech, css, css3" d="M157.143 886.857h860l-152-761.714-459.429-152.571-398.857 152.571 40.571 203.429h169.714l-16.571-84 241.143-92 277.714 92 38.857 193.714h-690.286l33.143 169.714h690.857l21.714 109.143h-690.286z" />
<glyph unicode="&#xe95a;" glyph-name="douban" data-tags="filmora, fm, brand, social, douban" d="M943.4 894.3h-861.8c-8.8 0-16-7.1-16-16v-63.8c0-8.8 7.1-16 16-16h861.7c8.8 0 16 7.1 16 16v63.9c0 8.8-7.1 15.9-15.9 15.9zM943.4 96.4h-233l83 207.5h70.2c8.8 0 16 7.1 16 16v367c0 8.8-7.1 16-16 16h-702.2c-8.8 0-16-7.1-16-16v-367c0-8.8 7.1-16 16-16h504.3l-83-207.5h-156.4l-57.4 143.6c0 8.8-7.1 16-16 16h-95.7c-8.8 0-16-7.1-16-16l57.4-143.6h-217c-8.8 0-16-7.1-16-16v-63.8c0-8.8 7.1-16 16-16h861.7c8.8 0 16 7.1 16 16v63.8c0 8.9-7.1 16-15.9 16zM289.1 399.6v207.5h446.8v-207.5h-446.8z" />
<glyph unicode="&#xe95b;" glyph-name="google, g" data-tags="filmora, fm, brand, social, google" horiz-adv-x="860" d="M438.857 510.857h414.286c4-22.286 6.857-44 6.857-73.143 0-250.286-168-428.571-421.143-428.571-242.857 0-438.857 196-438.857 438.857s196 438.857 438.857 438.857c118.286 0 217.714-43.429 294.286-114.857l-119.429-114.857c-32.571 31.429-89.714 68-174.857 68-149.714 0-272-124-272-277.143s122.286-277.143 272-277.143c173.714 0 238.857 124.571 249.143 189.143h-249.143v150.857z" />
<glyph unicode="&#xe95c;" glyph-name="h5, html5" data-tags="filmora, fm, brand, tech, html, html5" horiz-adv-x="805" d="M645.714 618.857l9.143 100h-505.143l26.857-305.143h349.714l-12.571-130.286-112.571-30.286-112 30.286-7.429 80h-100l12.571-158.857 206.857-57.143h2.286v0.571l205.143 56.571 28.571 310.857h-368l-8.571 103.429h385.143zM0 886.857h804.571l-73.143-821.714-330.286-92.571-328 92.571z" />
</font>
</defs>
</svg>
