<svg xmlns="http://www.w3.org/2000/svg" width="72" height="72" viewBox="0 0 72 72">
    <g fill="none" fill-rule="evenodd">
        <path fill="transparent" d="M0 0h72v72H0z"/>
        <path fill="#7c43ff" fill-rule="nonzero" d="M18 51h1.732c4.187 4.804 10.351 7.84 17.225 7.84 6.873 0 13.037-3.036 17.224-7.84h4.015c-4.709 6.655-12.467 11-21.24 11-7.475 0-14.213-3.155-18.956-8.205V51zm37-33.72v4.715c-4.179-5.376-10.707-8.835-18.043-8.835-7.339 0-13.87 3.461-18.048 8.84h-3.865c4.62-7.217 12.708-12 21.913-12A25.913 25.913 0 0 1 55 17.28z"/>
        <path fill="#7c43ff" fill-rule="nonzero" d="M54 11h3v10h-3zM16 51h3v10h-3zM3 33h3v7H3zM66 33h3v7h-3zM31 23h3v27h-3zM17 28h3v17h-3zM59 31h3v11h-3zM45 27h3v19h-3zM10 29h3v15h-3zM52 28h3v17h-3zM38 29h3v15h-3zM24 30h3v13h-3z"/>
        <path fill="#7c43ff" fill-rule="nonzero" d="M46 19h11v3H46zM16 50h11v3H16z"/>
    </g>
</svg>
