<svg xmlns="http://www.w3.org/2000/svg" width="72" height="72" viewBox="0 0 72 72">
    <g fill="transparent" fill-rule="evenodd">
        <path d="M0 0h72v72H0z"/>
        <path fill="#000" fill-rule="nonzero" d="M61.888 53.991a34.24 34.24 0 0 1-27.32-14.668A32.3 32.3 0 0 1 7.5 54H6v-3h1.5a29.3 29.3 0 0 0 25.18-14.32l.108-.18-.108-.18A29.3 29.3 0 0 0 7.5 22H6v-3h1.5a32.3 32.3 0 0 1 27.069 14.677A34.24 34.24 0 0 1 61.888 19.01l-2.51-2.509 2.122-2.121 4.003 4.003.004-.003 1.055 1.062 1.06 1.059-.004.003.003.004-1.062 1.055-1.059 1.06-.003-.004-4.004 3.977-2.114-2.128 2.472-2.456A31.24 31.24 0 0 0 36.294 36.5a31.24 31.24 0 0 0 25.574 14.49l-2.49-2.49 2.122-2.121 6.121 6.121-2.121 2.121-4 4-2.121-2.121 2.509-2.509z"/>
        <path fill="#000" fill-rule="nonzero" d="M6 27h3v19H6zM55 27h3v19h-3zM13 32h3v9h-3zM48 32h3v9h-3zM62 33h3v7h-3zM20 31h3v11h-3z"/>
    </g>
</svg>
