<svg xmlns="http://www.w3.org/2000/svg" width="72" height="72" viewBox="0 0 72 72">
    <g fill="transparent" fill-rule="evenodd">
        <path d="M0 0h72v72H0z"/>
        <path fill="#7c43ff" fill-rule="nonzero" d="M8 38v-4h10v4z"/>
        <path fill="#7c43ff" fill-rule="nonzero" d="M8 28h3v15H8z"/>
        <path fill="#7c43ff" fill-rule="nonzero" d="M6 27h7v3H6zM39 23h7v3h-7zM6 41h7v3H6zM39 46h7v3h-7zM18 16h26v3H18zM18 53h26v3H18z"/>
        <path fill="#7c43ff" fill-rule="nonzero" d="M18 16h3v40h-3zM41 16h3v7h-3zM41 49h3v7h-3zM28 28h3v16h-3zM35 27h3v18h-3zM42 31h3v10h-3zM49 30h3v12h-3zM56 28h3v16h-3zM63 31h3v10h-3z"/>
    </g>
</svg>
