<svg xmlns="http://www.w3.org/2000/svg" width="30" height="30" viewBox="0 0 30 30">
    <path fill="#7C43FF" fill-rule="evenodd" d="M14 29.967a14.937 14.937 0 0 1-8.876-3.677l5.684-5.684A6.964 6.964 0 0 0 14 21.93v8.038zM3.71 24.876A14.937 14.937 0 0 1 .033 16H8.07a6.964 6.964 0 0 0 1.323 3.192L3.71 24.876zM.033 14A14.937 14.937 0 0 1 3.71 5.124l5.684 5.684A6.964 6.964 0 0 0 8.07 14H.033zM5.124 3.71A14.937 14.937 0 0 1 14 .033V8.07a6.964 6.964 0 0 0-3.192 1.323L5.124 3.71zM16 .033a14.937 14.937 0 0 1 8.876 3.677l-5.684 5.684A6.964 6.964 0 0 0 16 8.07V.033zm10.29 5.091A14.937 14.937 0 0 1 29.967 14H21.93a6.964 6.964 0 0 0-1.323-3.192l5.684-5.684zM29.967 16a14.937 14.937 0 0 1-3.677 8.876l-5.684-5.684A6.964 6.964 0 0 0 21.93 16h8.038zm-5.091 10.29A14.937 14.937 0 0 1 16 29.967V21.93a6.964 6.964 0 0 0 3.192-1.323l5.684 5.684z"/>
</svg>
