<svg xmlns="http://www.w3.org/2000/svg" xmlns:xlink="http://www.w3.org/1999/xlink" width="28" height="25" viewBox="0 0 28 25">
    <defs>
        <circle id="a" cx="15" cy="15" r="15"/>
    </defs>
    <g fill="none" fill-rule="evenodd" transform="translate(-2 -5)">
        <mask id="b" fill="#fff">
            <use xlink:href="#a"/>
        </mask>
        <g fill="#7C43FF" mask="url(#b)">
            <path d="M29.436 10.22c0-.32-.107-.588-.321-.802l-3.533-3.532a1.093 1.093 0 0 0-.803-.322c-.32 0-.589.108-.803.322l-34.655 34.656c-.214.213-.321.48-.321.803 0 .32.107.588.32.801l3.533 3.533c.215.214.482.32.803.32.32 0 .59-.105.803-.32l34.656-34.656c.214-.214.32-.48.32-.803zm-7.975 5.227l-1.909-1.908 5.227-5.227 1.909 1.908-5.227 5.227zM4.8 9.65L5.335 7.9l1.748-.534-1.748-.536L4.8 5.083 4.265 6.83l-1.748.536 1.748.534zM9.437 11.862l1.07 3.496 1.072-3.496 3.496-1.07-3.496-1.071-1.072-3.496-1.07 3.496-3.496 1.07zM28.169 18.248l-.535-1.748-.536 1.748-1.748.535 1.748.536.536 1.748.535-1.748 1.749-.536zM16.217 9.65l.535-1.749 1.748-.534-1.748-.536-.535-1.748-.535 1.748-1.749.536 1.75.534z"/>
        </g>
    </g>
</svg>
