<?xml version="1.0" encoding="UTF-8"?>
<svg width="60px" height="60px" viewBox="0 0 60 60" version="1.1" xmlns="http://www.w3.org/2000/svg" xmlns:xlink="http://www.w3.org/1999/xlink">
    <!-- Generator: Sketch 53.2 (72643) - https://sketchapp.com -->
    <title>形状</title>
    <desc>Created with Sketch.</desc>
    <g id="Page-1" stroke="none" stroke-width="1" fill="none" fill-rule="evenodd">
        <path d="M30,0 C13.4149689,0 0,13.4149689 0,30 C0,46.5850311 13.4149689,60 30,60 C46.5850311,60 60,46.5850311 60,30 C60,13.4149689 46.5850311,0 30,0 Z M35,44.1910825 C34.9967639,46.8418074 32.761542,48.9904455 30.0009127,49 C27.2405324,48.9904455 25.0065551,46.8449126 25,44.1971337 L25,29.7977706 C25.0098742,27.151823 27.2425238,25.0094748 29.9990873,25 C32.7573932,25.0094748 34.9901258,27.151823 35,29.7968948 L35,44.1910029 L35,44.1910825 Z M30,21 C27.2425238,20.9901373 25.0098742,18.7600968 25,16.0067547 C25.0032361,13.2466164 27.238458,11.0099455 29.9990873,11 C32.7594676,11.0099455 34.9934449,13.2433013 35,15.9994613 C34.9901258,18.7542952 32.7574762,20.9843358 30.0009127,20.9941984 L30,21 Z" id="形状" fill="#000000" fill-rule="nonzero"></path>
    </g>
</svg>