<?xml version="1.0" encoding="utf-8"?>
<!-- Generator: Adobe Illustrator 19.0.0, SVG Export Plug-In . SVG Version: 6.00 Build 0)  -->
<svg version="1.1" id="图层_1" xmlns="http://www.w3.org/2000/svg" xmlns:xlink="http://www.w3.org/1999/xlink" x="0px" y="0px"
	 viewBox="0 0 459.2 88.1" style="enable-background:new 0 0 459.2 88.1;" xml:space="preserve">
<style type="text/css">
	.st0{fill-rule:evenodd;clip-rule:evenodd;fill:#2F3C46;}
	.st1{fill-rule:evenodd;clip-rule:evenodd;fill:#61DED0;}
	.st2{fill:#2F3C46;}
</style>
<g id="XMLID_329_">
	<path id="XMLID_345_" class="st0" d="M-0.4,21l16.8,16.8c1.9,2,2.2,4.9,0.9,7.2l0.1,0.1l3.2-3.2l21-21l-21-21L-0.4,21z"/>
	<polygon id="XMLID_344_" class="st1" points="43.6,23.1 41.4,25.4 46,25.4 43.7,23.1 	"/>
	<polygon id="XMLID_342_" class="st1" points="48.4,27.8 38.9,27.8 36.7,30.1 34.4,32.3 52.9,32.3 50.7,30.1 	"/>
	<polygon id="XMLID_341_" class="st1" points="55.4,34.8 32,34.8 29.7,37 27.5,39.3 59.9,39.3 57.6,37 	"/>
	<polygon id="XMLID_338_" class="st1" points="62.3,41.7 25.1,41.7 22.8,44 20.5,46.2 62.5,46.2 64.7,44.1 64.6,44 	"/>
	<polygon id="XMLID_336_" class="st1" points="15.8,50.9 13.6,53.2 55.6,53.2 57.8,50.9 60.1,48.7 18.1,48.7 	"/>
	<polygon id="XMLID_334_" class="st1" points="6.6,60.1 48.6,60.1 50.9,57.9 53.1,55.6 11.2,55.6 	"/>
	<polygon id="XMLID_333_" class="st1" points="2,64.8 -0.3,67.1 41.7,67.1 43.9,64.8 46.2,62.6 4.2,62.6 	"/>
	<polygon id="XMLID_332_" class="st1" points="4.2,71.8 6.5,74 34.7,74 37,71.8 39.2,69.5 2,69.5 	"/>
	<polygon id="XMLID_331_" class="st1" points="8.9,76.4 11.2,78.7 13.4,81 27.8,81 30,78.7 32.3,76.4 	"/>
	<polygon id="XMLID_330_" class="st1" points="19.8,87.4 20.4,87.9 20.6,88.1 20.8,87.9 21.4,87.4 23.1,85.7 23.7,85 25.3,83.4 
		15.9,83.4 17.5,85 18.1,85.7 	"/>
</g>
<g id="XMLID_40_">
	<polygon id="XMLID_41_" class="st2" points="443.2,22.8 459.6,20.8 459.6,11.6 443.2,13.5 397.2,13.5 397.2,22.8 432.6,22.8 
		432.6,32.4 397.2,32.4 397.2,42.3 432.6,42.3 432.6,51.9 397.2,51.9 397.2,61.7 432.6,61.7 432.6,68.7 415.2,68.7 412.6,77.9 
		443.1,77.9 443.1,76.6 443.1,68.7 443.1,61.7 459.6,61.7 459.6,51.9 443.1,51.9 443.1,42.3 459.6,42.3 459.6,32.4 443.1,32.4 
		443.1,22.8 	"/>
	<path id="XMLID_61_" class="st2" d="M293.5,10.2h-9.9v3.3H266v0.5v8.7v40.4v0.5v8.7h17.6v5.5h9.9v-5.5H311v-0.5v-3.2v-5v-0.5V22.8
		v-0.5v-6.1v-2.1v-0.5h-17.6V10.2z M283.6,63.2h-8.4V47.6h8.4V63.2z M283.6,38.4h-8.4V22.8h8.4V38.4z M301.8,63.2h-8.4V47.6h8.4
		V63.2z M301.8,22.8v15.6h-8.4V22.8H301.8z"/>
	<polygon id="XMLID_71_" class="st2" points="255.1,10.2 244.6,10.2 244.6,13.6 238.1,13.6 238.1,23.5 251.5,23.5 246.9,36 
		246.9,36 246.9,36.1 237,63.2 246.9,63.2 246.9,63.2 246.9,77.9 256.8,77.9 256.8,52.4 262,55.9 262,43.3 256.8,39.8 256.8,37.3 
		262,23.5 262,13.6 255.1,13.6 	"/>
	<polygon id="XMLID_72_" class="st2" points="320.9,65.1 326.6,65.1 321.6,77.9 332.8,77.9 337.8,65.1 377.4,65.1 377.4,69.2 
		363.4,69.2 361.4,77.9 377.4,77.9 387.3,77.9 387.3,69.2 387.3,65.1 387.3,56.2 387.3,55.8 320.9,55.8 	"/>
	<polygon id="XMLID_73_" class="st2" points="379.4,10.2 368.9,10.2 368.5,13.5 339.7,13.5 339.4,10.2 328.8,10.2 329.2,13.5 
		320.9,13.5 320.9,22.8 387.3,22.8 387.3,13.5 379.1,13.5 	"/>
	<rect id="XMLID_74_" x="362.4" y="26.5" class="st2" width="9.9" height="25.6"/>
	<rect id="XMLID_75_" x="377.4" y="26.5" class="st2" width="9.9" height="25.6"/>
	<path id="XMLID_78_" class="st2" d="M357.3,52.1v-3v-5.4V41v-5.4v-2.7v-6.3v-0.1h-36.3v0.1v6.3v2.7V41v2.7v5.4v3h9.9v-3h16.6v3
		H357.3z M330.8,32.9h16.6v2.7h-16.6V32.9z M330.8,43.8V41h16.6v2.7H330.8z"/>
	<polygon id="XMLID_80_" class="st2" points="151.4,10.2 84.9,10.2 84.9,19.7 97.8,19.7 87.4,77.9 98.4,77.9 105.2,40.4 139,40.4 
		139,68.8 123,68.8 121.4,77.9 150,77.9 150,40.4 150,30.3 150,30.3 107,30.3 108.8,19.7 151.4,19.7 151.4,10.2 151.4,10.2 	"/>
	<rect id="XMLID_81_" x="160.7" y="36.8" class="st2" width="67.1" height="9.5"/>
	<polygon id="XMLID_82_" class="st2" points="182.3,32.4 175,10.6 163.4,10.6 170.7,32.4 	"/>
	<polygon id="XMLID_83_" class="st2" points="201.4,32.4 194.1,10.6 182.5,10.6 189.8,32.4 	"/>
	<polygon id="XMLID_84_" class="st2" points="225,10.6 213.4,10.6 206.1,32.4 217.7,32.4 	"/>
	<polygon id="XMLID_85_" class="st2" points="161,77.6 172.5,77.6 182.3,51.2 170.8,51.2 	"/>
	<polygon id="XMLID_86_" class="st2" points="206.2,51.2 216,77.6 227.5,77.6 217.7,51.2 	"/>
</g>
</svg>
