<?xml version="1.0" encoding="utf-8"?>
<!-- Generator: Adobe Illustrator 19.0.0, SVG Export Plug-In . SVG Version: 6.00 Build 0)  -->
<svg version="1.1" id="图层_1" xmlns="http://www.w3.org/2000/svg" xmlns:xlink="http://www.w3.org/1999/xlink" x="0px" y="0px"
	 viewBox="-302 507 475 68" style="enable-background:new -302 507 475 68;" xml:space="preserve">
<style type="text/css">
	.st0{fill:#EF3062;}
	.st1{fill:#313C48;}
</style>
<title>filmora_screen_brand_For Light Background</title>
<desc>Created with Sketch.</desc>
<path id="Fill-1" class="st0" d="M173,520.4c0,2.8-2.3,5-5.2,5c-2.9,0-5.2-2.3-5.2-5c0-2.8,2.3-5,5.2-5
	C170.6,515.4,173,517.7,173,520.4"/>
<polyline id="Fill-2" class="st0" points="-267.9,524.8 -268,524.8 -269.7,526.5 -266.2,526.5 -267.9,524.8 "/>
<polyline id="Fill-4" class="st0" points="-262.6,530.1 -264.4,528.3 -271.6,528.3 -273.3,530.1 -275,531.8 -260.9,531.8 
	-262.6,530.1 "/>
<polyline id="Fill-5" class="st0" points="-257.3,535.4 -259,533.7 -276.9,533.7 -278.6,535.4 -280.4,537.1 -255.6,537.1 
	-257.3,535.4 "/>
<polyline id="Fill-6" class="st0" points="-252,540.7 -253.7,539 -282.2,539 -284,540.7 -285.7,542.4 -253.6,542.4 -251.9,540.8 
	-252,540.7 "/>
<polyline id="Fill-7" class="st0" points="-287.5,544.3 -289.3,546 -291,547.8 -258.9,547.8 -257.1,546 -255.4,544.3 -287.5,544.3 
	"/>
<polyline id="Fill-8" class="st0" points="-292.9,549.6 -296.3,553.1 -264.2,553.1 -262.5,551.3 -260.7,549.6 -292.9,549.6 "/>
<polyline id="Fill-9" class="st0" points="-298.2,554.9 -299.9,556.7 -301.6,558.4 -269.5,558.4 -267.8,556.7 -266.1,554.9 
	-298.2,554.9 "/>
<polyline id="Fill-10" class="st0" points="-299.9,560.3 -298.2,562 -296.4,563.7 -274.8,563.7 -273.1,562 -271.4,560.3 
	-299.9,560.3 "/>
<polyline id="Fill-11" class="st0" points="-294.6,565.6 -292.9,567.3 -291.1,569 -280.2,569 -278.4,567.3 -276.7,565.6 
	-294.6,565.6 "/>
<polyline id="Fill-12" class="st0" points="-289.3,570.9 -288,572.1 -287.5,572.6 -286.2,573.9 -285.8,574.3 -285.6,574.5 
	-285.5,574.3 -285,573.9 -283.7,572.6 -283.3,572.1 -282,570.9 -289.3,570.9 "/>
<path id="Fill-13" class="st1" d="M-206.2,523c-1.2-0.3-2.4-0.5-3.7-0.5c-2.4,0-4.8,0.4-4.8,4.5v3.8h8.4v9.7h-8.4v26.2h-11.4v-26.3
	h-6.5v-9.7h6.5v-3.1c0-12.9,8-13.9,13-13.9c2.3-0.1,4.6,0.2,6.7,1L-206.2,523"/>
<path id="Fill-14" class="st1" d="M-202.3,566.8h11.4v-35.9h-11.4V566.8z M-196.6,513.2c3.6,0,6.5,3,6.5,6.6c0,3.6-3,6.5-6.6,6.5
	c-3.6,0-6.5-3-6.5-6.5C-203.3,516.1-200.3,513.2-196.6,513.2C-196.7,513.2-196.7,513.2-196.6,513.2L-196.6,513.2z"/>
<polygon id="Fill-15" class="st1" points="-186.2,566.8 -174.8,566.8 -174.8,514.7 -186.2,514.7 "/>
<path id="Fill-16" class="st1" d="M-125.5,566.8v-19.4c0-4.8-1.6-7.8-5.5-7.8c-3.4,0-6,2.2-6,9.1v18h-11v-19.5
	c0-4.8-1.6-7.7-5.4-7.7c-3.4,0-6.1,2.2-6.1,9.3v17.8h-11v-35.9h11v5.2c1.6-3.2,4.9-6.1,10.7-6.1c5.4,0,9,2.5,10.6,6.5
	c1.8-3.4,5.3-6.5,11.7-6.5c10,0,12.1,7.5,12.1,14.7v22.1H-125.5"/>
<path id="Fill-17" class="st1" d="M-83.1,548.9c0-5-3.4-9.2-8.6-9.2c-5.2,0-8.5,4.2-8.5,9.2c0,5,3.4,9.2,8.5,9.2
	C-86.6,558-83.1,553.9-83.1,548.9z M-111.6,548.9c0-10.3,7.5-18.9,20-18.9c12.4,0,19.9,8.6,19.9,18.9s-7.4,18.9-19.9,18.9
	C-104.1,567.8-111.6,559.1-111.6,548.9L-111.6,548.9z"/>
<path id="Fill-18" class="st1" d="M-42.8,541.3c-1.2-0.3-2.5-0.5-3.8-0.5c-6.4,0-10.5,3.2-10.5,12.1v14h-11.4v-35.9h11.4v5.8
	c2.3-4,6.5-6.4,11.1-6.3c1.1,0,2.2,0.2,3.3,0.6L-42.8,541.3"/>
<path id="Fill-19" class="st1" d="M-13.6,548.9c0-4.9-3.4-9.2-8.6-9.2s-8.6,4.3-8.6,9.2c0,4.9,3.4,9.2,8.6,9.2
	S-13.6,553.9-13.6,548.9L-13.6,548.9z M-2.2,530.9v35.9h-11.4v-5.1c-1.8,3.3-6,6-11.5,6c-9.5,0-17-8.1-17-18.9
	c0-10.7,7.4-18.9,17-18.9c5.3,0,9.5,2.5,11.5,6v-5.2H-2.2L-2.2,530.9z"/>
<path id="Fill-20" class="st1" d="M-301.7,523.1l12.8,12.8c1.5,1.5,1.7,3.7,0.7,5.5l0.1,0.1l18.4-18.4l-16-16L-301.7,523.1"/>
<path id="Fill-22" class="st0" d="M14.4,554.9h11.2c0,1.6,0.5,2.8,1.6,3.5c1.1,0.7,2.4,1.1,4.1,1.1c1.4,0,2.5-0.2,3.4-0.7
	c0.9-0.5,1.3-1.2,1.3-2.3c0-0.6-0.2-1.1-0.6-1.5c-0.4-0.4-1-0.8-1.7-1.1c-0.8-0.3-1.8-0.7-3-1c-1.2-0.4-2.7-0.8-4.4-1.4
	c-1.5-0.5-3-1-4.3-1.5c-1.4-0.5-2.5-1.2-3.6-2c-1-0.8-1.8-1.7-2.4-2.8c-0.6-1.1-0.9-2.5-0.9-4.2c0-1.9,0.4-3.5,1.1-4.9
	c0.8-1.4,1.8-2.5,3.2-3.4c1.4-0.9,3-1.6,4.9-2c1.9-0.5,4-0.7,6.3-0.7c2.8,0,5.2,0.3,7.2,1c2,0.6,3.7,1.5,5,2.6
	c1.3,1.1,2.2,2.4,2.9,3.9c0.6,1.5,0.9,3.1,0.9,4.8H35.5c0-1.5-0.4-2.6-1.2-3.5c-0.8-0.8-1.9-1.2-3.5-1.2c-1.2,0-2.2,0.3-3.1,0.8
	c-0.9,0.5-1.3,1.3-1.3,2.4c0,0.7,0.2,1.3,0.6,1.7c0.4,0.4,1,0.8,1.8,1.1c0.8,0.3,1.7,0.7,2.9,1.1c1.1,0.4,2.5,0.8,3.9,1.2
	c1.6,0.4,3.1,0.9,4.5,1.4c1.4,0.5,2.6,1.1,3.7,1.8c1.1,0.7,1.9,1.6,2.5,2.7c0.6,1.1,0.9,2.5,0.9,4.1c0,2.2-0.4,4.1-1.3,5.6
	s-2.1,2.8-3.5,3.8c-1.5,1-3.2,1.7-5.1,2.1c-2,0.4-4,0.6-6.1,0.6c-5.3,0-9.5-1.1-12.4-3.3C15.8,562.3,14.4,559.1,14.4,554.9"/>
<path id="Fill-23" class="st0" d="M49.5,548.9c0-2.5,0.4-4.9,1.2-7.2c0.8-2.3,2-4.3,3.7-6.1c1.6-1.8,3.7-3.2,6.1-4.2
	c2.5-1,5.3-1.6,8.5-1.6c3,0,5.6,0.4,7.8,1.3c2.2,0.9,4.1,2,5.6,3.4c1.5,1.4,2.7,3,3.5,4.9c0.8,1.8,1.3,3.7,1.5,5.6H76.1
	c-0.2-1.5-0.8-2.8-2-3.8c-1.1-1-2.7-1.5-4.9-1.5c-1.5,0-2.8,0.2-3.8,0.7c-1.1,0.5-1.9,1.2-2.6,2c-0.7,0.9-1.2,1.8-1.5,3
	c-0.3,1.1-0.5,2.3-0.5,3.5c0,1.2,0.2,2.4,0.5,3.6c0.3,1.1,0.8,2.1,1.5,3c0.7,0.8,1.6,1.5,2.6,2c1.1,0.5,2.4,0.7,3.9,0.7
	c1.9,0,3.4-0.4,4.4-1.2c1-0.8,1.8-2,2.3-3.6h11.4c-0.2,2-0.8,3.9-1.8,5.7c-0.9,1.8-2.2,3.3-3.7,4.6c-1.5,1.3-3.4,2.4-5.6,3.1
	c-2.2,0.8-4.7,1.1-7.4,1.1c-3.2,0-6.1-0.5-8.5-1.6c-2.4-1-4.5-2.4-6.1-4.2c-1.6-1.8-2.9-3.8-3.7-6.1
	C49.9,553.8,49.5,551.4,49.5,548.9"/>
<path id="Fill-24" class="st0" d="M90.4,566.9v-36.1h11.4v5.8c0.9-1.7,2.3-3.2,4.2-4.5c2-1.3,4.3-2,6.9-2c1.2,0,2.3,0.2,3.3,0.6
	v10.4c-0.8-0.2-1.5-0.3-2-0.4c-0.5-0.1-1.2-0.1-1.9-0.1c-3.2,0-5.8,0.9-7.7,2.7c-1.9,1.8-2.9,5-2.9,9.4v14.1H90.4"/>
<path id="Fill-25" class="st0" d="M119.3,566.9v-36.1h11.4v5.2c1-1.9,2.5-3.5,4.6-4.5c2-1.1,4.5-1.6,7.3-1.6c2.5,0,4.5,0.4,6.1,1.2
	c1.6,0.8,2.9,1.8,3.9,3c1.1,1.4,1.9,3,2.3,4.8c0.4,1.8,0.5,4,0.5,6.6v21.4H144v-18.5c0-2.5-0.5-4.6-1.4-6.3
	c-0.9-1.6-2.6-2.5-4.9-2.5c-2.4,0-4.2,0.8-5.3,2.5c-1.2,1.6-1.7,3.9-1.7,6.6v18.1H119.3"/>
</svg>
