<?xml version="1.0" encoding="utf-8"?>
<!-- Generator: Adobe Illustrator 19.0.0, SVG Export Plug-In . SVG Version: 6.00 Build 0)  -->
<svg version="1.1" id="图层_1" xmlns="http://www.w3.org/2000/svg" xmlns:xlink="http://www.w3.org/1999/xlink" x="0px" y="0px"
	 viewBox="0 0 459.2 128" style="enable-background:new 0 0 459.2 128;" xml:space="preserve">
<style type="text/css">
	.st0{fill:#2F3C46;}
	.st1{fill-rule:evenodd;clip-rule:evenodd;fill:#2F3C46;}
	.st2{fill-rule:evenodd;clip-rule:evenodd;fill:#61DED0;}
</style>
<g id="XMLID_1477_">
	<polygon id="XMLID_1504_" class="st0" points="442.9,22.4 459.3,20.4 459.3,11.2 442.9,13.2 396.9,13.2 396.9,22.4 432.3,22.4 
		432.3,32 396.9,32 396.9,41.9 432.3,41.9 432.3,51.5 396.9,51.5 396.9,61.3 432.3,61.3 432.3,68.2 415,68.2 412.3,77.4 442.8,77.4 
		442.8,76.1 442.8,68.2 442.8,61.3 459.3,61.3 459.3,51.5 442.8,51.5 442.8,41.9 459.3,41.9 459.3,32 442.8,32 442.8,22.4 	"/>
	<path id="XMLID_1498_" class="st0" d="M293.4,9.9h-9.9v3.3h-17.5v0.5v8.7h0v40.3h0v0.5v8.7h17.5v5.5h9.9v-5.5h17.5v-0.5v-3.2v-5
		v-0.5V22.5V22v-6.1v-2.1v-0.5h-17.5V9.9z M283.5,62.7h-8.3V47.2h8.3V62.7z M283.5,38h-8.3V22.5h8.3V38z M301.7,62.7h-8.3V47.2h8.3
		V62.7z M301.7,22.5V38h-8.3V22.5H301.7z"/>
	<polygon id="XMLID_1497_" class="st0" points="255.1,9.9 244.6,9.9 244.6,13.2 238.1,13.2 238.1,23.1 251.5,23.1 246.9,35.7 
		246.9,35.7 246.9,35.7 237,62.7 246.9,62.7 246.9,62.7 246.9,77.4 256.7,77.4 256.7,52 262,55.5 262,42.9 256.7,39.4 256.7,36.9 
		262,23.1 262,13.2 255.1,13.2 	"/>
	<polygon id="XMLID_1496_" class="st0" points="320.8,64.6 326.5,64.6 321.4,77.4 332.6,77.4 337.7,64.6 377.2,64.6 377.2,68.8 
		363.1,68.8 361.2,77.4 377.2,77.4 387.1,77.4 387.1,68.8 387.1,64.6 387.1,55.8 387.1,55.4 320.8,55.4 	"/>
	<polygon id="XMLID_1495_" class="st0" points="379.2,9.9 368.6,9.9 368.3,13.2 339.5,13.2 339.2,9.9 328.7,9.9 329,13.2 
		320.8,13.2 320.8,22.5 387.1,22.5 387.1,13.2 378.8,13.2 	"/>
	<rect id="XMLID_1494_" x="362.2" y="26.2" class="st0" width="9.9" height="25.6"/>
	<rect id="XMLID_1493_" x="377.2" y="26.2" class="st0" width="9.9" height="25.6"/>
	<path id="XMLID_1489_" class="st0" d="M357.1,51.7v-3v-5.4v-2.7v-5.4v-2.7v-6.3v-0.1h-36.3v0.1v6.3v2.7v5.4v2.7v5.4v3h9.9v-3h16.6
		v3H357.1z M330.6,32.5h16.6v2.7h-16.6V32.5z M330.6,43.4v-2.7h16.6v2.7H330.6z"/>
</g>
<g id="XMLID_1356_">
	<path id="XMLID_1367_" class="st1" d="M0,20.7l16.8,16.7c1.9,2,2.2,4.9,0.9,7.2l0.1,0.1l3.1-3.1l20.9-20.9L21-0.3L0,20.7z"/>
	<polygon id="XMLID_1366_" class="st2" points="44,22.8 41.7,25 46.3,25 44,22.8 	"/>
	<polygon id="XMLID_1365_" class="st2" points="48.7,27.4 39.3,27.4 37,29.7 34.8,32 53.2,32 51,29.7 	"/>
	<polygon id="XMLID_1364_" class="st2" points="55.6,34.4 32.3,34.4 30.1,36.6 27.8,38.9 60.2,38.9 57.9,36.6 	"/>
	<polygon id="XMLID_1363_" class="st2" points="62.6,41.3 25.4,41.3 23.1,43.6 20.9,45.8 62.8,45.8 64.9,43.7 64.8,43.6 	"/>
	<polygon id="XMLID_1362_" class="st2" points="16.2,50.5 13.9,52.8 55.8,52.8 58.1,50.5 60.4,48.3 18.5,48.3 	"/>
	<polygon id="XMLID_1361_" class="st2" points="7,59.7 48.9,59.7 51.2,57.5 53.4,55.2 11.5,55.2 	"/>
	<polygon id="XMLID_1360_" class="st2" points="2.3,64.4 0.1,66.6 42,66.6 44.2,64.4 46.5,62.1 4.6,62.1 	"/>
	<polygon id="XMLID_1359_" class="st2" points="4.6,71.3 6.9,73.6 35,73.6 37.3,71.3 39.5,69.1 2.3,69.1 	"/>
	<polygon id="XMLID_1358_" class="st2" points="9.3,76 11.5,78.3 13.8,80.5 28.1,80.5 30.4,78.3 32.6,76 	"/>
	<polygon id="XMLID_1357_" class="st2" points="20.2,86.9 20.7,87.4 21,87.7 21.2,87.4 21.7,86.9 23.4,85.2 24,84.6 25.7,82.9 
		16.2,82.9 17.8,84.6 18.5,85.2 	"/>
</g>
<polygon id="XMLID_1355_" class="st0" points="151.5,19.4 151.5,9.9 151.5,9.9 151.5,9.9 85.2,9.9 85.2,19.4 98.1,19.4 87.6,77.5 
	98.6,77.5 105.4,40.1 139.1,40.1 139.1,68.4 123.2,68.4 121.6,77.5 150.1,77.5 150.1,40.1 150.1,29.9 150.1,29.9 107.2,29.9 
	109,19.4 "/>
<g id="XMLID_1191_">
	<rect id="XMLID_1197_" x="160.8" y="36.4" class="st0" width="67" height="9.5"/>
	<polygon id="XMLID_1196_" class="st0" points="182.4,32 175.1,10.2 163.6,10.2 170.8,32 	"/>
	<polygon id="XMLID_1195_" class="st0" points="201.4,32 194.1,10.2 182.6,10.2 189.8,32 	"/>
	<polygon id="XMLID_1194_" class="st0" points="225,10.2 213.5,10.2 206.2,32 217.8,32 	"/>
	<polygon id="XMLID_1193_" class="st0" points="161.1,77.1 172.6,77.1 182.4,50.8 170.9,50.8 	"/>
	<polygon id="XMLID_1192_" class="st0" points="206.2,50.8 216,77.1 227.6,77.1 217.8,50.8 	"/>
</g>
<g id="XMLID_869_">
	<path id="XMLID_1093_" class="st0" d="M28,113.5h1v1.1c-1.3,2.5-3,4.8-5.3,6.8c-0.1-0.4-0.3-0.8-0.5-1.1c2-1.7,3.5-3.7,4.7-6V113.5
		z M23.6,113.5h5v1h-5V113.5z M26.1,109.9c0.5,0.8,0.9,1.6,1.3,2.5l-1.1,0.4c-0.3-0.7-0.6-1.5-1.1-2.5L26.1,109.9z M25.9,117.8H27
		v9.8h-1.1V117.8z M28,118.4c0.7,0.6,1.2,1.2,1.7,1.8l-0.8,0.7c-0.5-0.7-1.1-1.3-1.7-1.9L28,118.4z M34.9,113.6h1.1
		c0,2.4-0.1,4.1-0.2,5.1c-0.6,3.8-2.6,6.7-5.9,8.8c-0.2-0.3-0.4-0.6-0.7-0.9c3.2-1.9,5.1-4.6,5.6-8C34.9,118,34.9,116.3,34.9,113.6z
		 M31.5,110.9h1v10.8h-1V110.9z M32.1,110.9h7.1v1.1h-7.1V110.9z M35.5,120.9h1v4c0,0.7,0.3,1.1,1,1.1h1.3c0.7,0,1-0.3,1.1-0.9
		c0.1-0.7,0.2-1.4,0.3-2.1c0.4,0.2,0.7,0.3,1,0.4c-0.1,0.7-0.2,1.4-0.3,2c-0.3,1.1-0.9,1.6-2,1.6h-1.6c-1.2,0-1.8-0.7-1.8-2V120.9z
		 M38.6,110.9h1.1v10.6h-1.1V110.9z"/>
	<path id="XMLID_991_" class="st0" d="M61.6,119.3l1,0.3c-0.6,1.8-1.3,3.2-2,4.4c-0.3-0.2-0.6-0.4-0.9-0.5
		C60.6,122.2,61.2,120.8,61.6,119.3z M60,116.5h8v1h-8V116.5z M67.2,120l1.1,0.5c-1.6,3-4.1,5.4-7.4,7.2c-0.2-0.3-0.4-0.6-0.7-1
		C63.4,125.1,65.8,122.9,67.2,120z M61.1,111.7h1v5.3h-1V111.7z M64.2,118.1h1v5h-1V118.1z M64.3,110h1v7.1h-1V110z M64.8,112.8h3.1
		v0.9h-3.1V112.8z M72.4,116.9h1v2.9c0,2.4-0.6,4.3-1.9,5.6c-0.8,0.8-2,1.5-3.6,2.2c-0.2-0.3-0.4-0.6-0.7-0.8c1.5-0.6,2.7-1.3,3.5-2
		c1.1-1.1,1.7-2.7,1.7-4.7V116.9z M68.4,111h9.1v1h-9.1V111z M69,114.6h1v9h-1V114.6z M69.6,114.6h6.8v0.9h-6.8V114.6z M72.3,111.5
		h1.1l-0.8,3.4h-1L72.3,111.5z M72.6,122.7c2.1,1.4,3.9,2.6,5.3,3.7l-0.7,0.9c-1.6-1.2-3.3-2.4-5.3-3.8L72.6,122.7z M75.9,114.6h1v9
		h-1V114.6z"/>
	<path id="XMLID_962_" class="st0" d="M102.1,123c-0.1,0.3-0.1,0.6,0,1c-1.7,0.4-3.5,0.9-5.3,1.4l-0.2-1
		C98.4,124,100.3,123.5,102.1,123z M99.8,110l0.8,0.5c-0.6,1.3-1.6,3-3,5.3c1.2-0.2,2-0.3,2.5-0.3c-0.1,0.3-0.1,0.6-0.1,0.9
		c-1.5,0.2-2.6,0.3-3.2,0.5l-0.2-1.1C97.5,114.6,98.6,112.7,99.8,110z M101.1,113.5l0.8,0.5c-1.4,2.6-2.6,4.7-3.8,6.5
		c1.1-0.2,2.3-0.4,3.5-0.5v0.8c-2.1,0.4-3.6,0.6-4.4,0.8l-0.2-1.1C98.1,119.1,99.5,116.8,101.1,113.5z M102.2,111.7h1.1v7.1
		c0,3.5-0.7,6.4-2.1,8.7c-0.2-0.3-0.5-0.6-0.8-0.9c1.2-2,1.7-4.6,1.7-7.8V111.7z M102.7,111.7H113v0.9h-10.3V111.7z M102.8,115H113
		v0.9h-10.2V115z M104.3,117.9h1v9.4h-1V117.9z M105,117.9h8.3v0.9H105V117.9z M105.1,121.9h8.2v0.8h-8.2V121.9z M107.9,109.9
		c0.4,0.7,0.8,1.3,1.1,1.9l-1.1,0.5c-0.3-0.6-0.6-1.2-1-1.9L107.9,109.9z M107.1,118.4h1v7.7h-1V118.4z M109.9,118.4h1v7.4h-1V118.4
		z M112.8,117.9h1v7.9c0,1-0.4,1.5-1.2,1.6c-0.2,0-0.8,0-1.7,0c-0.1-0.3-0.1-0.7-0.2-1.1c0.7,0,1.2,0.1,1.5,0.1s0.6-0.2,0.6-0.7
		V117.9z M112.4,111.7h1.1v4.2h-1.1V111.7z"/>
	<path id="XMLID_942_" class="st0" d="M140.2,121.2c0,0.5,0,0.9,0,1.1c-2.1,0.5-4.3,1.1-6.7,1.7l-0.2-1.1
		C135.9,122.3,138.2,121.8,140.2,121.2z M133.5,112.6h6.7v0.9h-6.7V112.6z M136.2,110l0.9,0.2c-0.8,2.9-1.6,5.4-2.5,7.7v1h-0.9v-1.1
		C134.7,115.3,135.5,112.6,136.2,110z M134.1,118h5.9v1h-5.9V118z M136.8,114.8h1v12.7h-1V114.8z M151.1,124.5
		c-0.1,0.3-0.1,0.6-0.1,0.9c-5.3,0.2-9.1,0.3-11.4,0.3l-0.1-1.1C142,124.6,145.9,124.6,151.1,124.5z M140.1,116.2h10.8v0.9h-10.8
		V116.2z M141.1,110.7h0.9v3.9h-0.9V110.7z M141.3,116.4h0.9v8.7h-0.9V116.4z M141.7,110.7h7.7v0.9h-7.7V110.7z M141.7,113.7h7.7
		v0.9h-7.7V113.7z M141.8,118.9h7.5v0.9h-7.5V118.9z M141.8,121.7h7.5v0.8h-7.5V121.7z M148.7,116.5h0.9v11h-0.9V116.5z
		 M148.9,110.7h0.8v3.9h-0.8V110.7z"/>
	<path id="XMLID_935_" class="st0" d="M174.3,110.2h1.1c0,3.9-0.3,7-0.8,9.3c-0.8,2.9-2,5.4-3.8,7.6c-0.3-0.3-0.5-0.6-0.8-0.8
		c1.7-2,2.8-4.4,3.5-7.1C174.1,117.2,174.3,114.2,174.3,110.2z M174.7,116.6c1.4,1.5,2.8,3,4.1,4.6l-0.8,0.8c-1.3-1.7-2.6-3.2-4-4.7
		L174.7,116.6z M181,110.2h1.1c0,2.8-0.1,4.9-0.2,6.2c-0.5,4.9-2.4,8.6-5.9,11.1c-0.2-0.4-0.5-0.7-0.8-1c3-2.3,4.8-5.2,5.4-8.9
		C180.9,115.9,181,113.4,181,110.2z M181.9,115.2c0.6,4.9,2.6,8.5,6,10.8c-0.3,0.4-0.6,0.7-0.9,1.1c-3.6-2.9-5.5-6.8-5.7-11.7
		L181.9,115.2z"/>
	<path id="XMLID_929_" class="st0" d="M207,117.8h17.2v1H207V117.8z M214.4,118.6h1c-1.7,3.1-4.2,5.6-7.7,7.5
		c-0.2-0.4-0.4-0.7-0.7-1C210,123.6,212.5,121.4,214.4,118.6z M208.1,113h15.2v1h-15.2V113z M215.1,109.9h1.1v17.6h-1.1V109.9z
		 M216.2,117.8c2.1,3.1,4.8,5.3,8.3,6.8c-0.2,0.3-0.5,0.6-0.8,1c-3.4-1.6-5.9-3.9-7.7-6.8L216.2,117.8z"/>
	<path id="XMLID_921_" class="st0" d="M243.6,113.8h7.2v1h-7.2V113.8z M250.3,113.8h1.1v1.1c-0.5,3.5-1.2,6.1-2.2,7.8
		c-1.3,1.9-2.9,3.4-4.9,4.7c-0.2-0.3-0.4-0.6-0.6-1c1.9-1.2,3.4-2.7,4.5-4.4c1.1-1.7,1.8-4.2,2.1-7.6V113.8z M246.8,109.9l1.1,0.2
		c-0.6,3.7-1.4,6.9-2.3,9.6c2.1,1.6,4.2,3.3,6.5,5.2l-0.9,1c-2.4-2.2-4.7-4.1-6.8-5.8C245.5,117.1,246.2,113.6,246.8,109.9z
		 M253.4,112h1.1v14.8h-1.1V112z M253.7,112h6.2v1.1h-6.2V112z M253.7,124.3h5.9v1h-5.9V124.3z M259.1,112.1h1.1v14.6h-1.1V112.1z"
		/>
	<path id="XMLID_914_" class="st0" d="M289.8,123.4c0,0.5,0.1,0.9,0.1,1.1c-3.3,0.7-6.3,1.3-9.3,1.9l-0.3-1.1
		C283.6,124.7,286.8,124.1,289.8,123.4z M281.8,113.5h1.1v12.2h-1.1V113.5z M285.7,110.2h1.1v14.7h-1.1V110.2z M286.3,115.5h3.7v1.1
		h-3.7V115.5z M291,109.9h1.1v14.1c0,1,0.4,1.5,1.3,1.5h1.8c0.8,0,1.2-0.5,1.4-1.4c0.1-0.8,0.2-1.8,0.3-2.9c0.4,0.2,0.7,0.4,1.1,0.5
		c-0.1,1.1-0.2,2-0.4,2.9c-0.2,1.4-0.9,2-2.2,2h-2.3c-1.4,0-2.1-0.8-2.1-2.4V109.9z M296.8,113.5l0.7,1.1c-1.4,0.9-3.4,2-6.1,3.2
		v-1.1C293.3,115.8,295.1,114.7,296.8,113.5z"/>
	<path id="XMLID_901_" class="st0" d="M323.8,121.2c0,0.5,0,0.9,0,1.1c-2,0.5-4.2,1.1-6.5,1.7l-0.2-1.1
		C319.7,122.3,321.9,121.8,323.8,121.2z M317.3,112.4h6.5v1h-6.5V112.4z M319.9,109.8l0.9,0.2c-0.8,2.9-1.6,5.5-2.4,7.9v1h-0.8v-1.1
		C318.5,115.2,319.3,112.5,319.9,109.8z M318,117.9h5.6v1H318V117.9z M320.5,114.7h1v12.9h-1V114.7z M332.1,111.1h0.9v1.1
		c-2.2,3-5.2,5.2-8.9,6.7c-0.2-0.3-0.3-0.6-0.5-0.9c3.6-1.5,6.4-3.5,8.5-6.1V111.1z M324,125.5h10.6v1H324V125.5z M325,111.1h7.5v1
		H325V111.1z M325.1,120h8.3v1h-8.3V120z M328.8,120.6h1v5.3h-1V120.6z M329.6,114.9c2.1,1.3,3.8,2.4,5.3,3.4l-0.7,0.9
		c-1.5-1.1-3.2-2.3-5.2-3.5L329.6,114.9z"/>
	<path id="XMLID_2193_" class="st0" d="M356.5,114.1l0.5,0.4c-0.7,3.2-1.6,5.9-2.9,8.2c-0.1-0.5-0.2-0.9-0.4-1.4
		C355,119,355.9,116.7,356.5,114.1z M354.2,113.6h5.9v1h-5.9V113.6z M356.6,110h1v17.4h-1V110z M357.9,116.6c0.9,1.1,1.7,2,2.3,2.9
		l-0.7,0.6c-0.9-1.1-1.6-2-2.3-2.9L357.9,116.6z M363.6,110.4l1.1,0.3c-1.1,3.1-2.3,5.6-3.8,7.6c-0.2-0.3-0.4-0.6-0.6-0.8
		C361.6,115.5,362.7,113.1,363.6,110.4z M365.2,117.7l1,0.5c-1.2,2.4-2.5,4.7-3.9,7.1c2.5-0.2,4.9-0.3,7.2-0.5v1
		c-3.1,0.2-5.5,0.4-7.1,0.6c-0.3,0-0.8,0.2-1.4,0.4l-0.6-1.4c0.7-0.4,1.2-0.9,1.5-1.5C363.3,121.6,364.4,119.5,365.2,117.7z
		 M367.6,110.2c0.6,3.1,2,5.6,4.1,7.5c-0.3,0.3-0.6,0.5-0.9,0.8c-2.2-2.3-3.5-5-4.1-8.1L367.6,110.2z M367.7,121.1
		c1.2,1.8,2.3,3.7,3.4,5.6l-1,0.6c-1-1.9-2.1-3.8-3.3-5.6L367.7,121.1z"/>
	<path id="XMLID_885_" class="st0" d="M393.5,109.9l1.1,0.4c-1.1,1.9-2.4,3.4-3.8,4.7c-0.2-0.3-0.3-0.6-0.5-0.9
		C391.5,113,392.6,111.6,393.5,109.9z M391.8,117.2h1.1v10.2h-1.1V117.2z M392.8,111.6h6.5v0.9h-6.5V111.6z M393.5,114.5
		c0.6,0.6,1.3,1.1,2,1.7l-0.7,0.8c-0.6-0.6-1.2-1.2-1.9-1.8L393.5,114.5z M395.3,112.9c0.4,0.5,0.9,1,1.4,1.6l-0.9,0.6
		c-0.5-0.7-1-1.2-1.4-1.7L395.3,112.9z M395.6,118.3h1v6.5h-1V118.3z M395.9,121.1h6.8v0.8h-6.8V121.1z M396.1,118.3h6.5v0.8h-6.5
		V118.3z M396.2,124h6.5v0.8h-6.5V124z M396.8,115.4H407v0.9h-10.2V115.4z M401.9,109.9l1,0.3c-1.1,1.9-2.2,3.4-3.5,4.7
		c-0.2-0.2-0.4-0.5-0.7-0.8C400.1,112.7,401.1,111.3,401.9,109.9z M401,111.6h7v0.9h-7V111.6z M402.1,118.3h1v6.5h-1V118.3z
		 M405.9,115.8h1.1v9.6c0,1.3-0.7,2-2,2c-0.7,0-1.5,0-2.3,0c-0.1-0.4-0.2-0.8-0.3-1.1c1,0,1.8,0.1,2.6,0.1c0.6,0,0.9-0.3,0.9-1
		V115.8z M403.9,113c0.7,0.6,1.4,1.1,2,1.6l-0.8,0.7c-0.6-0.6-1.3-1.1-2-1.7L403.9,113z"/>
	<path id="XMLID_870_" class="st0" d="M427.3,122.9h17.6v1h-17.6V122.9z M429.1,112.8h1.1v7.7h-1.1V112.8z M429.9,112.7h12.3v1.1
		h-12.3V112.7z M429.9,116.1h12.4v1.1h-12.4V116.1z M429.9,119.6h12.3v1h-12.3V119.6z M431.8,109.7c0.8,0.7,1.5,1.3,2.1,2l-1,0.8
		c-0.6-0.7-1.3-1.4-2-2.1L431.8,109.7z M435.5,113.3h1.1v14.2h-1.1V113.3z M440.1,109.7l1.1,0.5c-1,1.1-1.9,2.2-2.7,3.2l-1-0.5
		C438.4,111.9,439.3,110.9,440.1,109.7z M441.9,112.8h1.1v7.7h-1.1V112.8z"/>
</g>
</svg>
