<?xml version="1.0" encoding="UTF-8"?>
<svg width="422px" height="350px" viewBox="0 0 422 350" version="1.1" xmlns="http://www.w3.org/2000/svg" xmlns:xlink="http://www.w3.org/1999/xlink">
    <!-- Generator: Sketch 48.1 (47250) - http://www.bohemiancoding.com/sketch -->
    <title>vlogit02-1</title>
    <desc>Created with Sketch.</desc>
    <defs></defs>
    <g id="red-vertical" stroke="none" stroke-width="1" fill="none" fill-rule="evenodd" transform="translate(-208.000000, -164.000000)">
        <g id="vlogit02-1" transform="translate(208.000000, 164.000000)">
            <g id="Group-3" transform="translate(137.000000, 0.000000)">
                <rect id="Rectangle-9" fill="#F4F4F4" x="0" y="0" width="149" height="149" rx="30"></rect>
                <g id="Group-2" transform="translate(33.000000, 17.000000)" fill="#FF0000">
                    <path d="M0.0953835227,27.4741509 L21.9891619,49.3311426 C24.5362642,51.8770545 24.9274574,55.7499266 23.1769886,58.7131656 L23.3559233,58.89326 L54.8262074,27.4722222 L27.460554,0.152610063 L0.0953835227,27.4741509" id="Fill-1"></path>
                    <polyline id="Fill-2" points="57.6130966 30.255608 57.513608 30.255608 54.5687926 33.1964256 60.556946 33.1964256 57.6130966 30.255608"></polyline>
                    <polyline id="Fill-3" points="57.5633585 30.2059434 57.513608 30.2554352 57.6126284 30.2554352 57.5633585 30.2059434"></polyline>
                    <polyline id="Fill-4" points="66.6745313 39.303239 63.7301989 36.3619392 51.3979545 36.3619392 45.5066335 42.2428512 69.6195881 42.2428512 66.6745313 39.303239"></polyline>
                    <polyline id="Fill-5" points="75.7366903 48.3494235 72.7916335 45.4095702 42.3357955 45.4095702 36.4447159 51.2892767 78.6810227 51.2892767 75.7366903 48.3494235"></polyline>
                    <polyline id="Fill-6" points="84.7966761 57.3968134 81.8523437 54.456478 33.2743608 54.456478 30.3295455 57.3968134 27.3830398 60.3364256 82.115071 60.3364256 84.9277983 57.5270021 84.7966761 57.3968134"></polyline>
                    <polyline id="Fill-7" points="24.2119602 63.5019392 18.3220881 69.3842977 73.0529119 69.3842977 78.944233 63.5019392 24.2119602 63.5019392"></polyline>
                    <polyline id="Fill-8" points="15.150767 72.5495702 9.26017045 78.4307233 63.9909943 78.4307233 69.8818324 72.5495702 15.150767 72.5495702"></polyline>
                    <polyline id="Fill-9" points="6.08933239 81.5959958 3.14258523 84.5368134 0.198011364 87.477631 54.9290767 87.477631 57.8758239 84.5368134 60.8201562 81.5959958 6.08933239 81.5959958"></polyline>
                    <polyline id="Fill-10" points="3.16286932 90.6443501 6.1072017 93.5844444 9.05394886 96.5240566 45.8693324 96.5240566 51.7587216 90.6443501 3.16286932 90.6443501"></polyline>
                    <polyline id="Fill-11" points="12.224304 99.6900524 15.1686364 102.631593 18.1141761 105.571929 36.8064489 105.571929 39.7517472 102.631593 42.6965625 99.6900524 12.224304 99.6900524"></polyline>
                    <polyline id="Fill-12" points="21.2845313 108.737442 23.4085653 110.856143 24.2298295 111.677537 26.4417614 113.883512 27.1765767 114.618354 27.460554 114.903564 27.7467045 114.618354 28.480071 113.883512 30.6907955 111.677537 31.5127841 110.856143 33.6356108 108.737442 21.2845313 108.737442"></polyline>
                </g>
            </g>
            <path d="M95.7018187,221.236912 L67.2150363,221.236912 L48.1951605,276.40349 L29.3474102,221.236912 L0,221.236912 L32.7038589,305.796933 L63.4282737,305.796933 L95.7018187,221.236912 Z M125.61963,181.672131 L98.6819781,181.672131 L98.6819781,305.796933 L125.61963,305.796933 L125.61963,181.672131 Z M174.169774,218.909572 C200.591049,218.909572 220.041239,237.873083 220.041239,263.473823 C220.041239,289.074564 200.591049,308.038075 174.169774,308.038075 C147.834561,308.038075 128.384371,289.074564 128.384371,263.473823 C128.384371,237.873083 147.834561,218.909572 174.169774,218.909572 Z M175.170503,244.079323 C164.670843,244.079323 156.925193,252.095717 156.925193,263.473823 C156.925193,274.85193 164.670843,282.868324 175.170503,282.868324 C185.756226,282.868324 193.501877,274.85193 193.501877,263.473823 C193.501877,252.095717 185.756226,244.079323 175.170503,244.079323 Z M262.578986,218.909572 C273.681085,218.909572 281.168548,223.478054 286.160189,230.029085 L286.160189,221.236912 L312.237214,221.236912 L312.237214,297.694342 C312.237214,325.450026 294.077966,342 266.451811,342 C252.337514,342 237.965029,338.379693 227.895683,331.225278 L237.448652,309.762031 C245.71068,315.62348 254.575147,318.381809 264.55843,318.381809 C275.488404,318.381809 285.815938,312.347964 285.815938,298.901111 L285.815938,293.643046 C280.824297,300.021682 273.422897,304.331571 262.578986,304.331571 C239.944473,304.331571 223.420418,285.626653 223.420418,261.66367 C223.420418,237.700687 239.944473,218.909572 262.578986,218.909572 Z M269.948362,243.562136 C259.448702,243.562136 252.219428,251.319937 252.219428,261.66367 C252.219428,271.921206 259.448702,279.765204 269.948362,279.765204 C280.103771,279.765204 287.160919,272.093601 287.160919,261.66367 C287.160919,251.233739 280.103771,243.562136 269.948362,243.562136 Z M343.412672,221.236912 L316.47502,221.236912 L316.47502,305.796933 L343.412672,305.796933 L343.412672,221.236912 Z M329.814752,179 C338.851345,179 345.908493,186.068218 345.908493,195.205182 C345.908493,204.255949 338.851345,211.237969 329.814752,211.237969 C320.692097,211.237969 313.721011,204.255949 313.721011,195.205182 C313.721011,186.068218 320.692097,179 329.814752,179 Z M414.942851,221.236912 L414.942851,245.113696 L386.111818,245.113696 L386.111818,269.852459 C386.111818,279.592808 391.275585,282.868324 398.074545,282.868324 C403.066187,282.868324 408.488143,280.109995 412.705219,277.610259 L422,298.642517 C414.082224,304.159175 405.648071,308.038075 392.05015,308.038075 C369.415637,308.038075 359.174166,294.505024 359.174166,273.30037 L359.174166,245.113696 L343.424676,245.113696 L343.424676,221.236912 L359.174166,221.236912 L359.174166,196.584347 L386.111818,196.584347 L386.111818,221.236912 L414.942851,221.236912 Z" id="vlogit" fill="#FFFFFF"></path>
            <text id="by-filmora" font-family="MarkPro-Heavy, Mark Pro" font-size="35" font-weight="600" letter-spacing="-1.20000005" fill="#FFFFFF">
                <tspan x="59.2425002" y="342">by filmor</tspan>
                <tspan x="195.6175" y="342">a</tspan>
            </text>
        </g>
    </g>
</svg>