<?xml version="1.0" encoding="utf-8"?>
<!-- Generator: Adobe Illustrator 19.0.0, SVG Export Plug-In . SVG Version: 6.00 Build 0)  -->
<svg version="1.1" id="图层_1" xmlns="http://www.w3.org/2000/svg" xmlns:xlink="http://www.w3.org/1999/xlink" x="0px" y="0px"
	 viewBox="-330 511 418 60" style="enable-background:new -330 511 418 60;" xml:space="preserve">
<style type="text/css">
	.st0{fill:#EF3062;}
	.st1{fill:#FFFFFF;}
</style>
<title>filmora_screen_brand_For Dark Background</title>
<desc>Created with Sketch.</desc>
<path id="Fill-1" class="st0" d="M88,522.8c0,2.4-2,4.4-4.6,4.4c-2.5,0-4.6-2-4.6-4.4c0-2.4,2-4.4,4.6-4.4
	C85.9,518.4,88,520.4,88,522.8"/>
<polyline id="Fill-2" class="st0" points="-300,526.6 -300.1,526.6 -301.6,528.1 -298.5,528.1 -300,526.6 "/>
<polyline id="Fill-4" class="st0" points="-295.3,531.3 -296.9,529.8 -303.2,529.8 -304.8,531.3 -306.3,532.8 -293.8,532.8 
	-295.3,531.3 "/>
<polyline id="Fill-5" class="st0" points="-290.7,536 -292.2,534.5 -307.9,534.5 -309.4,536 -311,537.5 -289.1,537.5 -290.7,536 "/>
<polyline id="Fill-6" class="st0" points="-286,540.7 -287.5,539.1 -312.6,539.1 -314.1,540.7 -315.6,542.2 -287.4,542.2 
	-285.9,540.7 -286,540.7 "/>
<polyline id="Fill-7" class="st0" points="-317.3,543.8 -318.8,545.3 -320.3,546.9 -292.1,546.9 -290.5,545.3 -289,543.8 
	-317.3,543.8 "/>
<polyline id="Fill-8" class="st0" points="-322,548.5 -325,551.5 -296.7,551.5 -295.2,550 -293.7,548.5 -322,548.5 "/>
<polyline id="Fill-9" class="st0" points="-326.6,553.2 -328.2,554.7 -329.7,556.2 -301.4,556.2 -299.9,554.7 -298.4,553.2 
	-326.6,553.2 "/>
<polyline id="Fill-10" class="st0" points="-328.2,557.9 -326.6,559.4 -325.1,560.9 -306.1,560.9 -304.6,559.4 -303.1,557.9 
	-328.2,557.9 "/>
<polyline id="Fill-11" class="st0" points="-323.5,562.5 -321.9,564.1 -320.4,565.6 -310.8,565.6 -309.2,564.1 -307.7,562.5 
	-323.5,562.5 "/>
<polyline id="Fill-12" class="st0" points="-318.8,567.2 -317.7,568.3 -317.3,568.8 -316.1,569.9 -315.8,570.3 -315.6,570.4 
	-315.5,570.3 -315.1,569.9 -313.9,568.8 -313.5,568.3 -312.4,567.2 -318.8,567.2 "/>
<path id="Fill-13" class="st1" d="M-245.7,525.1c-1-0.3-2.1-0.4-3.2-0.4c-2.1,0-4.2,0.3-4.2,4v3.3h7.4v8.5h-7.4v23.1h-10v-23.1h-5.7
	V532h5.7v-2.8c0-11.4,7-12.3,11.5-12.3c2-0.1,4,0.2,5.9,0.9L-245.7,525.1"/>
<path id="Fill-14" class="st1" d="M-242.2,563.6h10V532h-10V563.6z M-237.3,516.4c3.2,0,5.7,2.6,5.7,5.8c0,3.2-2.6,5.7-5.8,5.7
	c-3.2,0-5.7-2.6-5.7-5.8C-243.1,519-240.5,516.4-237.3,516.4C-237.3,516.4-237.3,516.4-237.3,516.4L-237.3,516.4z"/>
<polygon id="Fill-15" class="st1" points="-228.1,563.6 -218,563.6 -218,517.8 -228.1,517.8 "/>
<path id="Fill-16" class="st1" d="M-174.7,563.6v-17c0-4.3-1.4-6.8-4.9-6.8c-3,0-5.3,1.9-5.3,8v15.9h-9.7v-17.1
	c0-4.3-1.4-6.8-4.8-6.8c-3,0-5.4,2-5.4,8.2v15.6h-9.7V532h9.7v4.6c1.4-2.8,4.3-5.4,9.4-5.4c4.7,0,7.9,2.2,9.3,5.7
	c1.6-3,4.7-5.7,10.3-5.7c8.8,0,10.7,6.6,10.7,12.9v19.5H-174.7"/>
<path id="Fill-17" class="st1" d="M-137.3,547.8c0-4.4-3-8.1-7.6-8.1s-7.5,3.7-7.5,8.1c0,4.4,3,8.1,7.5,8.1
	S-137.3,552.3-137.3,547.8z M-162.4,547.8c0-9,6.6-16.6,17.6-16.6c10.9,0,17.5,7.6,17.5,16.6c0,9-6.5,16.6-17.5,16.6
	C-155.8,564.5-162.4,556.8-162.4,547.8L-162.4,547.8z"/>
<path id="Fill-18" class="st1" d="M-101.9,541.2c-1.1-0.3-2.2-0.4-3.3-0.5c-5.6,0-9.2,2.8-9.2,10.6v12.3h-10V532h10v5.1
	c2-3.5,5.7-5.7,9.8-5.6c1,0,2,0.1,2.9,0.5L-101.9,541.2"/>
<path id="Fill-19" class="st1" d="M-76.2,547.8c0-4.3-3-8.1-7.5-8.1c-4.5,0-7.5,3.7-7.5,8.1c0,4.3,3,8.1,7.5,8.1
	C-79.2,555.9-76.2,552.2-76.2,547.8L-76.2,547.8z M-66.1,532v31.6h-10v-4.5c-1.6,2.9-5.3,5.3-10.1,5.3c-8.4,0-14.9-7.2-14.9-16.6
	c0-9.4,6.5-16.6,14.9-16.6c4.7,0,8.4,2.2,10.1,5.3V532H-66.1L-66.1,532z"/>
<path id="Fill-20" class="st1" d="M-329.7,525.2l11.3,11.3c1.3,1.3,1.5,3.3,0.6,4.8l0.1,0.1l16.2-16.2l-14.1-14.1L-329.7,525.2"/>
<path id="Fill-29" class="st0" d="M-51.6,553.1h9.9c0,1.4,0.5,2.4,1.4,3.1c0.9,0.6,2.2,0.9,3.6,0.9c1.2,0,2.2-0.2,3-0.6
	c0.8-0.4,1.2-1.1,1.2-2c0-0.5-0.2-1-0.5-1.3c-0.3-0.3-0.8-0.7-1.5-0.9c-0.7-0.3-1.6-0.6-2.6-0.9c-1.1-0.3-2.4-0.7-3.9-1.2
	c-1.4-0.4-2.6-0.9-3.8-1.3c-1.2-0.5-2.2-1-3.1-1.7c-0.9-0.7-1.6-1.5-2.1-2.5c-0.5-1-0.8-2.2-0.8-3.7c0-1.7,0.3-3.1,1-4.3
	c0.7-1.2,1.6-2.2,2.8-3c1.2-0.8,2.6-1.4,4.3-1.8c1.7-0.4,3.5-0.6,5.5-0.6c2.5,0,4.6,0.3,6.4,0.8c1.8,0.6,3.2,1.3,4.4,2.3
	c1.1,1,2,2.1,2.5,3.4c0.5,1.3,0.8,2.7,0.8,4.2H-33c0-1.3-0.3-2.3-1-3.1c-0.7-0.7-1.7-1.1-3.1-1.1c-1.1,0-2,0.2-2.7,0.7
	c-0.8,0.5-1.1,1.2-1.1,2.1c0,0.6,0.2,1.1,0.5,1.5c0.4,0.4,0.9,0.7,1.6,1c0.7,0.3,1.5,0.6,2.5,0.9c1,0.3,2.2,0.7,3.5,1.1
	c1.4,0.4,2.7,0.8,4,1.2c1.2,0.4,2.3,1,3.2,1.6c0.9,0.6,1.7,1.4,2.2,2.4c0.5,1,0.8,2.2,0.8,3.7c0,1.9-0.4,3.6-1.2,5
	c-0.8,1.4-1.8,2.5-3.1,3.3c-1.3,0.9-2.8,1.5-4.5,1.8c-1.7,0.4-3.5,0.6-5.4,0.6c-4.7,0-8.3-1-10.9-2.9
	C-50.3,559.7-51.6,556.8-51.6,553.1"/>
<path id="Fill-30" class="st0" d="M-20.7,547.9c0-2.2,0.4-4.3,1.1-6.3c0.7-2,1.8-3.8,3.2-5.3c1.4-1.5,3.2-2.8,5.4-3.7
	c2.2-0.9,4.7-1.4,7.5-1.4c2.6,0,4.9,0.4,6.9,1.1c2,0.8,3.6,1.8,4.9,3c1.3,1.3,2.4,2.7,3.1,4.3c0.7,1.6,1.2,3.2,1.3,4.9H2.7
	C2.6,543.1,2,542,1,541.1c-1-0.9-2.4-1.4-4.3-1.4c-1.3,0-2.4,0.2-3.3,0.7c-0.9,0.4-1.7,1-2.3,1.8c-0.6,0.7-1,1.6-1.3,2.6
	c-0.3,1-0.4,2-0.4,3.1c0,1.1,0.1,2.1,0.4,3.1c0.3,1,0.7,1.9,1.3,2.6c0.6,0.7,1.4,1.3,2.3,1.8c1,0.4,2.1,0.7,3.4,0.7
	c1.7,0,3-0.4,3.9-1.1c0.9-0.7,1.5-1.8,2-3.1h10.1c-0.2,1.8-0.7,3.5-1.5,5c-0.8,1.5-1.9,2.9-3.3,4.1c-1.4,1.2-3,2.1-4.9,2.7
	s-4.1,1-6.5,1c-2.9,0-5.4-0.5-7.5-1.4c-2.2-0.9-4-2.2-5.4-3.7c-1.4-1.5-2.5-3.3-3.2-5.3C-20.3,552.2-20.7,550.1-20.7,547.9"/>
<path id="Fill-31" class="st0" d="M15.3,563.7V532h10.1v5.1c0.8-1.5,2-2.8,3.7-4c1.7-1.1,3.8-1.7,6.1-1.7c1.1,0,2.1,0.2,2.9,0.5v9.2
	c-0.7-0.2-1.3-0.3-1.8-0.4c-0.5-0.1-1-0.1-1.7-0.1c-2.9,0-5.1,0.8-6.8,2.4c-1.7,1.6-2.5,4.4-2.5,8.3v12.4H15.3"/>
<path id="Fill-32" class="st0" d="M40.7,563.7V532h10.1v4.6c0.9-1.7,2.2-3,4-4c1.8-0.9,4-1.4,6.5-1.4c2.2,0,4,0.3,5.4,1
	c1.4,0.7,2.6,1.6,3.4,2.6c1,1.2,1.7,2.6,2,4.2c0.3,1.6,0.5,3.5,0.5,5.8v18.8H62.5v-16.3c0-2.2-0.4-4.1-1.2-5.5
	c-0.8-1.4-2.3-2.2-4.3-2.2c-2.1,0-3.7,0.7-4.7,2.2c-1,1.4-1.5,3.4-1.5,5.8v15.9H40.7"/>
</svg>
