<?xml version="1.0" encoding="UTF-8"?>
<svg width="585px" height="171px" viewBox="0 0 585 171" version="1.1" xmlns="http://www.w3.org/2000/svg" xmlns:xlink="http://www.w3.org/1999/xlink">
    <!-- Generator: Sketch 48.1 (47250) - http://www.bohemiancoding.com/sketch -->
    <title>vlogit01-1</title>
    <desc>Created with Sketch.</desc>
    <defs></defs>
    <g id="red-horizontal" stroke="none" stroke-width="1" fill="none" fill-rule="evenodd" transform="translate(-117.000000, -104.000000)">
        <g id="vlogit01-1" transform="translate(117.000000, 104.000000)">
            <g id="Group" transform="translate(0.000000, 8.000000)">
                <rect id="Rectangle-9" fill="#F4F4F4" x="0" y="0" width="149" height="149" rx="30"></rect>
                <g id="Group-2" transform="translate(33.000000, 17.000000)" fill="#FF0000">
                    <path d="M0,27.4421702 L22.001456,49.3956642 C24.5610854,51.9528168 24.9542025,55.8427883 23.1951246,58.8191105 L23.3749393,59 L55,27.440233 L27.4997573,0 L0,27.4421702" id="Fill-1"></path>
                    <polyline id="Fill-2" points="58.0503266 30 57.9506412 30 55 33 61 33 58.0503266 30"></polyline>
                    <polyline id="Fill-3" points="58.0497506 30 58 30.0494918 58.0990205 30.0494918 58.0497506 30"></polyline>
                    <polyline id="Fill-4" points="67.068739 39.0008609 64.138199 36 51.8637238 36 46 42 70 42 67.068739 39.0008609"></polyline>
                    <polyline id="Fill-5" points="75.0721408 48 72.1435612 45 41.8581197 45 36 51 78 51 75.0721408 48"></polyline>
                    <polyline id="Fill-6" points="84.8678405 57.000369 81.9002153 54 32.9379278 54 29.9698157 57.000369 27 60 82.165021 60 85 57.1332158 84.8678405 57.000369"></polyline>
                    <polyline id="Fill-7" points="23.9265835 64 18 70 73.0719586 70 79 64 23.9265835 64"></polyline>
                    <polyline id="Fill-8" points="14.9273596 73 9 79 64.0723974 79 70 73 14.9273596 73"></polyline>
                    <polyline id="Fill-9" points="5.92804136 82 2.96292726 85 0 88 55.0722016 88 58.0373157 85 61 82 5.92804136 82"></polyline>
                    <polyline id="Fill-10" points="3 91 5.96881895 94.000246 8.94007275 97 46.0616317 97 52 91 3 91"></polyline>
                    <polyline id="Fill-11" points="12 100 14.8987012 103.000615 17.798591 106 36.2011712 106 39.1008234 103.000615 42 100 12 100"></polyline>
                    <polyline id="Fill-12" points="21 109 23.0636584 111.06162 23.8615782 111.860885 26.0106358 114.007429 26.724564 114.722474 27.0004692 115 27.278486 114.722474 27.9910065 114.007429 30.1388911 111.860885 30.9375147 111.06162 33 109 21 109"></polyline>
                </g>
            </g>
            <path d="M258.701819,42.2369117 L230.215036,42.2369117 L211.19516,97.4034902 L192.34741,42.2369117 L163,42.2369117 L195.703859,126.796933 L226.428274,126.796933 L258.701819,42.2369117 Z M288.61963,2.67213115 L261.681978,2.67213115 L261.681978,126.796933 L288.61963,126.796933 L288.61963,2.67213115 Z M337.169774,39.9095717 C363.591049,39.9095717 383.041239,58.873083 383.041239,84.4738234 C383.041239,110.074564 363.591049,129.038075 337.169774,129.038075 C310.834561,129.038075 291.384371,110.074564 291.384371,84.4738234 C291.384371,58.873083 310.834561,39.9095717 337.169774,39.9095717 Z M338.170503,65.0793231 C327.670843,65.0793231 319.925193,73.0957166 319.925193,84.4738234 C319.925193,95.8519302 327.670843,103.868324 338.170503,103.868324 C348.756226,103.868324 356.501877,95.8519302 356.501877,84.4738234 C356.501877,73.0957166 348.756226,65.0793231 338.170503,65.0793231 Z M425.578986,39.9095717 C436.681085,39.9095717 444.168548,44.4780539 449.160189,51.0290851 L449.160189,42.2369117 L475.237214,42.2369117 L475.237214,118.694342 C475.237214,146.450026 457.077966,163 429.451811,163 C415.337514,163 400.965029,159.379693 390.895683,152.225278 L400.448652,130.762031 C408.71068,136.62348 417.575147,139.381809 427.55843,139.381809 C438.488404,139.381809 448.815938,133.347964 448.815938,119.901111 L448.815938,114.643046 C443.824297,121.021682 436.422897,125.331571 425.578986,125.331571 C402.944473,125.331571 386.420418,106.626653 386.420418,82.66367 C386.420418,58.7006875 402.944473,39.9095717 425.578986,39.9095717 Z M432.948362,64.5621364 C422.448702,64.5621364 415.219428,72.3199365 415.219428,82.66367 C415.219428,92.9212057 422.448702,100.765204 432.948362,100.765204 C443.103771,100.765204 450.160919,93.0936013 450.160919,82.66367 C450.160919,72.2337388 443.103771,64.5621364 432.948362,64.5621364 Z M506.412672,42.2369117 L479.47502,42.2369117 L479.47502,126.796933 L506.412672,126.796933 L506.412672,42.2369117 Z M492.814752,0 C501.851345,0 508.908493,7.06821787 508.908493,16.2051824 C508.908493,25.2559492 501.851345,32.2379693 492.814752,32.2379693 C483.692097,32.2379693 476.721011,25.2559492 476.721011,16.2051824 C476.721011,7.06821787 483.692097,0 492.814752,0 Z M577.942851,42.2369117 L577.942851,66.1136965 L549.111818,66.1136965 L549.111818,90.852459 C549.111818,100.592808 554.275585,103.868324 561.074545,103.868324 C566.066187,103.868324 571.488143,101.109995 575.705219,98.6102591 L585,119.642517 C577.082224,125.159175 568.648071,129.038075 555.05015,129.038075 C532.415637,129.038075 522.174166,115.505024 522.174166,94.3003702 L522.174166,66.1136965 L506.424676,66.1136965 L506.424676,42.2369117 L522.174166,42.2369117 L522.174166,17.5843469 L549.111818,17.5843469 L549.111818,42.2369117 L577.942851,42.2369117 Z" id="vlogit" fill="#FFFFFF"></path>
            <text id="by-filmora" font-family="MarkPro-Heavy, Mark Pro" font-size="35" font-weight="600" letter-spacing="-1.20000005" fill="#FFFFFF">
                <tspan x="222.2425" y="163">by filmor</tspan>
                <tspan x="358.6175" y="163">a</tspan>
            </text>
        </g>
    </g>
</svg>