<svg xmlns="http://www.w3.org/2000/svg" viewBox="0 0 236.58 55"><defs><style>.cls-1{fill:#313c48;}.cls-2{fill:#323c48;}.cls-3{fill:#61ded0;}</style></defs><title>Asset 1</title><g id="Layer_2" data-name="Layer 2"><g id="Layer_1-2" data-name="Layer 1"><path class="cls-1" d="M75.69,13.19a10.11,10.11,0,0,0-2.88-.36c-1.87,0-3.75.29-3.75,3.58v3h6.64V27H69.11v20.7h-9V27H55V19.41h5.11V16.94c0-10.2,6.29-11,10.28-11a14.09,14.09,0,0,1,5.3.77Z"/><path class="cls-1" d="M83.2,5.4A5.17,5.17,0,1,1,78,10.58,5.17,5.17,0,0,1,83.2,5.4Zm-4.43,14h9V47.73h-9Z"/><path class="cls-1" d="M91.46,6.61h9V47.73h-9Z"/><path class="cls-1" d="M139.28,47.73V32.46c0-3.82-1.29-6.12-4.35-6.12-2.7,0-4.76,1.7-4.76,7.17V47.73h-8.7V32.4c0-3.82-1.23-6.06-4.29-6.06-2.7,0-4.82,1.77-4.82,7.35v14h-8.69V19.41h8.69v4.11c1.24-2.52,3.89-4.82,8.4-4.82,4.24,0,7.11,2,8.35,5.12,1.4-2.7,4.17-5.12,9.22-5.12,7.88,0,9.58,5.89,9.58,11.58V47.73Z"/><path class="cls-1" d="M150.28,33.57c0-8.1,5.93-14.91,15.74-14.91s15.68,6.81,15.68,14.91S175.83,48.48,166,48.48,150.28,41.68,150.28,33.57Zm22.5,0c0-3.94-2.7-7.23-6.81-7.23s-6.7,3.29-6.7,7.23,2.66,7.23,6.7,7.23S172.78,37.56,172.78,33.57Z"/><path class="cls-1" d="M204.5,27.58a12,12,0,0,0-3-.41c-5.05,0-8.29,2.53-8.29,9.51V47.73h-9V19.41h9V24a9.85,9.85,0,0,1,8.76-5,6.28,6.28,0,0,1,2.58.47Z"/><path class="cls-1" d="M236.58,19.41V47.73h-9v-4c-1.41,2.59-4.71,4.71-9.05,4.71-7.52,0-13.39-6.41-13.39-14.87S211,18.7,218.54,18.7c4.17,0,7.52,2,9.05,4.77V19.41Zm-9,14.16c0-3.87-2.7-7.23-6.76-7.23s-6.76,3.36-6.76,7.23,2.7,7.23,6.76,7.23S227.59,37.51,227.59,33.57Z"/><path class="cls-2" d="M0,13.1,10.48,23.57a3.72,3.72,0,0,1,.57,4.5l.08.09,2-2L26.19,13.1,13.1,0Z"/><polygon class="cls-3" points="27.52 14.43 27.47 14.43 26.06 15.84 28.93 15.84 27.52 14.43"/><polygon class="cls-3" points="27.5 14.4 27.47 14.43 27.52 14.43 27.5 14.4"/><polygon class="cls-3" points="31.86 18.76 30.45 17.35 24.55 17.35 23.14 18.76 21.73 20.18 33.27 20.18 31.86 18.76"/><polygon class="cls-3" points="36.19 23.1 34.79 21.7 20.21 21.7 18.8 23.1 17.39 24.51 37.6 24.51 36.19 23.1"/><polygon class="cls-3" points="40.53 27.44 39.12 26.03 15.88 26.03 14.46 27.44 13.06 28.85 39.25 28.85 40.59 27.5 40.53 27.44"/><polygon class="cls-3" points="11.54 30.37 10.13 31.78 8.72 33.19 34.91 33.19 36.32 31.78 37.73 30.37 11.54 30.37"/><polygon class="cls-3" points="7.2 34.71 5.79 36.11 4.38 37.52 30.57 37.52 31.98 36.11 33.39 34.71 7.2 34.71"/><polygon class="cls-3" points="2.87 39.04 1.46 40.45 0.05 41.85 26.24 41.85 27.65 40.45 29.06 39.04 2.87 39.04"/><polygon class="cls-3" points="1.46 43.38 2.88 44.78 4.29 46.2 21.9 46.2 23.31 44.78 24.72 43.38 1.46 43.38"/><polygon class="cls-3" points="5.8 47.7 7.21 49.12 8.62 50.53 17.57 50.53 18.98 49.12 20.38 47.7 5.8 47.7"/><polygon class="cls-3" points="10.14 52.04 11.15 53.06 11.55 53.46 12.61 54.52 12.95 54.86 13.1 55 13.23 54.86 13.58 54.52 14.64 53.46 15.03 53.06 16.05 52.04 10.14 52.04"/></g></g></svg>