<?xml version="1.0" encoding="UTF-8" standalone="no"?>
<svg width="146px" height="21px" viewBox="0 0 146 21" version="1.1" xmlns="http://www.w3.org/2000/svg" xmlns:xlink="http://www.w3.org/1999/xlink">
    <!-- Generator: Sketch 40.3 (33839) - http://www.bohemiancoding.com/sketch -->
    <title>Wondershare_logo_RGB_light</title>
    <desc>Created with Sketch.</desc>
    <defs>
        <polygon id="path-1" points="42.0821856 20.551104 0 20.551104 0 10.3653648 0 0.1796256 42.0821856 0.1796256 42.0821856 20.551104"></polygon>
    </defs>
    <g id="Symbols" stroke="none" stroke-width="1" fill="none" fill-rule="evenodd">
        <g id="Footer/Desktop_Tobee-Copy-5" transform="translate(-606.000000, -284.000000)">
            <g id="Group-4" transform="translate(606.500000, 279.469891)">
                <g id="Wondershare_logo_RGB_light" transform="translate(0.000000, 5.021086)">
                    <g id="Group-5">
                        <mask id="mask-2" fill="white">
                            <use xlink:href="#path-1"></use>
                        </mask>
                        <g id="Clip-2"></g>
                        <path d="M21.0411936,0.1796256 L15.7806432,5.440176 C15.1681824,6.0526368 14.2355808,6.1463808 13.5227232,5.7256416 L13.4797824,5.7685824 L28.2737952,20.5632 L33.5343456,15.3028512 C34.2605088,14.5762848 34.2605088,13.3989408 33.5343456,12.672576 L21.0411936,0.1796256" id="Fill-1" fill="#E4DFD9" mask="url(#mask-2)"></path>
                        <path d="M35.5068,0.1796256 L30.2464512,5.440176 C29.6339904,6.0526368 28.7013888,6.146784 27.9883296,5.7256416 L27.9451872,5.7685824 L35.5070016,13.3303968 L42.0821856,6.7548096 L35.5068,0.1796256" id="Fill-3" fill="#E4DFD9" mask="url(#mask-2)"></path>
                        <path d="M6.5753856,0.1796256 L0,6.7548096 L13.808592,20.5632 L19.0685376,15.3028512 C19.7949024,14.5762848 19.7949024,13.3989408 19.0685376,12.672576 L6.5753856,0.1796256" id="Fill-4" fill="#E4DFD9" mask="url(#mask-2)"></path>
                    </g>
                    <polyline id="Fill-6" fill="#E4DFD9" points="55.1398176 8.8197984 52.9883424 14.9067072 51.7106016 14.9067072 48.5446752 6.7548096 50.5911168 6.7548096 52.3581408 11.9153664 54.1953216 6.7548096 56.0667744 6.7548096 57.9041568 11.9153664 59.670576 6.7548096 61.7172192 6.7548096 58.5508896 14.9067072 57.2739552 14.9067072 55.1398176 8.8197984"></polyline>
                    <path d="M68.3839296,10.83096 C68.3839296,9.431856 67.4394336,8.2416096 65.9689632,8.2416096 C64.5345792,8.2416096 63.5900832,9.431856 63.5900832,10.83096 C63.5900832,12.2302656 64.5345792,13.4207136 65.9689632,13.4207136 C67.4394336,13.4207136 68.3839296,12.2302656 68.3839296,10.83096 L68.3839296,10.83096 Z M61.6829472,10.83096 C61.6829472,8.5200192 63.3808224,6.5453472 65.9689632,6.5453472 C68.593392,6.5453472 70.290864,8.5200192 70.290864,10.83096 C70.290864,13.1398848 68.593392,15.1181856 65.9689632,15.1181856 C63.3808224,15.1181856 61.6829472,13.1398848 61.6829472,10.83096 L61.6829472,10.83096 Z" id="Fill-7" fill="#E4DFD9"></path>
                    <path d="M71.5335264,6.7548096 L73.4394528,6.7548096 L73.4394528,7.893648 C73.9474848,7.0170912 74.8921824,6.5453472 76.0983552,6.5453472 C77.272272,6.5453472 78.0935904,6.9650784 78.5484,7.6470912 C78.9503904,8.2581408 79.0729632,8.9403552 79.0729632,10.0610496 L79.0729632,14.9067072 L77.1670368,14.9067072 L77.1670368,10.6916544 C77.1670368,9.2915424 76.7638368,8.2238688 75.3986016,8.2238688 C74.0700576,8.2238688 73.4394528,9.2915424 73.4394528,10.6916544 L73.4394528,14.9067072 L71.5335264,14.9067072 L71.5335264,6.7548096" id="Fill-8" fill="#E4DFD9"></path>
                    <path d="M87.05088,10.83096 C87.05088,9.431856 86.1069888,8.2416096 84.6365184,8.2416096 C83.2021344,8.2416096 82.2570336,9.431856 82.2570336,10.83096 C82.2570336,12.2302656 83.2021344,13.4207136 84.6365184,13.4207136 C86.1069888,13.4207136 87.05088,12.2302656 87.05088,10.83096 L87.05088,10.83096 Z M87.05088,13.8049632 C86.5436544,14.6266848 85.4761824,15.1181856 84.531888,15.1181856 C82.0477728,15.1181856 80.3503008,13.1398848 80.3503008,10.83096 C80.3503008,8.5200192 82.0477728,6.5453472 84.531888,6.5453472 C85.4761824,6.5453472 86.5436544,7.0340256 87.05088,7.8565536 L87.05088,2.6603136 L88.9568064,2.6603136 L88.9568064,14.9067072 L87.05088,14.9067072 L87.05088,13.8049632 L87.05088,13.8049632 Z" id="Fill-9" fill="#E4DFD9"></path>
                    <path d="M92.1940992,9.9925056 L96.1841664,9.9925056 C96.1841664,8.853264 95.3610336,8.136576 94.2070752,8.136576 C93.0865824,8.136576 92.1940992,8.783712 92.1940992,9.9925056 L92.1940992,9.9925056 Z M92.1767616,11.4081408 C92.1940992,12.5800416 92.7720864,13.5237312 94.3117056,13.5237312 C95.396112,13.5237312 95.7989088,13.0348512 96.0430464,12.4582752 L97.9679232,12.4582752 C97.7052384,13.8561696 96.393024,15.1181856 94.3117056,15.1181856 C91.5643008,15.1181856 90.2353536,13.0529952 90.2353536,10.83096 C90.2353536,8.3819232 91.6880832,6.5453472 94.2594912,6.5453472 C96.3764928,6.5453472 98.0376768,8.136576 98.0376768,10.219104 C98.0376768,10.4995296 98.0376768,10.8845856 97.9505856,11.4081408 L92.1767616,11.4081408 L92.1767616,11.4081408 Z" id="Fill-10" fill="#E4DFD9"></path>
                    <path d="M104.493312,8.5200192 C104.196355,8.451072 104.038301,8.4341376 103.742352,8.4341376 C102.114634,8.4341376 101.221344,9.361296 101.221344,11.3916096 L101.221344,14.9067072 L99.3156192,14.9067072 L99.3156192,6.7548096 L101.221344,6.7548096 L101.221344,8.0668224 C101.589062,7.3132416 102.656333,6.649776 103.742352,6.649776 C104.038301,6.649776 104.282842,6.6844512 104.493312,6.7713408 L104.493312,8.5200192" id="Fill-11" fill="#E4DFD9"></path>
                    <path d="M111.596285,12.6320544 C111.596285,14.3301312 110.126822,15.1181856 108.342864,15.1181856 C106.593581,15.1181856 105.018278,14.0845824 105.018278,12.1603104 L106.8732,12.1603104 C106.8732,13.2281856 107.538077,13.6132416 108.447696,13.6132416 C109.199664,13.6132416 109.778054,13.3666848 109.778054,12.6681408 C109.778054,11.8992384 108.955123,11.8456128 107.241725,11.1805344 C106.103894,10.7446752 105.298502,10.3237344 105.298502,8.9068896 C105.298502,7.3662624 106.698413,6.5453472 108.360605,6.5453472 C110.091744,6.5453472 111.474115,7.717248 111.474115,9.3104928 L109.620202,9.3104928 C109.620202,8.5393728 109.234742,8.0494848 108.306979,8.0494848 C107.661254,8.0494848 107.136288,8.363376 107.136288,8.9403552 C107.136288,9.6413184 107.888458,9.7298208 109.375258,10.3068 C110.513088,10.7446752 111.596285,11.1466656 111.596285,12.6320544" id="Fill-12" fill="#E4DFD9"></path>
                    <path d="M112.907894,2.6603136 L114.816442,2.6603136 L114.816442,7.893648 C115.323667,7.0170912 116.267357,6.5453472 117.474941,6.5453472 C118.646842,6.5453472 119.469773,6.9650784 119.924582,7.6470912 C120.32617,8.2581408 120.449549,8.9403552 120.449549,10.0610496 L120.449549,14.9067072 L118.541203,14.9067072 L118.541203,10.6916544 C118.541203,9.2915424 118.140826,8.2238688 116.775994,8.2238688 C115.444627,8.2238688 114.816442,9.2915424 114.816442,10.6916544 L114.816442,14.9067072 L112.907894,14.9067072 L112.907894,2.6603136" id="Fill-13" fill="#E4DFD9"></path>
                    <path d="M128.251469,10.83096 C128.251469,9.431856 127.307578,8.2416096 125.837914,8.2416096 C124.40353,8.2416096 123.458832,9.431856 123.458832,10.83096 C123.458832,12.2302656 124.40353,13.4207136 125.837914,13.4207136 C127.307578,13.4207136 128.251469,12.2302656 128.251469,10.83096 L128.251469,10.83096 Z M130.159008,6.7548096 L130.159008,14.9067072 L128.251469,14.9067072 L128.251469,13.8049632 C127.743034,14.6266848 126.676973,15.1181856 125.731267,15.1181856 C123.24816,15.1181856 121.550285,13.1398848 121.550285,10.83096 C121.550285,8.5200192 123.24816,6.5453472 125.731267,6.5453472 C126.676973,6.5453472 127.743034,7.0340256 128.251469,7.8565536 L128.251469,6.7548096 L130.159008,6.7548096 L130.159008,6.7548096 Z" id="Fill-14" fill="#E4DFD9"></path>
                    <path d="M137.016634,8.5200192 C136.718467,8.451072 136.562227,8.4341376 136.264464,8.4341376 C134.63735,8.4341376 133.746278,9.361296 133.746278,11.3916096 L133.746278,14.9067072 L131.838336,14.9067072 L131.838336,6.7548096 L133.746278,6.7548096 L133.746278,8.0668224 C134.112787,7.3132416 135.179856,6.649776 136.264464,6.649776 C136.562227,6.649776 136.806566,6.6844512 137.016634,6.7713408 L137.016634,8.5200192" id="Fill-15" fill="#E4DFD9"></path>
                    <path d="M139.309632,9.9925056 L143.29849,9.9925056 C143.29849,8.853264 142.475155,8.136576 141.321802,8.136576 C140.200906,8.136576 139.309632,8.783712 139.309632,9.9925056 L139.309632,9.9925056 Z M139.292294,11.4081408 C139.309632,12.5800416 139.886813,13.5237312 141.425827,13.5237312 C142.510838,13.5237312 142.913635,13.0348512 143.157773,12.4582752 L145.08265,12.4582752 C144.81936,13.8561696 143.509363,15.1181856 141.425827,15.1181856 C138.678826,15.1181856 137.349677,13.0529952 137.349677,10.83096 C137.349677,8.3819232 138.801197,6.5453472 141.373008,6.5453472 C143.490816,6.5453472 145.152,8.136576 145.152,10.219104 C145.152,10.4995296 145.152,10.8845856 145.064506,11.4081408 L139.292294,11.4081408 L139.292294,11.4081408 Z" id="Fill-16" fill="#E4DFD9"></path>
                </g>
            </g>
        </g>
    </g>
</svg>