<svg xmlns="http://www.w3.org/2000/svg" viewBox="0 0 300.43 53.11"><defs><style>.cls-1{fill:#323c48;}.cls-2{fill:#313c48;}.cls-3{fill:#61ded0;}</style></defs><title>Asset 6</title><g id="Layer_2" data-name="Layer 2"><g id="Layer_1-2" data-name="Layer 1"><path class="cls-1" d="M240.79,41.67a5.71,5.71,0,0,1,.46-2.29,6.15,6.15,0,0,1,1.23-1.85,5.87,5.87,0,0,1,1.83-1.26,5.64,5.64,0,0,1,4.52,0,5.87,5.87,0,0,1,1.83,1.26,6.15,6.15,0,0,1,1.23,1.85,5.71,5.71,0,0,1,.46,2.29,5.6,5.6,0,0,1-.46,2.28,6.33,6.33,0,0,1-1.23,1.85,5.53,5.53,0,0,1-1.83,1.26,5.8,5.8,0,0,1-4.52,0,5.53,5.53,0,0,1-1.83-1.26A6.33,6.33,0,0,1,241.25,44,5.6,5.6,0,0,1,240.79,41.67Z"/><path class="cls-1" d="M255.55,9.3a5.46,5.46,0,0,1,1.65-4,5.61,5.61,0,0,1,4.11-1.63,5.9,5.9,0,0,1,4.13,1.62,5.15,5.15,0,0,1,1.23,1.82,5.9,5.9,0,0,1,.43,2.24,5.68,5.68,0,0,1-.43,2.21,5.5,5.5,0,0,1-1.23,1.82,5.9,5.9,0,0,1-1.85,1.23,5.76,5.76,0,0,1-2.28.44,5.65,5.65,0,0,1-2.27-.44A5.82,5.82,0,0,1,256,11.51,5.5,5.5,0,0,1,255.55,9.3ZM256.85,47V18.7h9V47Z"/><path class="cls-1" d="M269,32.84A15.34,15.34,0,0,1,270,27.11a13.91,13.91,0,0,1,3.11-4.73,15,15,0,0,1,4.93-3.24,17,17,0,0,1,6.6-1.2,17.28,17.28,0,0,1,6.63,1.2,14.94,14.94,0,0,1,5,3.24,13.87,13.87,0,0,1,3.09,4.73,16,16,0,0,1,0,11.48,13.81,13.81,0,0,1-3.09,4.75,14.91,14.91,0,0,1-5,3.24,17.28,17.28,0,0,1-6.63,1.2,17,17,0,0,1-6.6-1.2,15,15,0,0,1-4.93-3.24A13.88,13.88,0,0,1,270,38.6,15.4,15.4,0,0,1,269,32.84Zm9,0a8.33,8.33,0,0,0,.47,2.85A7.1,7.1,0,0,0,279.77,38a6.19,6.19,0,0,0,2.11,1.56,6.56,6.56,0,0,0,2.75.56,6.87,6.87,0,0,0,2.8-.56A6.12,6.12,0,0,0,289.57,38a7.63,7.63,0,0,0,1.38-2.3,8.24,8.24,0,0,0,0-5.66,7.33,7.33,0,0,0-1.38-2.31,6.41,6.41,0,0,0-2.14-1.56,6.7,6.7,0,0,0-2.81-.58,6.35,6.35,0,0,0-4.86,2.14A6.89,6.89,0,0,0,278.42,30,8.29,8.29,0,0,0,277.95,32.84Z"/><path class="cls-2" d="M75.32,12.56a10.11,10.11,0,0,0-2.88-.36c-1.87,0-3.75.29-3.75,3.58v3h6.64v7.62H68.74V47.1h-9V26.39H54.64V18.77h5.11V16.3c0-10.2,6.29-11,10.28-11a14.09,14.09,0,0,1,5.3.77Z"/><path class="cls-2" d="M82.83,4.77a5.17,5.17,0,1,1-5.22,5.18A5.17,5.17,0,0,1,82.83,4.77Zm-4.43,14h9V47.1h-9Z"/><path class="cls-2" d="M91.09,6h9V47.1h-9Z"/><path class="cls-2" d="M138.91,47.1V31.82c0-3.82-1.29-6.12-4.35-6.12-2.7,0-4.76,1.7-4.76,7.17V47.1h-8.7V31.76c0-3.82-1.23-6.06-4.29-6.06-2.7,0-4.82,1.77-4.82,7.35v14h-8.69V18.77H112v4.11c1.24-2.52,3.89-4.82,8.4-4.82,4.24,0,7.11,2,8.35,5.12,1.4-2.7,4.17-5.12,9.22-5.12,7.88,0,9.58,5.89,9.58,11.58V47.1Z"/><path class="cls-2" d="M149.92,32.93c0-8.1,5.93-14.91,15.74-14.91s15.68,6.81,15.68,14.91-5.87,14.91-15.68,14.91S149.92,41,149.92,32.93Zm22.5,0c0-3.94-2.7-7.23-6.81-7.23s-6.7,3.29-6.7,7.23,2.66,7.23,6.7,7.23S172.42,36.92,172.42,32.93Z"/><path class="cls-2" d="M204.14,26.94a12,12,0,0,0-3-.41c-5.05,0-8.29,2.53-8.29,9.51V47.1h-9V18.77h9v4.58a9.85,9.85,0,0,1,8.76-5,6.28,6.28,0,0,1,2.58.47Z"/><path class="cls-2" d="M236.22,18.77V47.1h-9v-4c-1.41,2.59-4.71,4.71-9.05,4.71-7.52,0-13.39-6.41-13.39-14.87s5.87-14.87,13.39-14.87c4.17,0,7.52,2,9.05,4.77V18.77Zm-9,14.16c0-3.87-2.7-7.23-6.76-7.23s-6.76,3.36-6.76,7.23,2.7,7.23,6.76,7.23S227.23,36.87,227.23,32.93Z"/><path class="cls-2" d="M0,12.65,10.12,22.76a3.59,3.59,0,0,1,.55,4.34l.08.08L25.29,12.65,12.65,0Z"/><polygon class="cls-3" points="26.58 13.94 26.53 13.94 25.17 15.3 27.94 15.3 26.58 13.94"/><polygon class="cls-3" points="26.55 13.91 26.53 13.94 26.58 13.94 26.55 13.91"/><polygon class="cls-3" points="29.4 16.76 23.7 16.76 20.98 19.48 32.13 19.48 29.4 16.76"/><polygon class="cls-3" points="33.59 20.95 19.52 20.95 16.79 23.67 36.31 23.67 33.59 20.95"/><polygon class="cls-3" points="37.78 25.14 15.33 25.14 12.61 27.86 37.9 27.86 39.2 26.56 37.78 25.14"/><polygon class="cls-3" points="11.14 29.33 8.42 32.05 33.71 32.05 36.44 29.33 11.14 29.33"/><polygon class="cls-3" points="6.96 33.52 4.23 36.23 29.53 36.23 32.24 33.52 6.96 33.52"/><polygon class="cls-3" points="2.77 37.7 0.05 40.41 25.34 40.41 28.06 37.7 2.77 37.7"/><polygon class="cls-3" points="1.41 41.89 4.14 44.61 21.15 44.61 23.87 41.89 1.41 41.89"/><polygon class="cls-3" points="5.6 46.07 8.32 48.79 16.96 48.79 19.69 46.07 5.6 46.07"/><polygon class="cls-3" points="9.79 50.26 12.51 52.98 12.65 53.11 12.78 52.98 15.49 50.26 9.79 50.26"/></g></g></svg>