<?xml version="1.0" encoding="utf-8"?>
<!-- Generator: Adobe Illustrator 19.0.0, SVG Export Plug-In . SVG Version: 6.00 Build 0)  -->
<svg version="1.1" id="图层_1" xmlns="http://www.w3.org/2000/svg" xmlns:xlink="http://www.w3.org/1999/xlink" x="0px" y="0px"
	 viewBox="135.5 363 68 68" style="enable-background:new 135.5 363 68 68;" xml:space="preserve">
<style type="text/css">
	.st0{fill:#EF3062;}
	.st1{fill:#313C48;}
</style>
<title>filmora_screen_brand_For Light Background</title>
<desc>Created with Sketch.</desc>
<polyline id="Fill-2" class="st0" points="178.4,380.7 178.3,380.7 176.6,382.4 180.1,382.4 178.4,380.7 "/>
<polyline id="Fill-4" class="st0" points="183.7,386 181.9,384.2 174.7,384.2 173,386 171.3,387.7 185.4,387.7 183.7,386 "/>
<polyline id="Fill-5" class="st0" points="189,391.3 187.3,389.6 169.4,389.6 167.7,391.3 165.9,393 190.7,393 189,391.3 "/>
<polyline id="Fill-6" class="st0" points="194.3,396.6 192.6,394.9 164.1,394.9 162.3,396.6 160.6,398.3 192.7,398.3 194.4,396.7 
	194.3,396.6 "/>
<polyline id="Fill-7" class="st0" points="158.8,400.2 157,401.9 155.3,403.7 187.4,403.7 189.2,401.9 190.9,400.2 158.8,400.2 "/>
<polyline id="Fill-8" class="st0" points="153.4,405.5 150,409 182.1,409 183.8,407.2 185.6,405.5 153.4,405.5 "/>
<polyline id="Fill-9" class="st0" points="148.1,410.8 146.4,412.6 144.7,414.3 176.8,414.3 178.5,412.6 180.2,410.8 148.1,410.8 
	"/>
<polyline id="Fill-10" class="st0" points="146.4,416.2 148.1,417.9 149.9,419.6 171.5,419.6 173.2,417.9 174.9,416.2 146.4,416.2 
	"/>
<polyline id="Fill-11" class="st0" points="151.7,421.5 153.4,423.2 155.2,424.9 166.1,424.9 167.9,423.2 169.6,421.5 151.7,421.5 
	"/>
<polyline id="Fill-12" class="st0" points="157,426.8 158.3,428 158.8,428.5 160.1,429.8 160.5,430.2 160.7,430.4 160.8,430.2 
	161.3,429.8 162.6,428.5 163,428 164.3,426.8 157,426.8 "/>
<path id="Fill-20" class="st1" d="M144.6,379l12.8,12.8c1.5,1.5,1.7,3.7,0.7,5.5l0.1,0.1l18.4-18.4l-16-16L144.6,379"/>
</svg>
