<?xml version="1.0" encoding="UTF-8" standalone="no"?>
<svg width="219px" height="31px" viewBox="0 0 219 31" version="1.1" xmlns="http://www.w3.org/2000/svg" xmlns:xlink="http://www.w3.org/1999/xlink">
    <!-- Generator: sketchtool 40.3 (33839) - http://www.bohemiancoding.com/sketch -->
    <title>6FBF7252-F20C-4481-BA8E-02FFE3B4F95C</title>
    <desc>Created with sketchtool.</desc>
    <defs>
        <polygon id="path-1" points="63.4275711 30.9752593 0 30.9752593 0 15.6229983 0 0.270737257 63.4275711 0.270737257 63.4275711 30.9752593"></polygon>
    </defs>
    <g id="Symbols" stroke="none" stroke-width="1" fill="none" fill-rule="evenodd">
        <g id="WSCOM/Navigation" transform="translate(-369.000000, -19.000000)">
            <g id="20160909_Wondershare_logo_RGB_dark" transform="translate(368.836558, 19.000000)">
                <g id="Group-5">
                    <mask id="mask-2" fill="white">
                        <use xlink:href="#path-1"></use>
                    </mask>
                    <g id="Clip-2"></g>
                    <path d="M31.7139375,0.270737257 L23.7850733,8.19960145 C22.8619534,9.1227213 21.4563075,9.26401515 20.3818665,8.62986403 L20.3171448,8.69458573 L42.6151382,30.9934907 L50.5440024,23.0649304 C51.638498,21.9698271 51.638498,20.1952978 50.5440024,19.1004983 L31.7139375,0.270737257" id="Fill-1" fill="#353132" mask="url(#mask-2)"></path>
                    <path d="M53.5169466,0.270737257 L45.5883863,8.19960145 C44.6652665,9.1227213 43.2596205,9.26462287 42.1848756,8.62986403 L42.1198501,8.69458573 L53.5172505,20.0919862 L63.4275711,10.1810579 L53.5169466,0.270737257" id="Fill-3" fill="#353132" mask="url(#mask-2)"></path>
                    <path d="M9.91062445,0.270737257 L0,10.1810579 L20.8127368,30.9934907 L28.7406894,23.0649304 C29.8354888,21.9698271 29.8354888,20.1952978 28.7406894,19.1004983 L9.91062445,0.270737257" id="Fill-4" fill="#353132" mask="url(#mask-2)"></path>
                </g>
                <polyline id="Fill-6" fill="#353132" points="83.1084377 13.2934728 79.8656678 22.4678499 77.9398173 22.4678499 73.1680352 10.1810579 76.2524952 10.1810579 78.9158084 17.9592086 81.6848641 10.1810579 84.5055757 10.1810579 87.2749352 17.9592086 89.9373368 10.1810579 93.0221007 10.1810579 88.2497109 22.4678499 86.3250759 22.4678499 83.1084377 13.2934728"></polyline>
                <path d="M103.070373,16.3247577 C103.070373,14.2159849 101.646799,12.4220088 99.4304607,12.4220088 C97.2685128,12.4220088 95.8449393,14.2159849 95.8449393,16.3247577 C95.8449393,18.4338344 97.2685128,20.2281144 99.4304607,20.2281144 C101.646799,20.2281144 103.070373,18.4338344 103.070373,16.3247577 L103.070373,16.3247577 Z M92.9704449,16.3247577 C92.9704449,12.8416363 95.5295349,9.86534965 99.4304607,9.86534965 C103.386081,9.86534965 105.944563,12.8416363 105.944563,16.3247577 C105.944563,19.8048406 103.386081,22.7865967 99.4304607,22.7865967 C95.5295349,22.7865967 92.9704449,19.8048406 92.9704449,16.3247577 L92.9704449,16.3247577 Z" id="Fill-7" fill="#353132"></path>
                <path d="M107.817542,10.1810579 L110.690214,10.1810579 L110.690214,11.8975503 C111.455935,10.5763768 112.879813,9.86534965 114.697794,9.86534965 C116.467157,9.86534965 117.705074,10.4979815 118.390577,11.5259323 C118.996469,12.4469251 119.181215,13.4751797 119.181215,15.164325 L119.181215,22.4678499 L116.308543,22.4678499 L116.308543,16.114792 C116.308543,14.0045 115.700828,12.3952693 113.643103,12.3952693 C111.640681,12.3952693 110.690214,14.0045 110.690214,16.114792 L110.690214,22.4678499 L107.817542,22.4678499 L107.817542,10.1810579" id="Fill-8" fill="#353132"></path>
                <path d="M131.205777,16.3247577 C131.205777,14.2159849 129.783115,12.4220088 127.566777,12.4220088 C125.404829,12.4220088 123.980344,14.2159849 123.980344,16.3247577 C123.980344,18.4338344 125.404829,20.2281144 127.566777,20.2281144 C129.783115,20.2281144 131.205777,18.4338344 131.205777,16.3247577 L131.205777,16.3247577 Z M131.205777,20.8072673 C130.441271,22.0457915 128.832345,22.7865967 127.409075,22.7865967 C123.66494,22.7865967 121.106457,19.8048406 121.106457,16.3247577 C121.106457,12.8416363 123.66494,9.86534965 127.409075,9.86534965 C128.832345,9.86534965 130.441271,10.6019008 131.205777,11.8416405 L131.205777,4.0097069 L134.078449,4.0097069 L134.078449,22.4678499 L131.205777,22.4678499 L131.205777,20.8072673 L131.205777,20.8072673 Z" id="Fill-9" fill="#353132"></path>
                <path d="M138.957796,15.0610134 L144.971749,15.0610134 C144.971749,13.3439132 143.731098,12.2636989 141.991816,12.2636989 C140.302975,12.2636989 138.957796,13.2390823 138.957796,15.0610134 L138.957796,15.0610134 Z M138.931665,17.1947025 C138.957796,18.9610276 139.828957,20.3833857 142.149518,20.3833857 C143.783969,20.3833857 144.391077,19.6465307 144.759049,18.7774975 L147.660282,18.7774975 C147.264356,20.8844472 145.286546,22.7865967 142.149518,22.7865967 C138.008545,22.7865967 136.005515,19.6738779 136.005515,16.3247577 C136.005515,12.6334938 138.195114,9.86534965 142.070819,9.86534965 C145.261629,9.86534965 147.765417,12.2636989 147.765417,15.4025495 C147.765417,15.8252156 147.765417,16.4055839 147.634151,17.1947025 L138.931665,17.1947025 L138.931665,17.1947025 Z" id="Fill-10" fill="#353132"></path>
                <path d="M157.49555,12.8416363 C157.047968,12.737717 156.809743,12.7121929 156.36368,12.7121929 C153.910333,12.7121929 152.563939,14.1096347 152.563939,17.1697862 L152.563939,22.4678499 L149.691572,22.4678499 L149.691572,10.1810579 L152.563939,10.1810579 L152.563939,12.1585641 C153.118175,11.0227438 154.726798,10.022748 156.36368,10.022748 C156.809743,10.022748 157.178323,10.0750115 157.49555,10.2059742 L157.49555,12.8416363" id="Fill-11" fill="#353132"></path>
                <path d="M168.20137,19.0394229 C168.20137,21.5988168 165.986551,22.7865967 163.297714,22.7865967 C160.66114,22.7865967 158.286796,21.228718 158.286796,18.3283958 L161.082591,18.3283958 C161.082591,19.9379303 162.084714,20.5182986 163.45572,20.5182986 C164.589109,20.5182986 165.460877,20.1466806 165.460877,19.0938134 C165.460877,17.9349 164.22053,17.8540738 161.638043,16.8516471 C159.92307,16.1947066 158.709158,15.5602516 158.709158,13.4247394 C158.709158,11.1026584 160.819146,9.86534965 163.324453,9.86534965 C165.93368,9.86534965 168.017233,11.6316748 168.017233,14.0330626 L165.222957,14.0330626 C165.222957,12.8708067 164.641981,12.1324323 163.243627,12.1324323 C162.270371,12.1324323 161.479125,12.6055389 161.479125,13.4751797 C161.479125,14.5316932 162.612819,14.6650867 164.85377,15.5347276 C166.568743,16.1947066 168.20137,16.800599 168.20137,19.0394229" id="Fill-12" fill="#353132"></path>
                <path d="M170.178269,4.0097069 L173.05489,4.0097069 L173.05489,11.8975503 C173.819396,10.5763768 175.241755,9.86534965 177.061862,9.86534965 C178.828188,9.86534965 180.068535,10.4979815 180.754038,11.5259323 C181.359323,12.4469251 181.545284,13.4751797 181.545284,15.164325 L181.545284,22.4678499 L178.668966,22.4678499 L178.668966,16.114792 C178.668966,14.0045 178.065505,12.3952693 176.008388,12.3952693 C174.001711,12.3952693 173.05489,14.0045 173.05489,16.114792 L173.05489,22.4678499 L170.178269,22.4678499 L170.178269,4.0097069" id="Fill-13" fill="#353132"></path>
                <path d="M193.304579,16.3247577 C193.304579,14.2159849 191.881917,12.4220088 189.666794,12.4220088 C187.504846,12.4220088 186.080968,14.2159849 186.080968,16.3247577 C186.080968,18.4338344 187.504846,20.2281144 189.666794,20.2281144 C191.881917,20.2281144 193.304579,18.4338344 193.304579,16.3247577 L193.304579,16.3247577 Z M196.179681,10.1810579 L196.179681,22.4678499 L193.304579,22.4678499 L193.304579,20.8072673 C192.538249,22.0457915 190.93145,22.7865967 189.506053,22.7865967 C185.763437,22.7865967 183.204347,19.8048406 183.204347,16.3247577 C183.204347,12.8416363 185.763437,9.86534965 189.506053,9.86534965 C190.93145,9.86534965 192.538249,10.6019008 193.304579,11.8416405 L193.304579,10.1810579 L196.179681,10.1810579 L196.179681,10.1810579 Z" id="Fill-14" fill="#353132"></path>
                <path d="M206.515706,12.8416363 C206.0663,12.737717 205.830811,12.7121929 205.382013,12.7121929 C202.929577,12.7121929 201.586526,14.1096347 201.586526,17.1697862 L201.586526,22.4678499 L198.710816,22.4678499 L198.710816,10.1810579 L201.586526,10.1810579 L201.586526,12.1585641 C202.138939,11.0227438 203.747258,10.022748 205.382013,10.022748 C205.830811,10.022748 206.199086,10.0750115 206.515706,10.2059742 L206.515706,12.8416363" id="Fill-15" fill="#353132"></path>
                <path d="M209.971784,15.0610134 L215.983914,15.0610134 C215.983914,13.3439132 214.742958,12.2636989 213.004588,12.2636989 C211.315139,12.2636989 209.971784,13.2390823 209.971784,15.0610134 L209.971784,15.0610134 Z M209.945652,17.1947025 C209.971784,18.9610276 210.841729,20.3833857 213.161379,20.3833857 C214.796741,20.3833857 215.403849,19.6465307 215.771821,18.7774975 L218.673055,18.7774975 C218.276216,20.8844472 216.301749,22.7865967 213.161379,22.7865967 C209.021013,22.7865967 207.017679,19.6738779 207.017679,16.3247577 C207.017679,12.6334938 209.205455,9.86534965 213.081768,9.86534965 C216.273794,9.86534965 218.777582,12.2636989 218.777582,15.4025495 C218.777582,15.8252156 218.777582,16.4055839 218.645707,17.1947025 L209.945652,17.1947025 L209.945652,17.1947025 Z" id="Fill-16" fill="#353132"></path>
            </g>
        </g>
    </g>
</svg>