<svg xmlns="http://www.w3.org/2000/svg" viewBox="0 0 236.22 53.11"><defs><style>.cls-1{fill:#fff;}.cls-2{fill:#61ded0;}</style></defs><title>Asset 8</title><g id="Layer_2" data-name="Layer 2"><g id="Layer_1-2" data-name="Layer 1"><path class="cls-1" d="M75.32,12.56a10.11,10.11,0,0,0-2.88-.36c-1.87,0-3.75.29-3.75,3.58v3h6.64v7.62H68.74V47.1h-9V26.39H54.64V18.77h5.11V16.3c0-10.2,6.29-11,10.28-11a14.09,14.09,0,0,1,5.3.77Z"/><path class="cls-1" d="M82.83,4.77a5.17,5.17,0,1,1-5.22,5.18A5.17,5.17,0,0,1,82.83,4.77Zm-4.43,14h9V47.1h-9Z"/><path class="cls-1" d="M91.09,6h9V47.1h-9Z"/><path class="cls-1" d="M138.91,47.1V31.82c0-3.82-1.29-6.12-4.35-6.12-2.7,0-4.76,1.7-4.76,7.17V47.1h-8.7V31.76c0-3.82-1.23-6.06-4.29-6.06-2.7,0-4.82,1.77-4.82,7.35v14h-8.69V18.77H112v4.11c1.24-2.52,3.89-4.82,8.4-4.82,4.24,0,7.11,2,8.35,5.12,1.4-2.7,4.17-5.12,9.22-5.12,7.88,0,9.58,5.89,9.58,11.58V47.1Z"/><path class="cls-1" d="M149.92,32.93c0-8.1,5.93-14.91,15.74-14.91s15.68,6.81,15.68,14.91-5.87,14.91-15.68,14.91S149.92,41,149.92,32.93Zm22.5,0c0-3.94-2.7-7.23-6.81-7.23s-6.7,3.29-6.7,7.23,2.66,7.23,6.7,7.23S172.42,36.92,172.42,32.93Z"/><path class="cls-1" d="M204.14,26.94a12,12,0,0,0-3-.41c-5.05,0-8.29,2.53-8.29,9.51V47.1h-9V18.77h9v4.58a9.85,9.85,0,0,1,8.76-5,6.28,6.28,0,0,1,2.58.47Z"/><path class="cls-1" d="M236.22,18.77V47.1h-9v-4c-1.41,2.59-4.71,4.71-9.05,4.71-7.52,0-13.39-6.41-13.39-14.87s5.87-14.87,13.39-14.87c4.17,0,7.52,2,9.05,4.77V18.77Zm-9,14.16c0-3.87-2.7-7.23-6.76-7.23s-6.76,3.36-6.76,7.23,2.7,7.23,6.76,7.23S227.23,36.87,227.23,32.93Z"/><path class="cls-1" d="M0,12.65,10.12,22.76a3.59,3.59,0,0,1,.55,4.34l.08.08L25.29,12.65,12.65,0Z"/><polygon class="cls-2" points="26.58 13.94 26.53 13.94 25.17 15.3 27.94 15.3 26.58 13.94"/><polygon class="cls-2" points="26.55 13.91 26.53 13.94 26.58 13.94 26.55 13.91"/><polygon class="cls-2" points="29.4 16.76 23.7 16.76 20.98 19.48 32.13 19.48 29.4 16.76"/><polygon class="cls-2" points="33.59 20.95 19.52 20.95 16.79 23.67 36.31 23.67 33.59 20.95"/><polygon class="cls-2" points="37.78 25.14 15.33 25.14 12.61 27.86 37.9 27.86 39.2 26.56 37.78 25.14"/><polygon class="cls-2" points="11.14 29.33 8.42 32.05 33.71 32.05 36.44 29.33 11.14 29.33"/><polygon class="cls-2" points="6.96 33.52 4.23 36.23 29.53 36.23 32.24 33.52 6.96 33.52"/><polygon class="cls-2" points="2.77 37.7 0.05 40.41 25.34 40.41 28.06 37.7 2.77 37.7"/><polygon class="cls-2" points="1.41 41.89 4.14 44.61 21.15 44.61 23.87 41.89 1.41 41.89"/><polygon class="cls-2" points="5.6 46.07 8.32 48.79 16.96 48.79 19.69 46.07 5.6 46.07"/><polygon class="cls-2" points="9.79 50.26 12.51 52.98 12.65 53.11 12.78 52.98 15.49 50.26 9.79 50.26"/></g></g></svg>