<?xml version="1.0" encoding="UTF-8"?>
<svg width="149px" height="149px" viewBox="0 0 149 149" version="1.1" xmlns="http://www.w3.org/2000/svg" xmlns:xlink="http://www.w3.org/1999/xlink">
    <!-- Generator: Sketch 48.1 (47250) - http://www.bohemiancoding.com/sketch -->
    <title>vlogit03-1</title>
    <desc>Created with Sketch.</desc>
    <defs></defs>
    <g id="white-vertical-copy-2" stroke="none" stroke-width="1" fill="none" fill-rule="evenodd" transform="translate(-345.000000, -72.000000)">
        <g id="vlogit03-1" transform="translate(345.000000, 72.000000)">
            <rect id="Rectangle-9" fill="#F4F4F4" x="0" y="0" width="149" height="149" rx="30"></rect>
            <g id="Group-2" transform="translate(33.000000, 17.000000)" fill="#FF0000">
                <path d="M0,27.4421702 L22.001456,49.3956642 C24.5610854,51.9528168 24.9542025,55.8427883 23.1951246,58.8191105 L23.3749393,59 L55,27.440233 L27.4997573,0 L0,27.4421702" id="Fill-1"></path>
                <polyline id="Fill-2" points="58.0503266 30 57.9506412 30 55 33 61 33 58.0503266 30"></polyline>
                <polyline id="Fill-3" points="58.0497506 30 58 30.0494918 58.0990205 30.0494918 58.0497506 30"></polyline>
                <polyline id="Fill-4" points="67.068739 39.0008609 64.138199 36 51.8637238 36 46 42 70 42 67.068739 39.0008609"></polyline>
                <polyline id="Fill-5" points="75.0721408 48 72.1435612 45 41.8581197 45 36 51 78 51 75.0721408 48"></polyline>
                <polyline id="Fill-6" points="84.8678405 57.000369 81.9002153 54 32.9379278 54 29.9698157 57.000369 27 60 82.165021 60 85 57.1332158 84.8678405 57.000369"></polyline>
                <polyline id="Fill-7" points="23.9265835 64 18 70 73.0719586 70 79 64 23.9265835 64"></polyline>
                <polyline id="Fill-8" points="14.9273596 73 9 79 64.0723974 79 70 73 14.9273596 73"></polyline>
                <polyline id="Fill-9" points="5.92804136 82 2.96292726 85 0 88 55.0722016 88 58.0373157 85 61 82 5.92804136 82"></polyline>
                <polyline id="Fill-10" points="3 91 5.96881895 94.000246 8.94007275 97 46.0616317 97 52 91 3 91"></polyline>
                <polyline id="Fill-11" points="12 100 14.8987012 103.000615 17.798591 106 36.2011712 106 39.1008234 103.000615 42 100 12 100"></polyline>
                <polyline id="Fill-12" points="21 109 23.0636584 111.06162 23.8615782 111.860885 26.0106358 114.007429 26.724564 114.722474 27.0004692 115 27.278486 114.722474 27.9910065 114.007429 30.1388911 111.860885 30.9375147 111.06162 33 109 21 109"></polyline>
            </g>
        </g>
    </g>
</svg>