<?xml version="1.0" encoding="UTF-8" standalone="no"?>
<svg width="185px" height="50px" viewBox="0 0 185 50" version="1.1" xmlns="http://www.w3.org/2000/svg" xmlns:xlink="http://www.w3.org/1999/xlink">
    <!-- Generator: sketchtool 40.1 (33804) - http://www.bohemiancoding.com/sketch -->
    <title>68BC7AEF-BFB2-4686-A6D9-F26CAFDC1677</title>
    <desc>Created with sketchtool.</desc>
    <defs>
        <filter x="-50%" y="-50%" width="200%" height="200%" filterUnits="objectBoundingBox" id="filter-1">
            <feOffset dx="0" dy="2" in="SourceAlpha" result="shadowOffsetOuter1"></feOffset>
            <feGaussianBlur stdDeviation="2" in="shadowOffsetOuter1" result="shadowBlurOuter1"></feGaussianBlur>
            <feColorMatrix values="0 0 0 0 0   0 0 0 0 0   0 0 0 0 0  0 0 0 0.5 0" type="matrix" in="shadowBlurOuter1" result="shadowMatrixOuter1"></feColorMatrix>
            <feMerge>
                <feMergeNode in="shadowMatrixOuter1"></feMergeNode>
                <feMergeNode in="SourceGraphic"></feMergeNode>
            </feMerge>
        </filter>
        <linearGradient x1="91.5039455%" y1="4.96190818%" x2="-38.3274021%" y2="71.8998046%" id="linearGradient-2">
            <stop stop-color="#00A0FF" offset="0%"></stop>
            <stop stop-color="#00A1FF" offset="0.66%"></stop>
            <stop stop-color="#00BEFF" offset="26.01%"></stop>
            <stop stop-color="#00D2FF" offset="51.22%"></stop>
            <stop stop-color="#00DFFF" offset="76.04%"></stop>
            <stop stop-color="#00E3FF" offset="100%"></stop>
        </linearGradient>
        <linearGradient x1="107.583323%" y1="49.9941541%" x2="-130.477432%" y2="49.9941541%" id="linearGradient-3">
            <stop stop-color="#FFE000" offset="0%"></stop>
            <stop stop-color="#FFBD00" offset="40.87%"></stop>
            <stop stop-color="#FFA500" offset="77.54%"></stop>
            <stop stop-color="#FF9C00" offset="100%"></stop>
        </linearGradient>
        <linearGradient x1="86.252547%" y1="17.8365388%" x2="-50.1402373%" y2="194.798424%" id="linearGradient-4">
            <stop stop-color="#FF3A44" offset="0%"></stop>
            <stop stop-color="#C31162" offset="100%"></stop>
        </linearGradient>
        <linearGradient x1="-18.8097807%" y1="-54.1488449%" x2="42.0933717%" y2="24.8670947%" id="linearGradient-5">
            <stop stop-color="#32A071" offset="0%"></stop>
            <stop stop-color="#2DA771" offset="6.85%"></stop>
            <stop stop-color="#15CF74" offset="47.62%"></stop>
            <stop stop-color="#06E775" offset="80.09%"></stop>
            <stop stop-color="#00F076" offset="100%"></stop>
        </linearGradient>
    </defs>
    <g id="Page-1" stroke="none" stroke-width="1" fill="none" fill-rule="evenodd">
        <g id="FGOCOM_LandingPageï¼update" transform="translate(-738.000000, -508.000000)">
            <g id="Group-6" filter="url(#filter-1)" transform="translate(727.200000, 498.475397)">
                <g id="google-play-badge" transform="translate(0.000000, 1.000000)">
                    <g id="artwork">
                        <g id="Group-10" transform="translate(13.000000, 9.000000)">
                            <g id="Group" transform="translate(49.562963, 0.155556)" stroke="#FFFFFF" stroke-width="0.2" fill="#FFFFFF">
                                <path d="M9.79339259,6.4745037 C9.79339259,7.75322963 9.41496296,8.77102222 8.65657778,9.53093333 C7.79595556,10.4342815 6.67287407,10.8859556 5.29343704,10.8859556 C3.97198519,10.8859556 2.84737778,10.4281778 1.92419259,9.51262222 C0.999481481,8.59554074 0.537125926,7.46025185 0.537125926,6.10522963 C0.537125926,4.74868148 0.999481481,3.61339259 1.92419259,2.69783704 C2.84737778,1.78075556 3.97198519,1.32297778 5.29343704,1.32297778 C5.94958519,1.32297778 6.57674074,1.45115556 7.17185185,1.70598519 C7.76848889,1.96234074 8.2461037,2.30262222 8.60317037,2.72835556 L7.79900741,3.53404444 C7.19321481,2.80922963 6.35853333,2.44758519 5.29191111,2.44758519 C4.32752593,2.44758519 3.49437037,2.78634074 2.79091852,3.46385185 C2.08746667,4.14136296 1.7365037,5.02182222 1.7365037,6.1037037 C1.7365037,7.18558519 2.08746667,8.06604444 2.79091852,8.74355556 C3.49437037,9.42106667 4.32752593,9.75982222 5.29191111,9.75982222 C6.31428148,9.75982222 7.16727407,9.41954074 7.84936296,8.73745185 C8.29188148,8.29340741 8.54823704,7.67540741 8.6169037,6.88345185 L5.29191111,6.88345185 L5.29191111,5.78325926 L9.72777778,5.78325926 C9.77355556,6.02282963 9.79339259,6.25324444 9.79339259,6.4745037 L9.79339259,6.4745037 Z" id="Shape"></path>
                                <polygon id="Shape" points="16.8279111 2.65053333 12.6590815 2.65053333 12.6590815 5.55284444 16.418963 5.55284444 16.418963 6.65303704 12.6590815 6.65303704 12.6590815 9.55534815 16.8279111 9.55534815 16.8279111 10.6814815 11.4825926 10.6814815 11.4825926 1.52592593 16.8279111 1.52592593"></polygon>
                                <polygon id="Shape" points="21.7886963 10.6814815 20.6122074 10.6814815 20.6122074 2.65053333 18.0547556 2.65053333 18.0547556 1.52592593 24.3461481 1.52592593 24.3461481 2.65053333 21.7886963 2.65053333"></polygon>
                                <polygon id="Shape" points="28.8979852 10.6814815 28.8979852 1.52592593 30.0744741 1.52592593 30.0744741 10.6814815"></polygon>
                                <polygon id="Shape" points="35.2916148 10.6814815 34.1151259 10.6814815 34.1151259 2.65053333 31.5576741 2.65053333 31.5576741 1.52592593 37.8490667 1.52592593 37.8490667 2.65053333 35.2916148 2.65053333"></polygon>
                                <path d="M49.7589185,9.49888889 C48.8586222,10.4236 47.7401185,10.8859556 46.4018815,10.8859556 C45.0636444,10.8859556 43.9451407,10.4236 43.0463704,9.49888889 C42.1460741,8.57417778 41.6974519,7.44194074 41.6974519,6.1037037 C41.6974519,4.76546667 42.1460741,3.63322963 43.0463704,2.70851852 C43.9451407,1.78380741 45.0636444,1.31992593 46.4018815,1.31992593 C47.7324889,1.31992593 48.8494667,1.78533333 49.7528148,2.71462222 C50.656163,3.64391111 51.107837,4.7730963 51.107837,6.1037037 C51.107837,7.44194074 50.6576889,8.57417778 49.7589185,9.49888889 L49.7589185,9.49888889 Z M43.9146222,8.73134815 C44.5921333,9.41801481 45.4207111,9.75982222 46.4018815,9.75982222 C47.3830519,9.75982222 48.2131556,9.41648889 48.8891407,8.73134815 C49.5666519,8.04468148 49.9069333,7.1688 49.9069333,6.1037037 C49.9069333,5.03860741 49.5666519,4.16272593 48.8891407,3.47605926 C48.2131556,2.78939259 47.3830519,2.44758519 46.4018815,2.44758519 C45.4207111,2.44758519 44.5921333,2.79091852 43.9146222,3.47605926 C43.238637,4.16272593 42.8983556,5.03860741 42.8983556,6.1037037 C42.8983556,7.1688 43.238637,8.04468148 43.9146222,8.73134815 L43.9146222,8.73134815 Z" id="Shape"></path>
                                <polygon id="Shape" points="52.7588889 10.6814815 52.7588889 1.52592593 54.1902074 1.52592593 58.6398074 8.64742222 58.690163 8.64742222 58.6398074 6.88345185 58.6398074 1.52592593 59.8162963 1.52592593 59.8162963 10.6814815 58.5879259 10.6814815 53.9323259 3.2136 53.8819704 3.2136 53.9323259 4.97757037 53.9323259 10.6814815"></polygon>
                            </g>
                            <path d="M90.9704889,24.1904148 C87.3815111,24.1904148 84.4563111,26.9202963 84.4563111,30.6801778 C84.4563111,34.4171704 87.3815111,37.1699407 90.9704889,37.1699407 C94.5609926,37.1699407 97.4861926,34.4171704 97.4861926,30.6801778 C97.4846667,26.9202963 94.5594667,24.1904148 90.9704889,24.1904148 L90.9704889,24.1904148 Z M90.9704889,34.6155407 C89.0035704,34.6155407 87.3082667,32.9934815 87.3082667,30.6817037 C87.3082667,28.3455111 89.0050963,26.7478667 90.9704889,26.7478667 C92.9374074,26.7478667 94.6327111,28.3455111 94.6327111,30.6817037 C94.6327111,32.9919556 92.9374074,34.6155407 90.9704889,34.6155407 L90.9704889,34.6155407 Z M76.7580148,24.1904148 C73.169037,24.1904148 70.243837,26.9202963 70.243837,30.6801778 C70.243837,34.4171704 73.169037,37.1699407 76.7580148,37.1699407 C80.3485185,37.1699407 83.2737185,34.4171704 83.2737185,30.6801778 C83.2737185,26.9202963 80.3485185,24.1904148 76.7580148,24.1904148 L76.7580148,24.1904148 Z M76.7580148,34.6155407 C74.7910963,34.6155407 73.0957926,32.9934815 73.0957926,30.6817037 C73.0957926,28.3455111 74.7926222,26.7478667 76.7580148,26.7478667 C78.7249333,26.7478667 80.420237,28.3455111 80.420237,30.6817037 C80.421763,32.9919556 78.7249333,34.6155407 76.7580148,34.6155407 L76.7580148,34.6155407 Z M59.8538074,26.1832741 L59.8538074,28.9360444 L66.4427556,28.9360444 C66.2459111,30.4848593 65.7301481,31.6155704 64.9427704,32.4014222 C63.9844889,33.3597037 62.4845037,34.4171704 59.8538074,34.4171704 C55.7978963,34.4171704 52.6270222,31.1471111 52.6270222,27.0912 C52.6270222,23.0352889 55.7978963,19.7652296 59.8538074,19.7652296 C62.0419852,19.7652296 63.6396296,20.6258519 64.8191704,21.7321481 L66.7616741,19.7896444 C65.1136741,18.2164148 62.9270222,17.0124593 59.8538074,17.0124593 C54.2979111,17.0124593 49.6270519,21.5353037 49.6270519,27.0912 C49.6270519,32.6470963 54.2979111,37.1699407 59.8538074,37.1699407 C62.8522519,37.1699407 65.1152,36.1857185 66.8837481,34.3424 C68.7026519,32.5234963 69.2687704,29.9660444 69.2687704,27.9014667 C69.2687704,27.2636296 69.2199407,26.6730963 69.1207556,26.1817481 L59.8538074,26.1817481 L59.8538074,26.1832741 Z M128.990459,28.3210963 C128.450281,26.8714667 126.802281,24.1904148 123.434563,24.1904148 C120.091259,24.1904148 117.312548,26.8211111 117.312548,30.6801778 C117.312548,34.3179852 120.066844,37.1699407 123.753481,37.1699407 C126.727511,37.1699407 128.448756,35.351037 129.162889,34.2935704 L126.950296,32.818 C126.213274,33.8998815 125.204637,34.6124889 123.753481,34.6124889 C122.303852,34.6124889 121.2708,33.9487111 120.607022,32.6455704 L129.284963,29.0565926 L128.990459,28.3210963 L128.990459,28.3210963 Z M120.140089,30.4848593 C120.066844,27.976237 122.082593,26.699037 123.533748,26.699037 C124.664459,26.699037 125.622741,27.2651556 125.943185,28.0754222 L120.140089,30.4848593 L120.140089,30.4848593 Z M113.085733,36.7777778 L115.936163,36.7777778 L115.936163,17.7021778 L113.085733,17.7021778 L113.085733,36.7777778 L113.085733,36.7777778 Z M108.413348,25.6415704 L108.315689,25.6415704 C107.676326,24.8786074 106.44643,24.1904148 104.899141,24.1904148 C101.653496,24.1904148 98.6794667,27.0423704 98.6794667,30.7061185 C98.6794667,34.3439259 101.653496,37.1714667 104.899141,37.1714667 C106.447956,37.1714667 107.676326,36.4832741 108.315689,35.6974222 L108.413348,35.6974222 L108.413348,36.6312889 C108.413348,39.1139704 107.085793,40.4415259 104.94797,40.4415259 C103.202311,40.4415259 102.12043,39.1887407 101.677911,38.1312741 L99.1952296,39.1643259 C99.907837,40.8840444 101.799985,42.9989778 104.94797,42.9989778 C108.291274,42.9989778 111.118815,41.0320593 111.118815,36.2376 L111.118815,24.5856296 L108.414874,24.5856296 L108.414874,25.6415704 L108.413348,25.6415704 Z M105.144815,34.6155407 C103.177896,34.6155407 101.531422,32.9675407 101.531422,30.7061185 C101.531422,28.4187556 103.177896,26.7478667 105.144815,26.7478667 C107.085793,26.7478667 108.610193,28.4187556 108.610193,30.7061185 C108.610193,32.9675407 107.085793,34.6155407 105.144815,34.6155407 L105.144815,34.6155407 Z M142.348415,17.7021778 L135.526,17.7021778 L135.526,36.7777778 L138.371852,36.7777778 L138.371852,29.5509926 L142.346889,29.5509926 C145.502504,29.5509926 148.606237,27.2666815 148.606237,23.6273481 C148.606237,19.9880148 145.50403,17.7021778 142.348415,17.7021778 L142.348415,17.7021778 Z M142.421659,26.8958815 L138.371852,26.8958815 L138.371852,20.3572889 L142.421659,20.3572889 C144.550326,20.3572889 145.758859,22.1197333 145.758859,23.6273481 C145.758859,25.1044444 144.550326,26.8958815 142.421659,26.8958815 L142.421659,26.8958815 Z M160.018637,24.1568444 C157.957111,24.1568444 155.822341,25.0647704 154.93883,27.0774667 L157.465763,28.1318815 C158.005941,27.0774667 159.013052,26.7326074 160.067467,26.7326074 C161.539985,26.7326074 163.036919,27.6161185 163.061333,29.1862963 L163.061333,29.3831407 C162.54557,29.088637 161.4408,28.6476444 160.091881,28.6476444 C157.368104,28.6476444 154.59397,30.1445778 154.59397,32.9416 C154.59397,35.4944741 156.827926,37.1378963 159.330444,37.1378963 C161.243956,37.1378963 162.299896,36.2788 162.962148,35.2716889 L163.059807,35.2716889 L163.059807,36.7442074 L165.809526,36.7442074 L165.809526,29.4304444 C165.811052,26.0459407 163.281067,24.1568444 160.018637,24.1568444 L160.018637,24.1568444 Z M159.673778,34.610963 C158.742963,34.610963 157.441348,34.1440296 157.441348,32.9904296 C157.441348,31.5179111 159.061881,30.9533185 160.461156,30.9533185 C161.710889,30.9533185 162.301422,31.2234074 163.061333,31.5911556 C162.840074,33.3597037 161.318726,34.610963 159.673778,34.610963 L159.673778,34.610963 Z M175.822652,24.5734222 L172.558696,32.8439407 L172.461037,32.8439407 L169.073481,24.5734222 L166.00637,24.5734222 L171.086178,36.1323111 L168.18997,42.562563 L171.159422,42.562563 L178.988948,24.5734222 L175.822652,24.5734222 L175.822652,24.5734222 Z M150.177941,36.7777778 L153.023793,36.7777778 L153.023793,17.7021778 L150.177941,17.7021778 L150.177941,36.7777778 L150.177941,36.7777778 Z" id="Shape" fill="#FFFFFF"></path>
                            <g id="Group" transform="translate(0.733333, 1.681481)">
                                <path d="M2.19122963,0.820948148 C1.74718519,1.29093333 1.48472593,2.02032593 1.48472593,2.96487407 L1.48472593,36.7122519 C1.48472593,37.6583259 1.74718519,38.3861926 2.19122963,38.8561778 L2.30414815,38.9660444 L21.2088444,20.0613481 L21.2088444,19.838563 L21.2088444,19.6157778 L2.30414815,0.709555556 L2.19122963,0.820948148 L2.19122963,0.820948148 Z" id="Shape" fill="url(#linearGradient-2)"></path>
                                <path d="M27.5093926,26.3649481 L21.2088444,20.0613481 L21.2088444,19.838563 L21.2088444,19.6157778 L27.5109185,13.3137037 L27.6528296,13.3945778 L35.1191852,17.6366519 C37.2509037,18.848237 37.2509037,20.8304148 35.1191852,22.0435259 L27.6528296,26.2856 L27.5093926,26.3649481 L27.5093926,26.3649481 Z" id="Shape" fill="url(#linearGradient-3)"></path>
                                <path d="M27.6528296,26.2840741 L21.2073185,19.838563 L2.19122963,38.8561778 C2.89315556,39.6008296 4.05438519,39.6923852 5.3621037,38.9507852 L27.6528296,26.2840741" id="Shape" fill="url(#linearGradient-4)"></path>
                                <path d="M27.6528296,13.3930519 L5.3621037,0.727866667 C4.05438519,-0.0152592593 2.89315556,0.0778222222 2.19122963,0.822474074 L21.2088444,19.8400889 L27.6528296,13.3930519 L27.6528296,13.3930519 Z" id="Shape" fill="url(#linearGradient-5)"></path>
                                <g transform="translate(0.000000, 25.940741)" id="Shape" fill="#000000">
                                    <path d="M27.5109185,0.201422222 L5.3621037,12.7872593 C4.12305185,13.4907111 3.01522963,13.4434074 2.30414815,12.8040444 L2.30414815,12.8040444 L2.19122963,12.916963 L2.19122963,12.916963 L2.30414815,13.0268296 L2.30414815,13.0268296 C3.01522963,13.6677185 4.12305185,13.7150222 5.3621037,13.0100444 L27.6528296,0.344859259 L27.5109185,0.201422222 L27.5109185,0.201422222 Z" opacity="0.2"></path>
                                    <path d="M2.19122963,12.6926519 C1.74718519,12.2226667 1.48472593,11.4932741 1.48472593,10.5487259 L1.48472593,10.7715111 C1.48472593,11.7160593 1.74718519,12.4454519 2.19122963,12.915437 L2.30414815,12.8025185 L2.19122963,12.6926519 L2.19122963,12.6926519 Z" opacity="0.12"></path>
                                </g>
                                <path d="M35.1191852,21.8192148 L27.5109185,26.142163 L27.6528296,26.2840741 L35.1191852,22.042 C36.1858074,21.4362074 36.7183556,20.6381481 36.7183556,19.8400889 L36.7183556,19.8400889 C36.6283259,20.5618519 36.0850963,21.2683556 35.1191852,21.8192148 L35.1191852,21.8192148 Z" id="Shape" fill="#000000" opacity="0.12"></path>
                                <path d="M5.3621037,0.950651852 L35.1191852,17.8579111 C36.0866222,18.4072444 36.6283259,19.1152741 36.7183556,19.838563 L36.7183556,19.838563 C36.7183556,19.0405037 36.1858074,18.2409185 35.1191852,17.6351259 L5.3621037,0.727866667 C3.22885926,-0.483718519 1.48472593,0.523392593 1.48472593,2.96487407 L1.48472593,3.18765926 C1.48472593,0.746177778 3.22885926,-0.260933333 5.3621037,0.950651852 L5.3621037,0.950651852 Z" id="Shape" fill="#FFFFFF" opacity="0.25"></path>
                            </g>
                        </g>
                    </g>
                </g>
            </g>
        </g>
    </g>
</svg>