<?xml version="1.0" encoding="UTF-8"?>
<svg width="422px" height="350px" viewBox="0 0 422 350" version="1.1" xmlns="http://www.w3.org/2000/svg" xmlns:xlink="http://www.w3.org/1999/xlink">
    <!-- Generator: Sketch 48.1 (47250) - http://www.bohemiancoding.com/sketch -->
    <title>vlogit02</title>
    <desc>Created with Sketch.</desc>
    <defs></defs>
    <g id="white-vertical" stroke="none" stroke-width="1" fill="none" fill-rule="evenodd" transform="translate(-209.000000, -164.000000)">
        <g id="vlogit02" transform="translate(209.000000, 164.000000)">
            <g id="Group" transform="translate(136.000000, 0.000000)">
                <rect id="Rectangle-9" fill="#FF0000" x="0" y="0" width="149" height="149" rx="30"></rect>
                <g id="Group-2" transform="translate(33.000000, 17.000000)" fill="#FFFFFF">
                    <path d="M0,27.4421702 L22.001456,49.3956642 C24.5610854,51.9528168 24.9542025,55.8427883 23.1951246,58.8191105 L23.3749393,59 L55,27.440233 L27.4997573,0 L0,27.4421702" id="Fill-1"></path>
                    <polyline id="Fill-2" points="58.0503266 30 57.9506412 30 55 33 61 33 58.0503266 30"></polyline>
                    <polyline id="Fill-3" points="58.0497506 30 58 30.0494918 58.0990205 30.0494918 58.0497506 30"></polyline>
                    <polyline id="Fill-4" points="67.068739 39.0008609 64.138199 36 51.8637238 36 46 42 70 42 67.068739 39.0008609"></polyline>
                    <polyline id="Fill-5" points="75.0721408 48 72.1435612 45 41.8581197 45 36 51 78 51 75.0721408 48"></polyline>
                    <polyline id="Fill-6" points="84.8678405 57.000369 81.9002153 54 32.9379278 54 29.9698157 57.000369 27 60 82.165021 60 85 57.1332158 84.8678405 57.000369"></polyline>
                    <polyline id="Fill-7" points="23.9265835 64 18 70 73.0719586 70 79 64 23.9265835 64"></polyline>
                    <polyline id="Fill-8" points="14.9273596 73 9 79 64.0723974 79 70 73 14.9273596 73"></polyline>
                    <polyline id="Fill-9" points="5.92804136 82 2.96292726 85 0 88 55.0722016 88 58.0373157 85 61 82 5.92804136 82"></polyline>
                    <polyline id="Fill-10" points="3 91 5.96881895 94.000246 8.94007275 97 46.0616317 97 52 91 3 91"></polyline>
                    <polyline id="Fill-11" points="12 100 14.8987012 103.000615 17.798591 106 36.2011712 106 39.1008234 103.000615 42 100 12 100"></polyline>
                    <polyline id="Fill-12" points="21 109 23.0636584 111.06162 23.8615782 111.860885 26.0106358 114.007429 26.724564 114.722474 27.0004692 115 27.278486 114.722474 27.9910065 114.007429 30.1388911 111.860885 30.9375147 111.06162 33 109 21 109"></polyline>
                </g>
            </g>
            <path d="M95.7018187,221.236912 L67.2150363,221.236912 L48.1951605,276.40349 L29.3474102,221.236912 L0,221.236912 L32.7038589,305.796933 L63.4282737,305.796933 L95.7018187,221.236912 Z M125.61963,181.672131 L98.6819781,181.672131 L98.6819781,305.796933 L125.61963,305.796933 L125.61963,181.672131 Z M174.169774,218.909572 C200.591049,218.909572 220.041239,237.873083 220.041239,263.473823 C220.041239,289.074564 200.591049,308.038075 174.169774,308.038075 C147.834561,308.038075 128.384371,289.074564 128.384371,263.473823 C128.384371,237.873083 147.834561,218.909572 174.169774,218.909572 Z M175.170503,244.079323 C164.670843,244.079323 156.925193,252.095717 156.925193,263.473823 C156.925193,274.85193 164.670843,282.868324 175.170503,282.868324 C185.756226,282.868324 193.501877,274.85193 193.501877,263.473823 C193.501877,252.095717 185.756226,244.079323 175.170503,244.079323 Z M262.578986,218.909572 C273.681085,218.909572 281.168548,223.478054 286.160189,230.029085 L286.160189,221.236912 L312.237214,221.236912 L312.237214,297.694342 C312.237214,325.450026 294.077966,342 266.451811,342 C252.337514,342 237.965029,338.379693 227.895683,331.225278 L237.448652,309.762031 C245.71068,315.62348 254.575147,318.381809 264.55843,318.381809 C275.488404,318.381809 285.815938,312.347964 285.815938,298.901111 L285.815938,293.643046 C280.824297,300.021682 273.422897,304.331571 262.578986,304.331571 C239.944473,304.331571 223.420418,285.626653 223.420418,261.66367 C223.420418,237.700687 239.944473,218.909572 262.578986,218.909572 Z M269.948362,243.562136 C259.448702,243.562136 252.219428,251.319937 252.219428,261.66367 C252.219428,271.921206 259.448702,279.765204 269.948362,279.765204 C280.103771,279.765204 287.160919,272.093601 287.160919,261.66367 C287.160919,251.233739 280.103771,243.562136 269.948362,243.562136 Z M343.412672,221.236912 L316.47502,221.236912 L316.47502,305.796933 L343.412672,305.796933 L343.412672,221.236912 Z M329.814752,179 C338.851345,179 345.908493,186.068218 345.908493,195.205182 C345.908493,204.255949 338.851345,211.237969 329.814752,211.237969 C320.692097,211.237969 313.721011,204.255949 313.721011,195.205182 C313.721011,186.068218 320.692097,179 329.814752,179 Z M414.942851,221.236912 L414.942851,245.113696 L386.111818,245.113696 L386.111818,269.852459 C386.111818,279.592808 391.275585,282.868324 398.074545,282.868324 C403.066187,282.868324 408.488143,280.109995 412.705219,277.610259 L422,298.642517 C414.082224,304.159175 405.648071,308.038075 392.05015,308.038075 C369.415637,308.038075 359.174166,294.505024 359.174166,273.30037 L359.174166,245.113696 L343.424676,245.113696 L343.424676,221.236912 L359.174166,221.236912 L359.174166,196.584347 L386.111818,196.584347 L386.111818,221.236912 L414.942851,221.236912 Z" id="vlogit" fill="#313C48"></path>
            <text id="by-filmora" font-family="MarkPro-Heavy, Mark Pro" font-size="35" font-weight="600" letter-spacing="-1.20000005" fill="#2D3D48">
                <tspan x="59.2425002" y="342">by filmor</tspan>
                <tspan x="195.6175" y="342">a</tspan>
            </text>
        </g>
    </g>
</svg>