<?xml version="1.0" encoding="UTF-8" standalone="no"?>
<svg width="224px" height="39px" viewBox="0 0 224 39" version="1.1" xmlns="http://www.w3.org/2000/svg" xmlns:xlink="http://www.w3.org/1999/xlink">
    <!-- Generator: Sketch 41 (35326) - http://www.bohemiancoding.com/sketch -->
    <title>Page 1</title>
    <desc>Created with Sketch.</desc>
    <defs>
        <polygon id="path-1" points="0 38.4979002 223.674533 38.4979002 223.674533 -0.000262213339 0 -0.000262213339"></polygon>
    </defs>
    <g id="Filmora_Homepage" stroke="none" stroke-width="1" fill="none" fill-rule="evenodd">
        <g id="FCOM_HomePage_01" transform="translate(-1196.000000, -655.000000)">
            <g id="Page-1" transform="translate(1196.237120, 654.940720)">
                <path d="M0,9.17274702 L7.33541816,16.4989877 C8.18498938,17.3544587 8.31675158,18.6517592 7.73398243,19.6468588 L7.7903583,19.7071679 L9.16697833,18.3305479 L18.3300235,9.17274702 L9.16697833,-0.000131106669 L0,9.17274702 L0,9.17274702 Z" id="Fill-1" fill="#FFFFFF"></path>
                <polygon id="Fill-3" fill="#EF554D" points="19.2648796 10.1016378 19.2307918 10.1016378 18.241592 11.0869044 20.2501462 11.0869044"></polygon>
                <polygon id="Fill-5" fill="#73C9C3" points="19.2459347 10.0828895 19.2308574 10.1019 19.2649451 10.1019"></polygon>
                <polygon id="Fill-7" fill="#EF554D" points="22.2998023 13.1329551 21.3125691 12.1476885 17.1813979 12.1476885 16.1961313 13.1329551 15.2088981 14.1221549 23.2850689 14.1221549"></polygon>
                <polygon id="Fill-9" fill="#EF554D" points="25.3348562 16.1717455 24.3495895 15.1864788 14.1481796 15.1864788 13.1609464 16.1717455 12.1717465 17.1570121 26.3220894 17.1570121"></polygon>
                <polygon id="Fill-11" fill="#EF554D" points="28.3697133 19.2066682 27.3844467 18.2214016 11.1134535 18.2214016 10.1222871 19.2066682 9.13833152 20.1939014 27.4729437 20.1939014 28.4149451 19.2479668"></polygon>
                <polygon id="Fill-13" fill="#EF554D" points="8.07630195 21.2563243 7.09103533 22.2435575 6.1038021 23.2307908 24.4357922 23.2307908 25.424992 22.2435575 26.4102586 21.2563243"></polygon>
                <polygon id="Fill-15" fill="#EF554D" points="5.04118255 24.2932137 4.05591593 25.2765137 3.06671611 26.2637469 21.4006728 26.2637469 22.3865949 25.2765137 23.371206 24.2932137"></polygon>
                <polygon id="Fill-17" fill="#EF554D" points="2.01019301 27.3263009 1.02295979 28.3135341 0.0357265674 29.2935565 18.36575 29.2935565 19.3510167 28.3135341 20.3382499 27.3263009"></polygon>
                <polygon id="Fill-19" fill="#EF554D" points="1.02472973 30.3613548 2.01392955 31.3446548 2.99919617 32.3358212 15.3310895 32.3358212 16.3163561 31.3446548 17.3016227 30.3613548"></polygon>
                <polygon id="Fill-21" fill="#EF554D" points="4.06161907 33.3924754 5.04885229 34.3816752 6.03411891 35.3669418 12.2957734 35.3669418 13.2849733 34.3816752 14.2682733 33.3924754"></polygon>
                <polygon id="Fill-23" fill="#EF554D" points="7.0983773 36.4294303 7.80569778 37.1380618 8.08364392 37.4205967 8.82505214 38.1593828 9.06694394 38.4019301 9.16724054 38.497638 9.26098181 38.4019301 9.50549575 38.1593828 10.2462484 37.4205967 10.5228835 37.1380618 11.2315151 36.4294303"></polygon>
                <path d="M55.5772316,9.18854538 C54.9105542,9.01614011 54.4182486,8.93419844 53.5483559,8.93419844 C52.2313894,8.93419844 50.9091786,9.14003591 50.9091786,11.4547242 L50.9091786,13.5622639 L55.5772316,13.5622639 L55.5772316,18.9232156 L50.9485106,18.9232156 L50.9485106,33.4839223 L44.6245804,33.4839223 L44.6245804,18.9232156 L41.0302911,18.9232156 L41.0302911,13.5622639 L44.6245804,13.5622639 L44.6245804,11.8218228 C44.6245804,4.64504375 49.0500861,4.10226214 51.8524911,4.10226214 C53.7548489,4.10226214 54.8312347,4.35070927 55.5772316,4.64504375 L55.5772316,9.18854538 Z" id="Fill-25" fill="#FFFFFF"></path>
                <mask id="mask-2" fill="white">
                    <use xlink:href="#path-1"></use>
                </mask>
                <g id="Clip-28"></g>
                <path d="M57.7472436,33.4837256 L64.0711738,33.4837256 L64.0711738,13.5627227 L57.7472436,13.5627227 L57.7472436,33.4837256 Z M60.861027,3.71005653 C62.9620114,3.71005653 64.575279,5.32594623 64.575279,7.35219981 C64.575279,9.32994392 62.9620114,10.9851656 60.861027,10.9851656 C58.8000302,10.9851656 57.1861071,9.32994392 57.1861071,7.35219981 C57.1861071,5.32594623 58.8000302,3.71005653 60.861027,3.71005653 L60.861027,3.71005653 Z" id="Fill-27" fill="#FFFFFF" mask="url(#mask-2)"></path>
                <polygon id="Fill-29" fill="#FFFFFF" mask="url(#mask-2)" points="66.6703636 33.4830701 72.9942938 33.4830701 72.9942938 4.55700562 66.6703636 4.55700562"></polygon>
                <path d="M100.307222,33.4835945 L100.307222,22.740714 C100.307222,20.0504052 99.3999636,18.4338599 97.2498143,18.4338599 C95.3507342,18.4338599 93.9046276,19.6321749 93.9046276,23.4781891 L93.9046276,33.4835945 L87.7865349,33.4835945 L87.7865349,22.6954822 C87.7865349,20.0051734 86.9192642,18.4338599 84.771737,18.4338599 C82.8726569,18.4338599 81.3813185,19.6774067 81.3813185,23.6020849 L81.3813185,33.4835945 L75.2665035,33.4835945 L75.2665035,13.5625916 L81.3813185,13.5625916 L81.3813185,16.4508716 C82.2512113,14.6756873 84.1162037,13.0597976 87.2896406,13.0597976 C90.2710063,13.0597976 92.2907045,14.4665721 93.1612528,16.6626088 C94.1471749,14.7609066 96.0914868,13.0597976 99.6464442,13.0597976 C105.187012,13.0597976 106.382705,17.2021128 106.382705,21.2034883 L106.382705,33.4835945 L100.307222,33.4835945 Z" id="Fill-30" fill="#FFFFFF" mask="url(#mask-2)"></path>
                <path d="M123.871024,23.5203398 C123.871024,20.7507115 121.971943,18.4340566 119.081697,18.4340566 C116.233404,18.4340566 114.365134,20.7507115 114.365134,23.5203398 C114.365134,26.3286447 116.233404,28.6066231 119.081697,28.6066231 C121.971943,28.6066231 123.871024,26.3286447 123.871024,23.5203398 M108.047104,23.5203398 C108.047104,17.8211329 112.217607,13.0311508 119.118407,13.0311508 C126.018551,13.0311508 130.149722,17.8211329 130.149722,23.5203398 C130.149722,29.2228244 126.018551,34.0095289 119.118407,34.0095289 C112.217607,34.0095289 108.047104,29.2228244 108.047104,23.5203398" id="Fill-31" fill="#FFFFFF" mask="url(#mask-2)"></path>
                <path d="M146.18256,19.3042771 C145.317911,19.1010618 144.78103,19.0191201 144.037655,19.0191201 C140.482697,19.0191201 138.208652,20.796271 138.208652,25.7075269 L138.208652,33.4834634 L131.887344,33.4834634 L131.887344,13.5624605 L138.208652,13.5624605 L138.208652,16.7837514 C139.115255,14.927281 141.475175,13.2320717 144.368699,13.2320717 C145.029477,13.2320717 145.606346,13.3140134 146.18256,13.5624605 L146.18256,19.3042771 Z" id="Fill-32" fill="#FFFFFF" mask="url(#mask-2)"></path>
                <path d="M162.424513,23.5203398 C162.424513,20.7965988 160.522811,18.4340566 157.671896,18.4340566 C154.817704,18.4340566 152.918624,20.7965988 152.918624,23.5203398 C152.918624,26.2893127 154.817704,28.6066231 157.671896,28.6066231 C160.522811,28.6066231 162.424513,26.2893127 162.424513,23.5203398 L162.424513,23.5203398 Z M168.748443,13.5627883 L168.748443,33.4837912 L162.424513,33.4837912 L162.424513,30.6695865 C161.430069,32.4886916 159.112758,33.9806855 156.057973,33.9806855 C150.768475,33.9806855 146.643203,29.4738937 146.643203,23.5203398 C146.643203,17.5694081 150.768475,13.0593387 156.057973,13.0593387 C158.994107,13.0593387 161.350749,14.4667688 162.424513,16.416325 L162.424513,13.5627883 L168.748443,13.5627883 Z" id="Fill-33" fill="#FFFFFF" mask="url(#mask-2)"></path>
                <path d="M197.497973,8.53930515 L192.651614,13.3050326 C191.225829,11.7769844 189.209409,10.8002397 186.562365,10.8002397 C182.000509,10.8002397 178.720875,14.2208127 178.720875,19.190411 C178.720875,24.6687032 182.34663,27.7438101 186.582687,27.7438101 C190.635194,27.7438101 192.997736,25.9515819 193.791587,22.591318 L186.846867,22.591318 L186.846867,17.3372182 L200.532436,17.3372182 C200.634044,18.090426 200.675343,18.7826692 200.675343,19.4749125 C200.675343,28.5986256 194.158686,33.9549886 186.826545,33.9549886 C178.334766,33.9549886 171.715846,28.0899317 171.715846,19.190411 C171.715846,10.5347487 178.008311,4.40485633 186.888165,4.40485633 C191.408723,4.40485633 195.013501,5.95257056 197.497973,8.53930515" id="Fill-34" fill="#EF554D" mask="url(#mask-2)"></path>
                <path d="M208.502673,23.4465923 C208.502673,26.1349346 210.334889,28.0287704 212.820016,28.0287704 C215.324809,28.0287704 217.15768,26.1349346 217.15768,23.4465923 C217.15768,20.7582501 215.324809,18.8644142 212.820016,18.8644142 C210.334889,18.8644142 208.502673,20.7582501 208.502673,23.4465923 M223.674337,23.4465923 C223.674337,29.4951985 219.071837,33.975769 212.820016,33.975769 C206.58786,33.975769 201.986016,29.4951985 201.986016,23.4465923 C201.986016,17.3979861 206.58786,12.9174157 212.820016,12.9174157 C219.071837,12.9174157 223.674337,17.3979861 223.674337,23.4465923" id="Fill-35" fill="#EF554D" mask="url(#mask-2)"></path>
            </g>
        </g>
    </g>
</svg>