<?xml version="1.0" encoding="utf-8"?>
<!-- Generator: Adobe Illustrator 19.0.0, SVG Export Plug-In . SVG Version: 6.00 Build 0)  -->
<svg version="1.1" id="图层_1" xmlns="http://www.w3.org/2000/svg" xmlns:xlink="http://www.w3.org/1999/xlink" x="0px" y="0px"
	 viewBox="83 367 60 60" style="enable-background:new 83 367 60 60;" xml:space="preserve">
<style type="text/css">
	.st0{fill:#EF3062;}
	.st1{fill:#FFFFFF;}
</style>
<title>filmora_screen_brand_For Dark Background</title>
<desc>Created with Sketch.</desc>
<polyline id="Fill-2" class="st0" points="120.9,382.5 120.8,382.5 119.3,384 122.4,384 120.9,382.5 "/>
<polyline id="Fill-4" class="st0" points="125.6,387.2 124,385.7 117.7,385.7 116.1,387.2 114.6,388.7 127.1,388.7 125.6,387.2 "/>
<polyline id="Fill-5" class="st0" points="130.2,391.9 128.7,390.4 113,390.4 111.5,391.9 109.9,393.4 131.8,393.4 130.2,391.9 "/>
<polyline id="Fill-6" class="st0" points="134.9,396.6 133.4,395 108.3,395 106.8,396.6 105.3,398.1 133.5,398.1 135,396.6 
	134.9,396.6 "/>
<polyline id="Fill-7" class="st0" points="103.6,399.7 102.1,401.2 100.6,402.8 128.8,402.8 130.4,401.2 131.9,399.7 103.6,399.7 
	"/>
<polyline id="Fill-8" class="st0" points="98.9,404.4 95.9,407.4 124.2,407.4 125.7,405.9 127.2,404.4 98.9,404.4 "/>
<polyline id="Fill-9" class="st0" points="94.3,409.1 92.7,410.6 91.2,412.1 119.5,412.1 121,410.6 122.5,409.1 94.3,409.1 "/>
<polyline id="Fill-10" class="st0" points="92.7,413.8 94.3,415.3 95.8,416.8 114.8,416.8 116.3,415.3 117.8,413.8 92.7,413.8 "/>
<polyline id="Fill-11" class="st0" points="97.4,418.4 99,420 100.5,421.5 110.1,421.5 111.7,420 113.2,418.4 97.4,418.4 "/>
<polyline id="Fill-12" class="st0" points="102.1,423.1 103.2,424.2 103.6,424.7 104.8,425.8 105.1,426.2 105.3,426.3 105.4,426.2 
	105.8,425.8 107,424.7 107.4,424.2 108.5,423.1 102.1,423.1 "/>
<path id="Fill-20" class="st1" d="M91.2,381.1l11.3,11.3c1.3,1.3,1.5,3.3,0.6,4.8l0.1,0.1l16.2-16.2L105.3,367L91.2,381.1"/>
</svg>
