<?xml version="1.0" encoding="UTF-8" standalone="no"?>
<svg width="175px" height="53px" viewBox="0 0 175 53" version="1.1" xmlns="http://www.w3.org/2000/svg" xmlns:xlink="http://www.w3.org/1999/xlink">
    <!-- Generator: sketchtool 40.1 (33804) - http://www.bohemiancoding.com/sketch -->
    <title>DF9756CE-2485-42CB-8C44-A2327421A67B</title>
    <desc>Created with sketchtool.</desc>
    <defs>
        <filter x="-50%" y="-50%" width="200%" height="200%" filterUnits="objectBoundingBox" id="filter-1">
            <feOffset dx="0" dy="2" in="SourceAlpha" result="shadowOffsetOuter1"></feOffset>
            <feGaussianBlur stdDeviation="2" in="shadowOffsetOuter1" result="shadowBlurOuter1"></feGaussianBlur>
            <feColorMatrix values="0 0 0 0 0   0 0 0 0 0   0 0 0 0 0  0 0 0 0.5 0" type="matrix" in="shadowBlurOuter1" result="shadowMatrixOuter1"></feColorMatrix>
            <feMerge>
                <feMergeNode in="shadowMatrixOuter1"></feMergeNode>
                <feMergeNode in="SourceGraphic"></feMergeNode>
            </feMerge>
        </filter>
    </defs>
    <g id="Page-1" stroke="none" stroke-width="1" fill="none" fill-rule="evenodd">
        <g id="FGOCOM_LandingPageï¼update" transform="translate(-1002.000000, -506.000000)" fill="#FFFFFF">
            <g id="Group-6" filter="url(#filter-1)" transform="translate(727.200000, 498.475397)">
                <g id="Download_on_the_App_Store_Badge_US-UK_135x40" transform="translate(259.520777, 0.658245)">
                    <g id="Group-11" transform="translate(19.000000, 9.000000)">
                        <path d="M26.7563822,21.04661 C26.7123389,16.1517341 30.7643181,13.7703611 30.9496035,13.6579748 C28.6547982,10.3122064 25.0979259,9.85506786 23.8480088,9.82013701 C20.8606614,9.50575932 17.9629192,11.6076855 16.4411489,11.6076855 C14.889004,11.6076855 12.5440805,9.85051166 10.0199466,9.90214858 C6.77137709,9.95226676 3.72935527,11.8339767 2.06178664,14.7560186 C-1.37966191,20.7140075 1.18699654,29.4695021 4.48416547,34.2854039 C6.13350931,36.6439959 8.06078125,39.2774786 10.5818777,39.1848359 C13.0498185,39.0815621 13.9716894,37.60991 16.9514431,37.60991 C19.902341,37.60991 20.7680187,39.1848359 23.3407521,39.1256053 C25.9894221,39.0815621 27.6569907,36.7563822 29.2486227,34.3765278 C31.1546324,31.6716647 31.9200737,29.0093261 31.9504484,28.8726401 C31.8881803,28.8528966 26.8065003,26.9134748 26.7563822,21.04661" id="Fill-5"></path>
                        <path d="M21.8964372,6.65206036 C23.2222909,4.9920854 24.1304931,2.73372971 23.8783835,0.441961893 C21.9571865,0.52701093 19.5545512,1.76933437 18.1725043,3.39437848 C16.9484057,4.82502479 15.854918,7.16994825 16.1374023,9.37514829 C18.2955217,9.53613397 20.5113528,8.28621687 21.8964372,6.65206036" id="Fill-6"></path>
                        <path d="M56.5645511,30.4187101 L54.8559767,25.1426323 C54.6752474,24.6019635 54.33657,23.3323028 53.8353882,21.3336505 L53.7761576,21.3336505 C53.5772036,22.194772 53.256751,23.4629139 52.8163185,25.1426323 L51.1381187,30.4187101 L56.5645511,30.4187101 L56.5645511,30.4187101 Z M62.4724217,38.8461585 L59.0233795,38.8461585 L57.1340759,32.9094319 L50.5685939,32.9094319 L48.7688955,38.8461585 L45.4109773,38.8461585 L51.9172287,18.6348622 L55.9357957,18.6348622 L62.4724217,38.8461585 L62.4724217,38.8461585 Z" id="Fill-7"></path>
                        <path d="M75.9056134,31.4985292 C75.9056134,30.0800327 75.5866795,28.9106085 74.9457743,27.9902564 C74.2456385,27.031936 73.3070616,26.5504977 72.1270062,26.5504977 C71.3281527,26.5504977 70.6021984,26.8177946 69.9536995,27.3463137 C69.3036819,27.8763514 68.8784367,28.5704123 68.6794827,29.4315338 C68.5792463,29.8309605 68.5291282,30.1605256 68.5291282,30.4187101 L68.5291282,32.8486826 C68.5291282,33.9087581 68.854137,34.8032918 69.5041546,35.5322835 C70.1541723,36.262794 70.9985877,36.6272899 72.037401,36.6272899 C73.2569434,36.6272899 74.2076701,36.1564827 74.8865437,35.2179058 C75.5654173,34.2778102 75.9056134,33.0385242 75.9056134,31.4985292 L75.9056134,31.4985292 Z M79.2043011,31.380068 C79.2043011,33.85864 78.5345399,35.8178053 77.1950176,37.2560453 C75.9952187,38.536337 74.5068605,39.1757235 72.7269057,39.1757235 C70.8087461,39.1757235 69.4297367,38.4862188 68.5898775,37.1056907 L68.5291282,37.1056907 L68.5291282,44.7828851 L65.2911898,44.7828851 L65.2911898,29.0700754 C65.2911898,27.5118555 65.250184,25.9126299 65.1712099,24.2723984 L68.0188339,24.2723984 L68.1995631,26.5823911 L68.2603125,26.5823911 C69.3386127,24.8419233 70.9788442,23.9732081 73.1764506,23.9732081 C74.8971748,23.9732081 76.3308586,24.6520817 77.4805394,26.0113475 C78.6302201,27.3721321 79.2043011,29.1611994 79.2043011,31.380068 L79.2043011,31.380068 Z" id="Fill-8"></path>
                        <path d="M92.6678675,31.4985292 C92.6678675,30.0800327 92.3474149,28.9106085 91.7080283,27.9902564 C91.0078925,27.031936 90.0693156,26.5504977 88.8892602,26.5504977 C88.088888,26.5504977 87.3644525,26.8177946 86.7144349,27.3463137 C86.0659359,27.8763514 85.6422095,28.5704123 85.4417368,29.4315338 C85.3430191,29.8309605 85.2913822,30.1605256 85.2913822,30.4187101 L85.2913822,32.8486826 C85.2913822,33.9087581 85.616391,34.8032918 86.2633712,35.5322835 C86.9133888,36.262794 87.759323,36.6272899 88.799655,36.6272899 C90.0191974,36.6272899 90.9684055,36.1564827 91.647279,35.2179058 C92.3276713,34.2778102 92.6678675,33.0385242 92.6678675,31.4985292 L92.6678675,31.4985292 Z M95.9665551,31.380068 C95.9665551,33.85864 95.296794,35.8178053 93.9557529,37.2560453 C92.7574727,38.536337 91.2675958,39.1757235 89.4891597,39.1757235 C87.5694814,39.1757235 86.190472,38.4862188 85.3521315,37.1056907 L85.2913822,37.1056907 L85.2913822,44.7828851 L82.0534439,44.7828851 L82.0534439,29.0700754 C82.0534439,27.5118555 82.0124381,25.9126299 81.933464,24.2723984 L84.7826067,24.2723984 L84.9618172,26.5823911 L85.0225665,26.5823911 C86.1008668,24.8419233 87.7380608,23.9732081 89.9387046,23.9732081 C91.6563914,23.9732081 93.0931127,24.6520817 94.2427934,26.0113475 C95.3909554,27.3721321 95.9665551,29.1611994 95.9665551,31.380068 L95.9665551,31.380068 Z" id="Fill-9"></path>
                        <path d="M114.707718,33.1797664 C114.707718,34.8974532 114.110856,36.2962061 112.912576,37.3760251 C111.595835,38.5575993 109.762724,39.1453489 107.407169,39.1453489 C105.233863,39.1453489 103.488839,38.7261786 102.16906,37.8863194 L102.919314,35.1875312 C104.340848,36.0471339 105.900586,36.4769353 107.600048,36.4769353 C108.819591,36.4769353 109.768799,36.2020447 110.45071,35.6507447 C111.131102,35.1009634 111.468261,34.364378 111.468261,33.4425072 C111.468261,32.6223914 111.190333,31.931368 110.628402,31.3709556 C110.071027,30.8105432 109.140044,30.2896178 107.841527,29.8081795 C104.30288,28.4884007 102.533556,26.5550539 102.533556,24.0111764 C102.533556,22.3512014 103.154718,20.9888981 104.394004,19.9273039 C105.630252,18.8657096 107.279596,18.3356719 109.342035,18.3356719 C111.18122,18.3356719 112.709066,18.6546058 113.927089,19.2939923 L113.117605,21.9335499 C111.978555,21.3139069 110.69067,21.0040854 109.249392,21.0040854 C108.110343,21.0040854 107.220365,21.2835323 106.582497,21.8439447 C106.043347,22.3436078 105.773013,22.9526196 105.773013,23.6740177 C105.773013,24.4728712 106.081316,25.13352 106.702477,25.6514078 C107.241628,26.1328461 108.22121,26.6522528 109.641225,27.2126652 C111.380174,27.912801 112.657429,28.731398 113.479063,29.6699749 C114.299179,30.6100705 114.707718,31.7810135 114.707718,33.1797664" id="Fill-10"></path>
                        <path d="M125.413266,26.7023709 L121.844244,26.7023709 L121.844244,33.7781471 C121.844244,35.5778455 122.472999,36.4769353 123.733547,36.4769353 C124.312184,36.4769353 124.793623,36.4268171 125.173306,36.3280995 L125.261392,38.7869279 C124.623525,39.025369 123.785184,39.1453489 122.743333,39.1453489 C121.46456,39.1453489 120.465234,38.7550345 119.743836,37.9774433 C119.026994,37.1968147 118.664017,35.887667 118.664017,34.0484816 L118.664017,26.7023709 L116.537791,26.7023709 L116.537791,24.2723984 L118.664017,24.2723984 L118.664017,21.6039849 L121.844244,20.6441458 L121.844244,24.2723984 L125.413266,24.2723984 L125.413266,26.7023709" id="Fill-11"></path>
                        <path d="M138.156953,31.5440912 C138.156953,30.2015313 137.868393,29.0488131 137.286719,28.0859365 C136.607845,26.9225872 135.637375,26.3424313 134.379864,26.3424313 C133.07831,26.3424313 132.089615,26.9225872 131.410742,28.0859365 C130.829067,29.0488131 130.542026,30.2197561 130.542026,31.6048405 C130.542026,32.948919 130.829067,34.1016372 131.410742,35.0629951 C132.110877,36.2248257 133.09046,36.8065003 134.351008,36.8065003 C135.587257,36.8065003 136.557727,36.2157133 137.257863,35.0326204 C137.856244,34.051519 138.156953,32.886651 138.156953,31.5440912 L138.156953,31.5440912 Z M141.51639,31.4392986 C141.51639,33.6794295 140.877003,35.5186149 139.59823,36.9568549 C138.257189,38.4361007 136.477234,39.1757235 134.258366,39.1757235 C132.11999,39.1757235 130.41749,38.4664753 129.14783,37.0464601 C127.878169,35.6279637 127.243339,33.8373777 127.243339,31.6792584 C127.243339,29.4209027 127.896394,27.5710861 129.20706,26.1328461 C130.514689,24.6930874 132.279457,23.9732081 134.498325,23.9732081 C136.63822,23.9732081 138.357425,24.6824563 139.657461,26.1024715 C140.896747,27.4814809 141.51639,29.259917 141.51639,31.4392986 L141.51639,31.4392986 Z" id="Fill-12"></path>
                        <path d="M152.041208,27.1200225 C151.720755,27.0607919 151.380559,27.031936 151.02062,27.031936 C149.88157,27.031936 149.000705,27.4617374 148.381062,28.3213401 C147.840393,29.0807065 147.571577,30.0405457 147.571577,31.1993388 L147.571577,38.8461585 L144.335158,38.8461585 L144.364014,28.862009 C144.364014,27.1807718 144.323008,25.6514078 144.242515,24.2723984 L147.064321,24.2723984 L147.182782,27.0607919 L147.270868,27.0607919 C147.612583,26.1024715 148.153252,25.3309552 148.891356,24.7538367 C149.611236,24.2329114 150.391864,23.9732081 151.231723,23.9732081 C151.530914,23.9732081 151.801248,23.9944703 152.041208,24.0324387 L152.041208,27.1200225" id="Fill-13"></path>
                        <path d="M163.434742,30.0299145 C163.456004,29.0700754 163.2449,28.242366 162.805986,27.5407115 C162.245574,26.6416216 161.384452,26.1920767 160.225659,26.1920767 C159.167102,26.1920767 158.305981,26.6309905 157.64837,27.5118555 C157.107701,28.2119914 156.787248,29.0518506 156.690049,30.0299145 L163.434742,30.0299145 L163.434742,30.0299145 Z M166.522325,30.8697738 C166.522325,31.4499297 166.484357,31.9389617 166.403864,32.3383884 L156.690049,32.3383884 C156.728017,33.7781471 157.197306,34.8792284 158.097914,35.6385948 C158.916511,36.3174684 159.976587,36.6576645 161.275104,36.6576645 C162.713344,36.6576645 164.025529,36.4268171 165.205584,35.9666411 L165.712841,38.2158844 C164.333831,38.8157839 162.70575,39.116493 160.827077,39.116493 C158.567203,39.116493 156.793323,38.451288 155.5024,37.120878 C154.216033,35.7919868 153.569053,34.0074758 153.569053,31.7688636 C153.569053,29.5697385 154.167434,27.7396655 155.37027,26.281682 C156.627781,24.7219434 158.327243,23.9428334 160.465619,23.9428334 C162.566026,23.9428334 164.15614,24.7219434 165.235959,26.281682 C166.092524,27.5209679 166.522325,29.0518506 166.522325,30.8697738 L166.522325,30.8697738 Z" id="Fill-14"></path>
                        <path d="M53.8156447,6.24503997 C53.8156447,5.08624683 53.5088606,4.19778814 52.8937739,3.57814515 C52.2802058,2.9600209 51.3841534,2.6501994 50.2056168,2.6501994 C49.704435,2.6501994 49.2761523,2.68513026 48.9238063,2.75347323 L48.9238063,10.178558 C49.1197228,10.2089326 49.4781438,10.2226012 49.9990691,10.2226012 C51.2170928,10.2226012 52.1571884,9.88392379 52.8208747,9.20656895 C53.4830422,8.52921412 53.8156447,7.54203779 53.8156447,6.24503997 L53.8156447,6.24503997 Z M55.4938444,6.20099672 C55.4938444,7.98854524 54.9592505,9.33414251 53.8885439,10.2377885 C52.8952926,11.0715728 51.4874273,11.4892244 49.6603917,11.4892244 C48.7567457,11.4892244 47.9806732,11.4497373 47.3321743,11.3722819 L47.3321743,1.60379249 C48.1781085,1.46710654 49.0893482,1.39876356 50.073487,1.39876356 C51.8109174,1.39876356 53.1231025,1.77692803 54.007005,2.53325697 C54.9972188,3.38678482 55.4938444,4.60936473 55.4938444,6.20099672 L55.4938444,6.20099672 Z" id="Fill-15"></path>
                        <path d="M62.7412374,7.81389096 C62.7412374,7.15476092 62.5984765,6.58827358 62.3129548,6.11594768 C61.9803523,5.54338541 61.5034702,5.25786364 60.8853459,5.25786364 C60.2459594,5.25786364 59.7599649,5.54338541 59.4258437,6.11594768 C59.1418406,6.58827358 58.9990798,7.16387332 58.9990798,7.84274689 C58.9990798,8.50339566 59.1418406,9.069883 59.4258437,9.54372764 C59.770596,10.1132524 60.2505156,10.3987742 60.8701586,10.3987742 C61.4791704,10.3987742 61.9545338,10.1086962 62.2992862,9.52854031 C62.5939203,9.04558327 62.7412374,8.47453974 62.7412374,7.81389096 L62.7412374,7.81389096 Z M64.3921,7.76225405 C64.3921,8.86333534 64.0777223,9.76546263 63.4489669,10.4731921 C62.7898369,11.2006651 61.9165655,11.5636423 60.8261153,11.5636423 C59.7751522,11.5636423 58.9383305,11.2158525 58.3141313,10.5172354 C57.6914508,9.82013701 57.3785919,8.94079071 57.3785919,7.88071521 C57.3785919,6.77052152 57.6990445,5.8623193 58.3429872,5.15458981 C58.9869299,4.44686032 59.8526076,4.09451431 60.9430578,4.09451431 C61.9955396,4.09451431 62.8384363,4.44382285 63.4778228,5.14092121 C64.085316,5.81827605 64.3921,6.69306615 64.3921,7.76225405 L64.3921,7.76225405 Z" id="Fill-16"></path>
                        <path d="M76.323265,4.24183139 L74.0831341,11.4011379 L72.6266693,11.4011379 L71.6972048,8.2922918 C71.4618012,7.51621933 71.2704409,6.7462218 71.1216051,5.97926173 L71.0942679,5.97926173 C70.9560632,6.76596532 70.7647029,7.53748159 70.5186681,8.2922918 L69.5314918,11.4011379 L68.058321,11.4011379 L65.9518386,4.24183139 L67.5875138,4.24183139 L68.3969984,7.64379289 C68.5929149,8.45024001 68.7554193,9.21568135 68.8845116,9.94315437 L68.9118488,9.94315437 C69.03031,9.34477364 69.2262265,8.58236977 69.5026359,7.65898022 L70.5186681,4.24183139 L71.8141472,4.24183139 L72.787655,7.58608104 C73.0230585,8.40164056 73.2144189,9.18682542 73.361736,9.94315437 L73.4057792,9.94315437 C73.5136092,9.20656895 73.6761137,8.42138409 73.8932925,7.58608104 L74.7620076,4.24183139 L76.323265,4.24183139" id="Fill-17"></path>
                        <path d="M84.5745403,11.4011379 L82.9829083,11.4011379 L82.9829083,7.30055927 C82.9829083,6.03697357 82.5029888,5.40518072 81.5401122,5.40518072 C81.0677863,5.40518072 80.6850656,5.579835 80.3904314,5.92762481 C80.0957973,6.27541462 79.9484802,6.68395375 79.9484802,7.15476092 L79.9484802,11.4011379 L78.3568482,11.4011379 L78.3568482,6.28908322 C78.3568482,5.66032784 78.3371047,4.9784168 78.2991363,4.24183139 L79.6978893,4.24183139 L79.7723072,5.36113747 L79.8163504,5.36113747 C80.0016358,5.01334766 80.2780452,4.72478842 80.6410223,4.4969785 C81.0723425,4.22816279 81.5552995,4.09451431 82.0838185,4.09451431 C82.7520609,4.09451431 83.3079172,4.31017437 83.7498684,4.74301322 C84.2996497,5.27305097 84.5745403,6.06279203 84.5745403,7.11375514 L84.5745403,11.4011379" id="Fill-18"></path>
                        <polygon id="Fill-19" points="87.3735649 11.4011379 88.9636781 11.4011379 88.9636781 0.956812316 87.3735649 0.956812316"></polygon>
                        <path d="M96.6818783,7.81389096 C96.6818783,7.15476092 96.5391174,6.58827358 96.2551144,6.11594768 C95.9225119,5.54338541 95.4441111,5.25786364 94.8275055,5.25786364 C94.1866003,5.25786364 93.7006058,5.54338541 93.3680033,6.11594768 C93.0840003,6.58827358 92.9412394,7.16387332 92.9412394,7.84274689 C92.9412394,8.50339566 93.0840003,9.069883 93.3680033,9.54372764 C93.7127556,10.1132524 94.1926752,10.3987742 94.8123182,10.3987742 C95.4213301,10.3987742 95.8951747,10.1086962 96.239927,9.52854031 C96.5360799,9.04558327 96.6818783,8.47453974 96.6818783,7.81389096 L96.6818783,7.81389096 Z M98.3342596,7.76225405 C98.3342596,8.86333534 98.0198819,9.76546263 97.3911265,10.4731921 C96.7319965,11.2006651 95.8572064,11.5636423 94.768275,11.5636423 C93.7157931,11.5636423 92.8789713,11.2158525 92.2562909,10.5172354 C91.6336104,9.82013701 91.3222702,8.94079071 91.3222702,7.88071521 C91.3222702,6.77052152 91.6427228,5.8623193 92.2851468,5.15458981 C92.9290895,4.44686032 93.796286,4.09451431 94.8836986,4.09451431 C95.9376992,4.09451431 96.7790772,4.44382285 97.4199824,5.14092121 C98.0289943,5.81827605 98.3342596,6.69306615 98.3342596,7.76225405 L98.3342596,7.76225405 Z" id="Fill-20"></path>
                        <path d="M104.384891,8.94079071 L104.384891,7.83667195 C102.629236,7.8062973 101.751408,8.2877356 101.751408,9.27946813 C101.751408,9.6530764 101.851645,9.93252324 102.056674,10.1193274 C102.261703,10.3061315 102.522925,10.3987742 102.834265,10.3987742 C103.183573,10.3987742 103.510101,10.2894254 103.806254,10.0676905 C104.106963,9.8474742 104.29073,9.56498989 104.359073,9.22175628 C104.375779,9.14278217 104.384891,9.04862074 104.384891,8.94079071 L104.384891,8.94079071 Z M106.037272,11.4011379 L104.608145,11.4011379 L104.488165,10.5764659 L104.444122,10.5764659 C103.95509,11.2340773 103.257991,11.5636423 102.352827,11.5636423 C101.676991,11.5636423 101.131765,11.3479822 100.71867,10.9151434 C100.345062,10.5217916 100.158258,10.0357971 100.158258,9.45715987 C100.158258,8.58236977 100.522754,7.91564606 101.256302,7.45243255 C101.988331,6.99225651 103.018032,6.76596532 104.343885,6.77507772 L104.343885,6.64294796 C104.343885,5.69981489 103.848778,5.22900772 102.857046,5.22900772 C102.150835,5.22900772 101.528155,5.40518072 100.992042,5.75904547 L100.668552,4.71263856 C101.332238,4.30106197 102.153873,4.09451431 103.124343,4.09451431 C104.995422,4.09451431 105.933999,5.08169063 105.933999,7.05604329 L105.933999,9.69256345 C105.933999,10.4094053 105.968929,10.9789301 106.037272,11.4011379 L106.037272,11.4011379 Z" id="Fill-21"></path>
                        <path d="M113.431982,8.38189703 L113.431982,7.18817304 C113.431982,6.98162538 113.416795,6.81456477 113.387939,6.68699122 C113.298334,6.30427055 113.105455,5.98229919 112.812339,5.72259588 C112.516187,5.46137384 112.159284,5.33228155 111.747708,5.33228155 C111.153883,5.33228155 110.689151,5.56768513 110.347436,6.03849231 C110.008759,6.51081821 109.837142,7.11375514 109.837142,7.85034055 C109.837142,8.55807004 109.999646,9.13215104 110.326174,9.57410229 C110.670926,10.0449095 111.135658,10.2818318 111.717333,10.2818318 C112.239777,10.2818318 112.657429,10.0843965 112.974844,9.69256345 C113.281628,9.32958631 113.431982,8.89219126 113.431982,8.38189703 L113.431982,8.38189703 Z M115.081326,11.4011379 L113.668905,11.4011379 L113.596006,10.2514571 L113.550444,10.2514571 C113.09938,11.1262472 112.33242,11.5636423 111.252601,11.5636423 C110.388442,11.5636423 109.6716,11.2249649 109.102075,10.54761 C108.53255,9.86873646 108.247029,8.99090889 108.247029,7.90957113 C108.247029,6.75077799 108.555331,5.81220112 109.174974,5.09687796 C109.774874,4.42863552 110.509941,4.09451431 111.386249,4.09451431 C112.346089,4.09451431 113.020406,4.41800439 113.403127,5.06650331 L113.431982,5.06650331 L113.431982,0.956812316 L115.025133,0.956812316 L115.025133,9.47234719 C115.025133,10.1694456 115.043358,10.8118695 115.081326,11.4011379 L115.081326,11.4011379 Z" id="Fill-22"></path>
                        <path d="M127.044385,7.81389096 C127.044385,7.15476092 126.901624,6.58827358 126.617621,6.11594768 C126.281981,5.54338541 125.808136,5.25786364 125.186974,5.25786364 C124.550625,5.25786364 124.063112,5.54338541 123.727472,6.11594768 C123.443469,6.58827358 123.300708,7.16387332 123.300708,7.84274689 C123.300708,8.50339566 123.443469,9.069883 123.727472,9.54372764 C124.072225,10.1132524 124.552144,10.3987742 125.173306,10.3987742 C125.780799,10.3987742 126.2592,10.1086962 126.602433,9.52854031 C126.895549,9.04558327 127.044385,8.47453974 127.044385,7.81389096 L127.044385,7.81389096 Z M128.693729,7.76225405 C128.693729,8.86333534 128.379351,9.76546263 127.750595,10.4731921 C127.091465,11.2006651 126.219713,11.5636423 125.127744,11.5636423 C124.078299,11.5636423 123.241478,11.2158525 122.61576,10.5172354 C121.993079,9.82013701 121.681739,8.94079071 121.681739,7.88071521 C121.681739,6.77052152 122.002192,5.8623193 122.646134,5.15458981 C123.288558,4.44686032 124.155755,4.09451431 125.247724,4.09451431 C126.297168,4.09451431 127.143102,4.44382285 127.779451,5.14092121 C128.388463,5.81827605 128.693729,6.69306615 128.693729,7.76225405 L128.693729,7.76225405 Z" id="Fill-23"></path>
                        <path d="M137.251788,11.4011379 L135.661675,11.4011379 L135.661675,7.30055927 C135.661675,6.03697357 135.181755,5.40518072 134.21736,5.40518072 C133.745034,5.40518072 133.362313,5.579835 133.069198,5.92762481 C132.776082,6.27541462 132.627246,6.68395375 132.627246,7.15476092 L132.627246,11.4011379 L131.034096,11.4011379 L131.034096,6.28908322 C131.034096,5.66032784 131.015871,4.9784168 130.977903,4.24183139 L132.375137,4.24183139 L132.449555,5.36113747 L132.493598,5.36113747 C132.680402,5.01334766 132.956812,4.72478842 133.31827,4.4969785 C133.751109,4.22816279 134.232547,4.09451431 134.762585,4.09451431 C135.430827,4.09451431 135.985165,4.31017437 136.427116,4.74301322 C136.978416,5.27305097 137.251788,6.06279203 137.251788,7.11375514 L137.251788,11.4011379" id="Fill-24"></path>
                        <path d="M147.96341,5.43403665 L146.209274,5.43403665 L146.209274,8.91193479 C146.209274,9.79583728 146.520614,10.2377885 147.138739,10.2377885 C147.422742,10.2377885 147.659664,10.2134888 147.846468,10.1633706 L147.888993,11.3722819 C147.574615,11.4892244 147.16152,11.5484549 146.651225,11.5484549 C146.02247,11.5484549 145.533438,11.3570946 145.181092,10.9743739 C144.82419,10.5901345 144.649535,9.94771056 144.649535,9.04406454 L144.649535,5.43403665 L143.60161,5.43403665 L143.60161,4.24183139 L144.649535,4.24183139 L144.649535,2.92964624 L146.209274,2.45883907 L146.209274,4.24183139 L147.96341,4.24183139 L147.96341,5.43403665" id="Fill-25"></path>
                        <path d="M156.38934,11.4011379 L154.797708,11.4011379 L154.797708,7.33093393 C154.797708,6.0476047 154.31627,5.40518072 153.354912,5.40518072 C152.616808,5.40518072 152.112588,5.77727026 151.836179,6.52296807 C151.789098,6.67939755 151.76328,6.87075789 151.76328,7.09553034 L151.76328,11.4011379 L150.173167,11.4011379 L150.173167,0.956812316 L151.76328,0.956812316 L151.76328,5.27153224 L151.792136,5.27153224 C152.293318,4.48634737 153.011678,4.09451431 153.942662,4.09451431 C154.601792,4.09451431 155.147017,4.31017437 155.579855,4.74301322 C156.120524,5.28216336 156.38934,6.08405429 156.38934,7.14412979 L156.38934,11.4011379" id="Fill-26"></path>
                        <path d="M163.562315,7.06971188 C163.574465,6.59890471 163.469672,6.19036559 163.254012,5.84713197 C162.977603,5.40518072 162.556914,5.18496446 161.987389,5.18496446 C161.467983,5.18496446 161.044256,5.40062452 160.720766,5.83346338 C160.456507,6.17669699 160.300077,6.58979232 160.24844,7.06971188 L163.562315,7.06971188 L163.562315,7.06971188 Z M165.081048,7.48280721 C165.081048,7.76832898 165.059786,8.00828876 165.021817,8.2042053 L160.24844,8.2042053 C160.269702,8.91193479 160.497512,9.45108493 160.939464,9.82469321 C161.343447,10.1588144 161.865891,10.325875 162.503758,10.325875 C163.209969,10.325875 163.852393,10.2134888 164.434068,9.98719762 L164.68314,11.0913164 C164.004266,11.3859505 163.206932,11.5347864 162.280505,11.5347864 C161.17183,11.5347864 160.300077,11.2082588 159.668284,10.553685 C159.033454,9.90062985 158.719076,9.02432101 158.719076,7.92475846 C158.719076,6.84493943 159.012192,5.9458496 159.602979,5.22900772 C160.219584,4.46204765 161.053369,4.07932698 162.10585,4.07932698 C163.135551,4.07932698 163.917699,4.46204765 164.446218,5.22900772 C164.869944,5.83801957 165.081048,6.58979232 165.081048,7.48280721 L165.081048,7.48280721 Z" id="Fill-27"></path>
                    </g>
                </g>
            </g>
        </g>
    </g>
</svg>