<svg xmlns="http://www.w3.org/2000/svg" viewBox="0 0 330 55"><defs><style>.cls-1{fill:#323c48;}.cls-2{fill:#b4b4b5;}.cls-3{fill:#ff5349;}.cls-4{fill:none;}</style></defs><title>Asset 3</title><g id="Layer_2" data-name="Layer 2"><g id="Layer_1-2" data-name="Layer 1"><path class="cls-1" d="M74.81,13.09a10.24,10.24,0,0,0-2.93-.37c-1.9,0-3.81.3-3.81,3.64v3h6.73v7.73H68.14v21H59v-21H53.83V19.4H59V16.89C59,6.53,65.4,5.75,69.44,5.75a14.31,14.31,0,0,1,5.37.78Z"/><path class="cls-1" d="M82.44,5.18a5.25,5.25,0,1,1-5.3,5.25A5.25,5.25,0,0,1,82.44,5.18ZM77.94,19.4h9.12V48.13H77.94Z"/><path class="cls-1" d="M90.82,6.41h9.12V48.13H90.82Z"/><path class="cls-1" d="M139.33,48.13V32.63c0-3.88-1.31-6.21-4.41-6.21-2.74,0-4.83,1.73-4.83,7.28V48.13h-8.82V32.57c0-3.88-1.25-6.15-4.35-6.15-2.74,0-4.89,1.79-4.89,7.45V48.13h-8.82V19.4H112v4.17c1.26-2.56,3.95-4.89,8.52-4.89,4.3,0,7.21,2,8.47,5.2,1.42-2.74,4.23-5.2,9.35-5.2,8,0,9.72,6,9.72,11.75V48.13Z"/><path class="cls-1" d="M150.5,33.76c0-8.22,6-15.13,16-15.13s15.91,6.91,15.91,15.13-6,15.13-15.91,15.13S150.5,42,150.5,33.76Zm22.82,0c0-4-2.74-7.34-6.91-7.34s-6.8,3.34-6.8,7.34,2.69,7.34,6.8,7.34S173.32,37.81,173.32,33.76Z"/><path class="cls-1" d="M205.51,27.68a12.15,12.15,0,0,0-3.09-.41c-5.13,0-8.41,2.56-8.41,9.65V48.13h-9.12V19.4H194V24a10,10,0,0,1,8.89-5.12,6.36,6.36,0,0,1,2.62.48Z"/><path class="cls-1" d="M238.06,19.4V48.13h-9.12V44.07c-1.43,2.62-4.78,4.78-9.18,4.78-7.63,0-13.58-6.5-13.58-15.09s6-15.09,13.58-15.09c4.24,0,7.63,2,9.18,4.84V19.4Zm-9.12,14.36c0-3.93-2.74-7.34-6.86-7.34s-6.86,3.41-6.86,7.34,2.74,7.34,6.86,7.34S228.93,37.75,228.93,33.76Z"/><path class="cls-1" d="M0,13.1,10.48,23.57a3.72,3.72,0,0,1,.57,4.5l.08.09,2-2L26.19,13.1,13.1,0Z"/><polygon class="cls-2" points="27.52 14.43 27.47 14.43 26.06 15.84 28.93 15.84 27.52 14.43"/><polygon class="cls-3" points="27.5 14.4 27.47 14.43 27.52 14.43 27.5 14.4"/><polygon class="cls-2" points="31.86 18.76 30.45 17.35 24.55 17.35 23.14 18.76 21.73 20.18 33.27 20.18 31.86 18.76"/><polygon class="cls-2" points="36.19 23.1 34.79 21.7 20.21 21.7 18.8 23.1 17.39 24.51 37.6 24.51 36.19 23.1"/><polygon class="cls-2" points="40.53 27.44 39.12 26.03 15.88 26.03 14.46 27.44 13.06 28.85 39.25 28.85 40.59 27.5 40.53 27.44"/><polygon class="cls-2" points="11.54 30.37 10.13 31.78 8.72 33.19 34.91 33.19 36.32 31.78 37.73 30.37 11.54 30.37"/><polygon class="cls-2" points="7.2 34.71 5.79 36.11 4.38 37.52 30.57 37.52 31.98 36.11 33.39 34.71 7.2 34.71"/><polygon class="cls-2" points="2.87 39.04 1.46 40.45 0.05 41.85 26.24 41.85 27.65 40.45 29.06 39.04 2.87 39.04"/><polygon class="cls-2" points="1.46 43.38 2.88 44.78 4.29 46.2 21.9 46.2 23.31 44.78 24.72 43.38 1.46 43.38"/><polygon class="cls-2" points="5.8 47.7 7.21 49.12 8.62 50.53 17.57 50.53 18.98 49.12 20.38 47.7 5.8 47.7"/><polygon class="cls-2" points="10.14 52.04 11.15 53.06 11.55 53.46 12.61 54.52 12.95 54.86 13.1 55 13.23 54.86 13.58 54.52 14.64 53.46 15.03 53.06 16.05 52.04 10.14 52.04"/><path class="cls-4" d="M259.52,15.54h-7.75v9.68h7.75c3.56,0,5.76-1.66,5.76-4.81S263.08,15.54,259.52,15.54Z"/><path class="cls-4" d="M314.17,26.86c-3.62,0-6.3,2.76-6.3,6.68s2.67,6.68,6.3,6.68,6.32-2.76,6.32-6.68S317.82,26.86,314.17,26.86Z"/><path class="cls-2" d="M259.67,6.55H241.85V48.12h9.92v-14h8c10.18,0,15.62-5.46,15.62-13.66S269.94,6.55,259.67,6.55Zm-.15,18.68h-7.75V15.54h7.75c3.56,0,5.76,1.69,5.76,4.87S263.08,25.22,259.52,25.22Z"/><path class="cls-2" d="M295.25,18.19c-3.56,0-6.27,1.34-8,4.16V19h-8.91V48.12h9.29V32.38c0-3.62,2-5.26,5.32-5.26a15.63,15.63,0,0,1,4.66.77l.86-9.26A12.08,12.08,0,0,0,295.25,18.19Z"/><path class="cls-2" d="M314.17,18.19c-9.09,0-15.8,6.53-15.8,15.35s6.71,15.35,15.8,15.35S330,42.36,330,33.54,323.29,18.19,314.17,18.19Zm0,22c-3.62,0-6.3-2.76-6.3-6.68s2.67-6.68,6.3-6.68,6.32,2.76,6.32,6.68S317.82,40.22,314.17,40.22Z"/></g></g></svg>