<svg xmlns="http://www.w3.org/2000/svg" viewBox="0 0 40.59 55"><defs><style>.cls-1{fill:#323c48;}.cls-2{fill:#61ded0;}</style></defs><title>Asset 9</title><g id="Layer_2" data-name="Layer 2"><g id="Layer_1-2" data-name="Layer 1"><path class="cls-1" d="M0,13.1,10.48,23.57a3.72,3.72,0,0,1,.57,4.5l.08.09,2-2L26.19,13.1,13.1,0Z"/><polygon class="cls-2" points="27.52 14.43 27.47 14.43 26.06 15.84 28.93 15.84 27.52 14.43"/><polygon class="cls-2" points="27.5 14.4 27.47 14.43 27.52 14.43 27.5 14.4"/><polygon class="cls-2" points="31.86 18.76 30.45 17.35 24.55 17.35 23.14 18.76 21.73 20.18 33.27 20.18 31.86 18.76"/><polygon class="cls-2" points="36.19 23.1 34.79 21.7 20.21 21.7 18.8 23.1 17.39 24.51 37.6 24.51 36.19 23.1"/><polygon class="cls-2" points="40.53 27.44 39.12 26.03 15.88 26.03 14.46 27.44 13.06 28.85 39.25 28.85 40.59 27.5 40.53 27.44"/><polygon class="cls-2" points="11.54 30.37 10.13 31.78 8.72 33.19 34.91 33.19 36.32 31.78 37.73 30.37 11.54 30.37"/><polygon class="cls-2" points="7.2 34.71 5.79 36.11 4.38 37.52 30.57 37.52 31.98 36.11 33.39 34.71 7.2 34.71"/><polygon class="cls-2" points="2.87 39.04 1.46 40.45 0.05 41.85 26.24 41.85 27.65 40.45 29.06 39.04 2.87 39.04"/><polygon class="cls-2" points="1.46 43.38 2.88 44.78 4.29 46.2 21.9 46.2 23.31 44.78 24.72 43.38 1.46 43.38"/><polygon class="cls-2" points="5.8 47.7 7.21 49.12 8.62 50.53 17.57 50.53 18.98 49.12 20.38 47.7 5.8 47.7"/><polygon class="cls-2" points="10.14 52.04 11.15 53.06 11.55 53.46 12.61 54.52 12.95 54.86 13.1 55 13.23 54.86 13.58 54.52 14.64 53.46 15.03 53.06 16.05 52.04 10.14 52.04"/></g></g></svg>