<?xml version="1.0" encoding="utf-8"?>
<!-- Generator: Adobe Illustrator 19.0.0, SVG Export Plug-In . SVG Version: 6.00 Build 0)  -->
<svg version="1.1" id="图层_1" xmlns="http://www.w3.org/2000/svg" xmlns:xlink="http://www.w3.org/1999/xlink" x="0px" y="0px"
	 viewBox="-95.4 370.9 53.1 53.1" style="enable-background:new -95.4 370.9 53.1 53.1;" xml:space="preserve">
<style type="text/css">
	.st0{fill:#FFFFFF;}
	.st1{fill:#61DED0;}
</style>
<title>Asset 8</title>
<g id="Layer_1-2">
	<path class="st0" d="M-88.7,383.5l10.1,10.1c1.1,1.2,1.4,2.9,0.5,4.3l0.1,0.1l14.5-14.5L-76,370.9L-88.7,383.5z"/>
	<polygon class="st1" points="-62.1,384.8 -62.1,384.8 -63.5,386.2 -60.7,386.2 	"/>
	<polygon class="st1" points="-62.1,384.8 -62.1,384.8 -62.1,384.8 	"/>
	<polygon class="st1" points="-59.3,387.7 -65,387.7 -67.7,390.4 -56.5,390.4 	"/>
	<polygon class="st1" points="-55.1,391.8 -69.1,391.8 -71.9,394.6 -52.4,394.6 	"/>
	<polygon class="st1" points="-50.9,396 -73.3,396 -76.1,398.8 -50.8,398.8 -49.5,397.5 	"/>
	<polygon class="st1" points="-77.5,400.2 -80.2,402.9 -55,402.9 -52.2,400.2 	"/>
	<polygon class="st1" points="-81.7,404.4 -84.4,407.1 -59.1,407.1 -56.4,404.4 	"/>
	<polygon class="st1" points="-85.9,408.6 -88.6,411.3 -63.3,411.3 -60.6,408.6 	"/>
	<polygon class="st1" points="-87.3,412.8 -84.5,415.5 -67.5,415.5 -64.8,412.8 	"/>
	<polygon class="st1" points="-83.1,417 -80.3,419.7 -71.7,419.7 -69,417 	"/>
	<polygon class="st1" points="-78.9,421.2 -76.2,423.9 -76,424 -75.9,423.9 -73.2,421.2 	"/>
</g>
</svg>
